<?xml version="1.0" encoding="UTF-8"?>
<!DOCTYPE svg PUBLIC "-//W3C//DTD SVG 1.1//EN" "http://www.w3.org/Graphics/SVG/1.1/DTD/svg11.dtd">
<!-- Creator: CorelDRAW -->
<svg xmlns="http://www.w3.org/2000/svg" xml:space="preserve" width="4.6093mm" height="4.4046mm" style="shape-rendering:geometricPrecision; text-rendering:geometricPrecision; image-rendering:optimizeQuality; fill-rule:evenodd; clip-rule:evenodd"
viewBox="0 0 0.207511 0.198295"
 xmlns:xlink="http://www.w3.org/1999/xlink">
 <defs>
  <style type="text/css">
   <![CDATA[
    .fil0 {fill:#FEFEFE}
   ]]>
  </style>
 </defs>
 <g id="Layer_x0020_1">
  <metadata id="CorelCorpID_0Corel-Layer"/>
  <g id="_442939456">
   <g>
    <polygon id="_442941832" class="fil0" points="0.104294,0.153356 0.103551,0.151641 0.102583,0.14966 0.101498,0.147868 0.100197,0.14645 0.0991522,0.144172 0.0973649,0.142079 0.0957982,0.139616 0.0936373,0.137298 0.0922552,0.135582 0.0905039,0.133642 0.088532,0.131436 0.086407,0.129271 0.0843946,0.126916 0.0824183,0.124715 0.080631,0.121991 0.0793254,0.119933 0.0789157,0.11766 0.0788797,0.114972 0.0789877,0.112249 0.0803293,0.110007 0.0823417,0.107918 0.0846918,0.107175 0.0866276,0.106693 0.0889012,0.106918 0.0900942,0.107251 0.0910621,0.106058 0.0935202,0.104496 0.0958297,0.1036 0.0970993,0.104235 0.0980312,0.104798 0.0992603,0.102745 0.100561,0.100994 0.102799,0.0998005 0.104807,0.0989766 0.107269,0.098684 0.109466,0.0992423 0.112001,0.0979772 0.114387,0.0973829 0.116769,0.097419 0.118632,0.0979052 0.120721,0.0992873 0.122509,0.101381 0.123774,0.104555 0.124111,0.108435 0.124372,0.112654 0.124449,0.117394 0.124152,0.12191 0.123778,0.126124 0.122774,0.130342 0.121991,0.133552 0.120987,0.135866 0.121919,0.138329 0.120726,0.139895 0.1192,0.14202 0.117259,0.142507 0.115247,0.142056 0.114243,0.140562 0.114279,0.137541 0.114653,0.132053 0.116363,0.126232 0.117034,0.121941 0.11789,0.117129 0.118673,0.112649 0.118412,0.109066 0.118412,0.105257 0.117588,0.10261 0.11554,0.103281 0.114126,0.104586 0.113901,0.106225 0.113568,0.109322 0.112303,0.111227 0.110772,0.112082 0.108687,0.111335 0.107085,0.109358 0.106527,0.107116 0.106004,0.104393 0.104402,0.105586 0.102983,0.107526 0.102686,0.108868 0.103209,0.110956 0.103506,0.112154 0.103506,0.113424 0.102466,0.114315 0.101232,0.113829 0.0995574,0.11282 0.0976215,0.110767 0.0972074,0.109124 0.0953075,0.109124 0.0938939,0.109795 0.0932231,0.110911 0.0943396,0.113487 0.0943396,0.115391 0.0943036,0.117147 0.0922552,0.118452 0.0901707,0.11897 0.0884555,0.117813 0.0872624,0.116841 0.0871139,0.115612 0.0861819,0.114419 0.0857362,0.113262 0.086254,0.111542 0.0849124,0.111879 0.0837238,0.113446 0.0835348,0.115233 0.0832736,0.117363 0.0841335,0.119528 0.0861459,0.121883 0.0899096,0.125543 0.0930385,0.129199 0.0955011,0.132075 0.0987425,0.135551 0.101124,0.138126 0.103064,0.140814 0.105302,0.143429 0.1069,0.146675 0.108467,0.149143 0.108579,0.150858 0.107909,0.152614 0.106495,0.153919 0.105599,0.15414 "/>
    <path id="_442942048" class="fil0" d="M0.102956 0.160037l0.00167475 -0.00153068 0.00357459 -0.00216096 0.00365563 -0.00186383 0.00324145 -0.00160271 0.00368714 -0.00108048 0.00394826 -0.00130108 0.00409683 -0.000706815 0.00309738 0.000337651 0.00282726 0.000562751 0.00130558 0.000148566 0.00100845 0.00276423 0.000373667 0.00275973 -0.000747333 0.00272371 -0.0015622 0.00198088 0.00152618 0.00231403 0.000445699 0.00305686 -0.000891398 0.00212945 -0.00115702 0.00171527 -0.000517731 0.00108048 0.00185933 0.00175578 0.00104447 0.00227802 -0.0002251 0.0029128 -0.00182331 0.00347105 -0.00327746 0.00271921 -0.00350256 0.0024626 -0.0024581 0.0015667 -0.00387623 0.00159821 -0.00309288 0.000931916 -0.00212495 0.000373667 -0.00122905 -0.000486217 -0.000409683 -0.00164323 0.000148566 -0.00130558 0.000747333 -0.00145415 0.00182331 -0.000931916 -0.00230953 0.000256614 -0.002233 0.000558249 -0.0022375 -0.0013461 -0.000819365 -0.0020124 0.000184582 -0.0017918 0.00175128 -0.00250312 0.00257065 -0.00238606 0.0031289 -0.00141363 0.00320543 -0.00175128 0.00365113 -0.00122905 0.00249411 -0.00141813 0.00298483 -0.00264718 -0.000153068 -0.00249861 -0.00286778 0.00182331 -0.00417336 0.00294882 -0.00279125 0.00149016 -0.00302085 0.00122905 -0.00361511 0.00137761 -0.00331348 0.000670799 -0.00279575 -0.000414185 -0.00119303 -0.00160722 0.000558249 -0.0015667 0.00137761 -0.0033585 0.00275973 -0.00227351 0.00305236 -0.00171527 0.00369165 -0.00171527 0.00275523 -0.00100395 0.00216096 -0.000855382 0.00271921 0.00011255 0.00264718 -0.000184582 0.0015667 -0.0013416 0.00115251 -0.00235005 0.000373667 -0.00167925 -0.00309288 -0.000337651 -0.00208893 0.000517731 -0.00238156 0.000598767 -0.00272371 0.00115251 -0.00320093 0.0011165 -0.00238606 0.00123355 -0.00238156 0.00186383 -0.0026832 0.00193586 -0.00235005 0.00138212 -0.00208443 0.000522233 -0.00175128 -0.000675301 -0.00145415 -0.000747333 -0.000450201 -0.00115702 -0.000297133 -0.00119303 0.00104447 -0.0008959 0.00182782 -0.000297133zm0.0160226 0.0242343l0.0026832 -0.00130558 0.00260666 -0.0022375 0.00287228 -0.0024626 0.0013371 -0.00160271 0.000297133 -0.000432193 0.000333149 -0.000486217 0.000616775 -0.000328647 0.000472711 0.000162072 0.000175578 0.00106698 -0.000400679 0.000913908 -0.00100845 0.00167925 -0.00208443 0.0017918 -0.00216096 0.00149016 -0.00194037 0.0011165 -0.00219698 0.000706815 -0.00160271 -7.20321e-005z"/>
    <polygon id="_442941928" class="fil0" points="0.116656,0.194383 0.117475,0.194176 0.118344,0.194181 0.118547,0.195 0.118803,0.196022 0.118524,0.197071 0.117885,0.197557 0.116656,0.197863 0.115301,0.198093 0.113617,0.198295 0.112339,0.197962 0.110857,0.197679 0.109246,0.197323 0.107584,0.196319 0.106054,0.195396 0.105081,0.193685 0.103825,0.192146 0.102497,0.190304 0.101732,0.188972 0.100503,0.187536 0.10012,0.186 0.0987921,0.183722 0.0975405,0.181314 0.0967482,0.178572 0.0956227,0.176245 0.0946997,0.173863 0.094137,0.171608 0.0934977,0.169487 0.0921966,0.167745 0.0914538,0.166079 0.0908145,0.164391 0.0888741,0.16444 0.0872129,0.163873 0.0852725,0.162617 0.0844036,0.162185 0.0827154,0.161519 0.0808246,0.161334 0.0785735,0.161028 0.0763766,0.160488 0.0739995,0.159668 0.0713163,0.158489 0.0691193,0.157512 0.0670754,0.156283 0.0647209,0.15513 0.0627535,0.153771 0.0610427,0.152569 0.0590483,0.151105 0.057234,0.149926 0.0553162,0.147904 0.0534253,0.145982 0.0515075,0.144393 0.0501028,0.143114 0.0489773,0.141219 0.0476493,0.138941 0.045862,0.136559 0.0452227,0.134434 0.0441962,0.132075 0.0429987,0.129874 0.0424089,0.127956 0.0414635,0.126777 0.0406441,0.123499 0.0401084,0.120478 0.039316,0.117737 0.0393385,0.115229 0.0386993,0.111366 0.0390324,0.105734 0.0394151,0.101615 0.0405901,0.0971848 0.0420488,0.0930115 0.0431698,0.089689 0.0449571,0.0864115 0.0466453,0.0835978 0.0483561,0.0804509 0.0508097,0.0763541 0.0538755,0.0721087 0.0568424,0.0678858 0.0601873,0.0643337 0.063996,0.0600073 0.067314,0.0572205 0.070614,0.0547669 0.0740625,0.0520567 0.0783304,0.0495761 0.0821616,0.0475322 0.0859433,0.0457179 0.0889372,0.0446419 0.0923092,0.0438 0.0956046,0.0422153 0.0994133,0.0413735 0.103452,0.0405856 0.107103,0.0400003 0.110299,0.0397437 0.113775,0.0393115 0.118043,0.0394421 0.120775,0.0395231 0.124354,0.0399328 0.126885,0.0405001 0.130513,0.041549 0.133633,0.0427331 0.136978,0.0443988 0.140481,0.0462446 0.143137,0.0481895 0.14641,0.050418 0.149836,0.0528266 0.152186,0.0548525 0.154612,0.0576167 0.15676,0.0601288 0.158372,0.0626635 0.160213,0.0656843 0.161924,0.0686331 0.163279,0.0710147 0.164557,0.0735223 0.16594,0.0764396 0.167164,0.0796135 0.168164,0.0827379 0.168623,0.0858893 0.169109,0.0891398 0.169262,0.091931 0.169136,0.0948978 0.168497,0.0984319 0.167758,0.101552 0.166988,0.104573 0.166124,0.107616 0.164436,0.112172 0.162572,0.115143 0.160807,0.11852 0.158966,0.12159 0.157102,0.12412 0.154549,0.127371 0.152325,0.129338 0.150025,0.131873 0.147495,0.134353 0.144708,0.137118 0.142462,0.139418 0.14121,0.141363 0.140084,0.142948 0.140084,0.14469 0.140008,0.148733 0.140931,0.151551 0.14103,0.154059 0.141174,0.156256 0.141827,0.158601 0.142304,0.160515 0.142655,0.162459 0.143132,0.164643 0.143628,0.166894 0.144168,0.169059 0.144469,0.171355 0.145298,0.173863 0.145586,0.176092 0.145825,0.178406 0.145888,0.180828 0.145599,0.18293 0.145014,0.184366 0.144406,0.185735 0.143884,0.187428 0.143245,0.18867 0.142133,0.190165 0.140557,0.191169 0.138774,0.191614 0.137694,0.191885 0.13701,0.191313 0.136118,0.191533 0.135033,0.192074 0.13325,0.192789 0.132359,0.193015 0.131247,0.192884 0.130405,0.192483 0.129847,0.19188 0.129671,0.191178 0.129923,0.1903 0.131053,0.189679 0.132422,0.188931 0.133665,0.188215 0.135065,0.187054 0.136559,0.18573 0.137897,0.184312 0.139409,0.182511 0.140157,0.181174 0.140188,0.179405 0.140206,0.177028 0.139441,0.174241 0.138612,0.171463 0.137833,0.168884 0.137433,0.166745 0.13651,0.16413 0.135745,0.161338 0.135222,0.158966 0.134822,0.156557 0.134187,0.154275 0.13398,0.152091 0.133678,0.15061 0.133485,0.14876 0.133566,0.146639 0.133246,0.14455 0.133404,0.14275 0.133485,0.141169 0.133944,0.140039 0.135186,0.139054 0.137176,0.137541 0.139135,0.136168 0.140805,0.134466 0.142286,0.133349 0.143655,0.131792 0.145978,0.129446 0.147823,0.127362 0.14935,0.125354 0.150975,0.122918 0.152677,0.120528 0.153933,0.117975 0.155126,0.115715 0.156256,0.113739 0.157228,0.111668 0.158052,0.109561 0.158691,0.108048 0.159295,0.105595 0.159709,0.102916 0.160118,0.099697 0.160326,0.097545 0.160312,0.0950419 0.160452,0.0923632 0.160105,0.0896035 0.159943,0.0873435 0.159754,0.0852185 0.159547,0.0835798 0.158907,0.0812973 0.158318,0.0789382 0.15784,0.0775696 0.157143,0.0755752 0.155882,0.0735178 0.154914,0.0715234 0.153703,0.0696551 0.152141,0.0674716 0.150678,0.065126 0.149755,0.0633252 0.148895,0.0615064 0.147765,0.0596921 0.14654,0.058301 0.144902,0.0563381 0.143258,0.0543798 0.141192,0.0523178 0.139535,0.0508367 0.137563,0.049432 0.135222,0.048185 0.132962,0.0469875 0.130684,0.0462716 0.128393,0.0452182 0.125912,0.0444798 0.12381,0.0439216 0.122171,0.0435839 0.120546,0.0435839 0.119213,0.043647 0.11703,0.0438541 0.115346,0.0441377 0.113941,0.0442187 0.112429,0.0443898 0.1102,0.0446779 0.108516,0.0449616 0.107161,0.0452317 0.104982,0.0454388 0.103137,0.045898 0.100795,0.0462806 0.0986165,0.047028 0.0965951,0.0473296 0.0942856,0.0478383 0.0926153,0.0484596 0.0912332,0.0491439 0.0891803,0.0504 0.0874785,0.0514354 0.0860289,0.0524079 0.0843271,0.0534388 0.0828955,0.0544743 0.0811577,0.0559239 0.0794064,0.0573106 0.0775921,0.0587107 0.0758093,0.0597011 0.0746028,0.0608131 0.0730586,0.0622178 0.0714514,0.0633613 0.0705105,0.0642076 0.0693039,0.0655943 0.0679983,0.0665982 0.0667738,0.0679173 0.0652611,0.069448 0.0641806,0.0710732 0.0629516,0.072937 0.0619972,0.0737159 0.0610292,0.0747063 0.0598992,0.0755977 0.0588007,0.07743 0.0574636,0.0793884 0.0563516,0.0808876 0.0551586,0.082882 0.053754,0.0848538 0.0533263,0.0863845 0.052579,0.0874515 0.0508457,0.0894459 0.0500488,0.090864 0.0490134,0.0929485 0.0482345,0.0947042 0.0477258,0.0964555 0.0465012,0.098594 0.0457989,0.100665 0.0448445,0.102799 0.0447815,0.104712 0.0440657,0.107535 0.0440837,0.109763 0.0443358,0.11187 0.0444663,0.114819 0.0445924,0.116953 0.0450561,0.119074 0.0457089,0.121419 0.0462311,0.123526 0.0465508,0.126155 0.0476177,0.128802 0.0484461,0.131576 0.0493375,0.134065 0.0509132,0.136857 0.0522683,0.138752 0.053889,0.140922 0.0554512,0.142295 0.0566443,0.144096 0.0575357,0.144686 0.0587782,0.14614 0.0608491,0.147652 0.0628525,0.148913 0.0648109,0.149984 0.0670709,0.151452 0.0693804,0.152843 0.0717485,0.153401 0.0740265,0.154392 0.0771599,0.155571 0.0794514,0.156629 0.0825893,0.157539 0.085232,0.158097 0.0880458,0.158547 0.0899276,0.158484 0.0921381,0.158678 0.0937633,0.158678 0.0951634,0.158601 0.0957487,0.15879 0.096388,0.159718 0.0968472,0.161023 0.0974054,0.163256 0.0982023,0.165904 0.0984589,0.168821 0.100066,0.172553 0.101039,0.175358 0.101817,0.177672 0.102389,0.179698 0.103028,0.181435 0.104109,0.183601 0.104955,0.185897 0.106432,0.188305 0.107612,0.189503 0.109381,0.191164 0.111465,0.19247 0.113072,0.193222 0.11441,0.193974 0.115413,0.194194 "/>
   </g>
   <g>
    <polygon id="_442942096" class="fil0" points="0.0742786,0.168614 0.0738509,0.168357 0.0737024,0.167745 0.0733782,0.167322 0.0724958,0.167254 0.0715774,0.16734 0.0705915,0.167727 0.0697226,0.168596 0.0685701,0.16946 0.0678363,0.170581 0.0668683,0.171909 0.0657788,0.173336 0.0645543,0.174795 0.0634018,0.176528 0.0615154,0.178225 0.0603899,0.180094 0.0590168,0.181809 0.0583505,0.183205 0.057162,0.185091 0.0555458,0.187297 0.0542222,0.188639 0.052588,0.190205 0.0509402,0.191119 0.0494771,0.193073 0.0488873,0.194932 0.0502964,0.19694 0.0519397,0.197346 0.0529616,0.197093 0.0540511,0.196729 0.0554602,0.195104 0.0569099,0.193289 0.0586567,0.190493 0.0600883,0.187864 0.0616235,0.185303 0.0640996,0.182502 0.066229,0.179792 0.0681289,0.177231 0.0700693,0.174835 0.0720952,0.172787 0.0736979,0.171572 0.0744857,0.170374 0.0747018,0.169415 "/>
    <polygon id="_442941760" class="fil0" points="0.0513994,0.160699 0.0497787,0.161829 0.0481175,0.163517 0.0457719,0.165372 0.0435929,0.167191 0.0413554,0.169109 0.0388343,0.171013 0.0368309,0.172783 0.0349536,0.174705 0.0328016,0.17588 0.0309873,0.17733 0.0290244,0.179274 0.0281691,0.18094 0.0279125,0.182457 0.0284482,0.183867 0.0296457,0.184659 0.0313295,0.183785 0.0328196,0.182138 0.0346339,0.179959 0.0370875,0.177802 0.0390909,0.176033 0.041396,0.174367 0.043827,0.17249 0.0463482,0.17059 0.0488198,0.168519 0.0510843,0.166682 0.0527905,0.16553 0.0543437,0.164503 0.0551361,0.16331 0.0552621,0.16164 0.0546859,0.160425 0.0535559,0.159889 0.0526195,0.160123 "/>
    <polygon id="_442941544" class="fil0" points="0.041396,0.155477 0.0418417,0.154005 0.0415445,0.152442 0.0411574,0.151632 0.0399418,0.151114 0.0385552,0.151006 0.0376593,0.151776 0.0364888,0.152888 0.0341837,0.154189 0.0319868,0.155193 0.030195,0.156368 0.0278269,0.158138 0.0260351,0.159677 0.0244144,0.161172 0.0232169,0.162923 0.0234104,0.164053 0.0243919,0.164355 0.0254183,0.164098 0.0279755,0.162734 0.0308117,0.161023 0.0333329,0.159488 0.0351652,0.158484 0.0376188,0.157782 0.0393881,0.156886 0.040437,0.15635 "/>
    <polygon id="_442941688" class="fil0" points="0.0377448,0.145581 0.0377899,0.144298 0.0374027,0.143123 0.0364212,0.142462 0.0353993,0.142353 0.0349086,0.142565 0.0339451,0.143078 0.0329007,0.14361 0.0309828,0.144271 0.0280385,0.14519 0.0254994,0.145915 0.0235995,0.146662 0.0216186,0.147427 0.0202275,0.148409 0.0191425,0.149498 0.0192686,0.150736 0.0198674,0.151317 0.0211459,0.151722 0.0232799,0.151191 0.0260126,0.150507 0.0280385,0.149912 0.0305776,0.149188 0.032518,0.148247 0.0343953,0.147778 0.0360161,0.147373 0.0371461,0.146819 "/>
    <polygon id="_442940920" class="fil0" points="0.0350121,0.128825 0.03467,0.127821 0.0341162,0.127051 0.0331978,0.126641 0.0324955,0.126727 0.0316176,0.126858 0.0303615,0.126533 0.0284842,0.126277 0.0266699,0.125912 0.0246845,0.125593 0.0228072,0.124971 0.0212315,0.124818 0.0194172,0.124454 0.0176434,0.12426 0.0158966,0.124152 0.0144244,0.124066 0.0125246,0.123724 0.0105212,0.12295 0.00872489,0.122671 0.00712668,0.122437 0.00548345,0.122027 0.00422739,0.121707 0.00273272,0.121536 0.00153518,0.121833 0.000684305,0.122045 -0,0.122945 6.30281e-005,0.123927 0.000535739,0.124719 0.00140913,0.124953 0.00271021,0.125084 0.00309738,0.125894 0.00339451,0.126727 0.00518631,0.126646 0.00727525,0.126669 0.00975135,0.127141 0.0115206,0.127335 0.0132719,0.127443 0.0151087,0.127893 0.0170896,0.128213 0.0188634,0.128771 0.0209749,0.129244 0.0234059,0.129905 0.025711,0.130419 0.0273947,0.130635 0.0289974,0.131234 0.0307037,0.131535 0.0323874,0.131751 0.0337741,0.131495 0.0347555,0.131067 0.0352057,0.129959 "/>
    <polygon id="_442940848" class="fil0" points="0.00615875,0.104307 0.0049432,0.104613 0.00383571,0.104982 0.00398878,0.105959 0.00366463,0.106873 0.00422739,0.108021 0.00655042,0.108458 0.00967482,0.108787 0.0124931,0.109376 0.0160271,0.11025 0.0193496,0.110988 0.0224065,0.111425 0.0249906,0.112168 0.0277639,0.112213 0.029218,0.111758 0.0299113,0.110844 0.0299339,0.109453 0.0296952,0.108498 0.0289389,0.108039 0.0278089,0.107584 0.0259856,0.107301 0.0232979,0.106864 0.0203041,0.106319 0.0183907,0.106427 0.0158786,0.105207 0.0129928,0.105095 0.00993143,0.105027 0.00822067,0.104442 "/>
    <polygon id="_442940824" class="fil0" points="0.00925613,0.0853401 0.00791453,0.0854931 0.00689257,0.0858398 0.00654592,0.0870328 0.00682955,0.0877937 0.0076309,0.0884239 0.00669899,0.0887526 0.00585261,0.0890542 0.00552847,0.0899681 0.0060462,0.0905759 0.007847,0.0911432 0.00956227,0.0917329 0.0123175,0.0924262 0.0161352,0.092953 0.0188049,0.0929305 0.0208443,0.0933491 0.0242073,0.0938939 0.026832,0.0944386 0.0296727,0.0947448 0.0315591,0.094182 0.0320138,0.093052 0.0323829,0.0919445 0.0321443,0.0909856 0.0316221,0.0903778 0.0306677,0.0902473 0.0296277,0.0905084 0.0285652,0.0903103 0.026958,0.0897881 0.0248556,0.0891127 0.022447,0.0886986 0.0202996,0.0882168 0.0177829,0.0877396 0.0161352,0.0870418 0.014528,0.0865196 0.0129478,0.0860829 0.0113406,0.0859298 0.0104492,0.0853221 "/>
    <polygon id="_442941136" class="fil0" points="0.0218347,0.0533893 0.0206867,0.0528446 0.0196423,0.0531057 0.0188634,0.0536684 0.019057,0.054821 0.0204886,0.0557574 0.0221634,0.0580174 0.0238561,0.0603629 0.0254814,0.0624519 0.0273272,0.0646713 0.0296907,0.0674941 0.031298,0.0691283 0.0332248,0.0705825 0.0350706,0.0720636 0.0378034,0.0730451 0.0398878,0.0736303 0.0417516,0.0733512 0.042661,0.072937 0.0432688,0.0720456 0.0432508,0.0708526 0.0429672,0.0700918 0.0422513,0.0698081 0.0407342,0.0692634 0.0389514,0.0687862 0.0370875,0.0679578 0.0355479,0.0669584 0.0336165,0.0654997 0.0321849,0.063825 0.0306227,0.0623708 0.0294521,0.0613669 0.027953,0.0590618 0.0262827,0.0575402 0.0248961,0.056041 0.0242208,0.0551946 0.0229647,0.0542132 "/>
    <polygon id="_442941160" class="fil0" points="0.0334184,0.038123 0.0323109,0.0373802 0.0318112,0.0372271 0.031442,0.0379654 0.031334,0.0390099 0.0317257,0.0405766 0.0324415,0.042706 0.0339812,0.0451822 0.0359575,0.0475547 0.0378889,0.0497517 0.0397978,0.0514895 0.0417921,0.0532092 0.0438541,0.0548165 0.0463077,0.0565137 0.0488648,0.0579048 0.0498868,0.0582965 0.0513814,0.0580174 0.0524259,0.0573871 0.0525339,0.0559735 0.0522953,0.055019 0.0511878,0.0542807 0.0495581,0.0532993 0.0476087,0.0521243 0.0460465,0.0510393 0.0442232,0.0496436 0.0422468,0.0480139 0.0411844,0.0467128 0.0396222,0.0456234 0.0387353,0.0446464 0.0373442,0.0431427 0.0364528,0.0421658 0.0357369,0.0407747 0.0349581,0.0398608 0.0341973,0.0390324 "/>
    <path id="_442941328" class="fil0" d="M0.0596876 0.0170626l-0.000283627 -0.00113 -0.000805859 -0.000630281 -0.000693309 -0.000562751 -0.000387173 -0.000828369 -0.000868888 0.000216096 -0.000499723 0.000954426 0.000261116 0.00141363 0.000414185 0.00165224c0,0 0.000387173,0.0015667 0.000495221,0.00199889 0.00011255,0.000436695 0.000481715,0.00191335 0.000481715,0.00191335l0.000715819 0.00286778 0.000301635 0.00232754 0.000562751 0.00299834 0.000958928 0.00197638 0.00110299 0.00295782 0.000891398 0.00245359 0.000652791 0.002242 0.000801357 0.00136861 0.00123805 0.00126056 0.00138662 2.251e-005 0.00151718 -0.000562751 0.000562751 -0.000697811 0.000369165 -0.00110749 -0.000238606 -0.00169276 -0.0011255 -0.00119753 -0.00115251 -0.0020214 -0.000909406 -0.00217447 -0.00104447 -0.00379969 -0.000909406 -0.0029128 -0.000693309 -0.00204391 -0.000891398 -0.0024581 -0.000499723 -0.00162973 -0.000607771 -0.000954426 -0.000193586 -0.00115251 -0.000909406 -0.00106698z"/>
    <path id="_442941064" class="fil0" d="M0.0856957 0.00198088l-0.000675301 0.000630281 -6.30281e-005 0.000846378 -0.000522233 0.00123805 0.000153068 0.0013506 -0.000261116 0.00227802 -2.251e-005 0.00323694c0,0 -8.10361e-005,0.002242 -0.000432193,0.0026967 -0.000346655,0.000454703 -0.000477213,0.00140913 -0.000346655,0.00193136 0.000130558,0.000522233 0.000130558,0.00384922 0.000130558,0.00384922l0.000477213 0.00227802 -0.000517731 0.00382671 0.000108048 0.00339001 0.000562751 0.00189084 0.000715819 0.00249861 0.000976936 0.00169726 0.00188634 -0.000193586 0.00104447 -0.000261116 0.000841876 -0.000675301 0.000306137 -0.000999446 -0.000261116 -0.00104447 -0.000369165 -0.00147666 -0.000738329 -0.00147666 -0.000432193 -0.000999446 -0.000522233 -0.00208443 4.50201e-005 -0.00167475 -0.000261116 -0.00362862 0.000409683 -0.00352057 -0.000279125 -0.00260666 0.000126056 -0.00206642 -0.000387173 -0.00193136 0.000693309 -0.00128307 -0.000391675 -0.00267419 -0.000454703 -0.00182331 0.000148566 -0.00160722 -0.000301635 -0.00122004 -0.000216096 -0.000868888 -0.00117052 0.000477213z"/>
    <polygon id="_442941016" class="fil0" points="0.109381,0.00271471 0.109295,0.00126056 0.109102,0.000477213 0.108426,0 0.107648,0.000193586 0.107148,0.000783349 0.106563,0.00176029 0.10654,0.00388974 0.105739,0.00621277 0.105847,0.00775696 0.10496,0.00899051 0.104267,0.0117502 0.10396,0.0138572 0.104091,0.0162252 0.103722,0.0184447 0.103591,0.0208758 0.103596,0.0238336 0.103812,0.0261792 0.103681,0.0282456 0.104113,0.0299834 0.10446,0.0313745 0.105568,0.0317437 0.106869,0.0317887 0.107823,0.0315501 0.108498,0.0309198 0.108453,0.0296367 0.108516,0.028052 0.108192,0.0263773 0.108107,0.0227036 0.107801,0.0196423 0.108233,0.0165809 0.108471,0.0131008 0.109039,0.0101925 0.109165,0.00849529 0.108994,0.00706365 0.109124,0.00573556 0.109363,0.00484416 0.109165,0.00332248 "/>
    <polygon id="_442940176" class="fil0" points="0.13628,0.00264718 0.135393,0.00203941 0.134308,0.00212495 0.133376,0.00319192 0.132746,0.00546994 0.131229,0.00714469 0.129145,0.0113586 0.127889,0.0148116 0.126286,0.0183502 0.125394,0.0207002 0.125093,0.022438 0.124463,0.024716 0.123769,0.0271066 0.123594,0.0289974 0.123184,0.0306722 0.123531,0.0320588 0.124008,0.0328647 0.124985,0.0330853 0.126092,0.0330853 0.127303,0.0327791 0.127803,0.0321939 0.128303,0.0312394 0.128627,0.029218 0.128474,0.0275028 0.12982,0.0221769 0.130558,0.0188544 0.131666,0.0162703 0.13253,0.0142083 0.132967,0.0118808 0.133615,0.0104267 0.134786,0.00810361 0.135763,0.00610472 0.136046,0.00464607 0.136325,0.00393025 "/>
    <polygon id="_442940632" class="fil0" points="0.160861,0.00879692 0.160753,0.0076219 0.16019,0.00683855 0.159407,0.00666297 0.158453,0.00690158 0.157804,0.0076174 0.156305,0.00900852 0.155373,0.011183 0.154225,0.0135916 0.153163,0.015613 0.151709,0.0179135 0.15084,0.0199754 0.149714,0.022474 0.148913,0.0248016 0.147652,0.0271471 0.146567,0.0290785 0.145852,0.0306452 0.145874,0.0322074 0.146874,0.0332518 0.148175,0.0332969 0.149368,0.0332743 0.150624,0.0320363 0.151448,0.030168 0.152731,0.0260621 0.154788,0.0221319 0.156157,0.0187419 0.157476,0.0155499 0.158259,0.0138752 0.159367,0.0120339 0.159736,0.0109219 0.160299,0.0098594 "/>
    <path id="_442940248" class="fil0" d="M0.192862 0.0417156l0.0015622 -0.000387173 0.000868888 -0.000589763 -4.05181e-005 -0.00128307 -0.000828369 -0.000715819 -0.00114801 -0.000175578 -0.00138662 0.000346655 -0.00193136 0.000391675 -0.00160722 0.000216096 -0.00221049 0.000738329 -0.00236806 0.000864386 -0.00205742 0.0013461 -0.00312439 0.00152168 -0.00271021 0.00132359 -0.00210694 0.00117052 -0.00236355 0.000864386 -0.0015622 0.000760839 -0.0015622 0.000760839c0,0 -0.000477213,0.000301635 -0.000909406,0.000409683 -0.000432193,0.000108048 -0.00232304,0.00104447 -0.00232304,0.00104447l-0.00110299 0.00110749 8.55382e-005 0.00108498 0.000585261 0.00123805 0.000868888 0.000522233 0.000931916 0.000414185 0.000931916 4.50201e-005 0.000954426 -0.000238606 0.00121554 -0.000301635 0.00266969 -0.00149917 0.00212495 -0.00182331 0.002233 -0.00102196 0.002233 -0.000648289c0,0 0.000522233,-0.000868888 0.00102196,-0.00108498 0.000499723,-0.000220598 0.00299384,-0.00130108 0.00299384,-0.00130108l0.00262467 -0.00130108 0.00153969 -0.000846378 0.000846378 -0.00104447 0.00229602 -0.000760839 0.00173778 -0.000432193 0.00101745 -0.000715819z"/>
    <path id="_442940464" class="fil0" d="M0.188094 0.0591609l0.00167025 -0.000324145 0.00130108 -0.000324145 0.000868888 -0.000216096 0.000715819 -0.000459205 -4.50201e-005 -0.000909406 -4.50201e-005 -0.000544743 -0.000972434 -0.000585261 -0.000823867 -0.000351157 -0.00130558 -4.50201e-005 -0.00151718 0.000193586 -0.00158471 0.000306137 -0.00103996 0.000256614 -0.00190885 0.000477213 -0.00190885 0.000477213 -0.0015622 0.000391675 -0.00110749 0.000369165c0,0 -0.000909406,0.000409683 -0.00164773,0.000778847 -0.000738329,0.000369165 -0.00214746,0.000999446 -0.00214746,0.000999446l-0.00231853 0.00140913 -0.00158471 0.000675301 -0.000454703 0.0011255 0.000261116 0.00104447 0.000801357 0.00136861 0.00140913 0.00085088 0.00127857 -4.50201e-005 0.0018008 -0.000540241 0.00275523 -0.00151718 0.00119303 -0.000760839 0.00145415 -0.000823867 0.00151718 -0.000567253 0.00123805 -0.000954426 0.00110749 -0.000738329 0.000778847 -0.000193586 0.00182331 -0.000823867z"/>
    <path id="_442940488" class="fil0" d="M0.178595 0.0827739l-0.00132359 0.000607771 -0.000540241 0.00114801 0.000261116 0.00104447 0.000517731 0.000607771 0.00115251 0.000544743 0.00225551 0.000913908 0.00145415 -8.55382e-005 0.00108498 -8.55382e-005 0.00138662 2.251e-005 0.00164773 -4.05181e-005 0.00347105 -0.000130558 0.00360161 2.7012e-005 0.00347105 0.000238606 0.00416436 0.000810361 0.0029083 0.000198088 0.00173327 -6.75301e-005 0.00167025 -0.000324145 -8.55382e-005 -0.00108498 -0.000648289 -0.000760839 -0.00145415 -0.000652791 -0.00210694 -0.000675301 -0.00207993 -0.000589763 -0.00203941 -0.000414185 -0.00210694 -0.000306137 -0.00194937 -0.000432193 -0.00160722 -0.00015757 -0.00175578 -2.251e-005 -0.00153969 0.000108048c0,0 -0.00113,0.000283627 -0.00160722,0.000216096 -0.000477213,-6.30281e-005 -0.00171527,-0.000216096 -0.00171527,-0.000216096l-0.00167025 -0.000414185 -0.00127857 4.05181e-005 -0.00140913 0.000261116 -0.00117052 -0.000630281 -0.000954426 0.000234104 -0.00173778 6.75301e-005z"/>
    <polygon id="_442940056" class="fil0" points="0.186667,0.106986 0.185217,0.106333 0.184087,0.106612 0.183155,0.106936 0.182831,0.10785 0.182894,0.109219 0.183632,0.109962 0.184609,0.110547 0.185649,0.111024 0.187126,0.111398 0.188706,0.111461 0.192808,0.11201 0.195347,0.111834 0.196715,0.11251 0.198534,0.112793 0.201141,0.113622 0.203288,0.114473 0.204459,0.115103 0.205454,0.11504 0.206084,0.114603 0.206061,0.11341 0.205346,0.112388 0.204567,0.111474 0.203522,0.110628 0.201812,0.110038 0.200204,0.109516 0.198665,0.108886 0.197341,0.108381 0.195738,0.107859 0.193892,0.10749 0.193069,0.107512 0.191331,0.107575 0.19016,0.107684 0.188729,0.107116 "/>
    <path id="_442940392" class="fil0" d="M0.181724 0.134817l-0.000994944 -0.00104447 -0.00114801 -0.000913908 -0.0017828 -0.00122004 -0.00106247 -0.000562751 -0.00188634 -0.000544743 -0.00149917 -0.000828369 -0.00244909 -0.000589763 -0.00147666 -0.000369165 -0.00149467 -0.000459205 -0.00121554 0.000306137 -0.000823867 0.000760839 -0.000477213 0.000670799 0.000130558 0.000891398 0.000216096 0.000868888 0.000432193 0.000630281 0.00182331 0.000652791 0.00132359 0.000130558 0.00147666 4.50201e-006 0.00299384 0.000544743c0,0 0.00123355,0.000522233 0.00173327,0.000675301 0.000499723,0.000153068 0.0018008,0.000567253 0.0018008,0.000567253l0.00145415 0.000652791 0.00119303 0.000715819 0.000801357 0.000630281 0.00102196 2.251e-005 0.000693309 -0.000540241 -0.000261116 -0.00104447 -0.000522233 -0.000607771z"/>
    <polygon id="_442940296" class="fil0" points="0.154599,0.140517 0.154072,0.140616 0.153401,0.14089 0.152848,0.141178 0.152424,0.141692 0.152222,0.142516 0.152596,0.143123 0.152857,0.143722 0.153852,0.144325 0.155076,0.144942 0.156188,0.14555 0.157201,0.146072 0.158295,0.146464 0.159506,0.146603 0.160713,0.146414 0.161104,0.145762 0.161118,0.145091 0.160947,0.144546 0.160303,0.144042 0.159596,0.143407 0.158831,0.142858 0.157894,0.142353 0.15726,0.141885 0.156782,0.141597 0.156323,0.141084 0.15604,0.140823 0.15549,0.140409 "/>
   </g>
  </g>
 </g>
</svg>
