<?xml version="1.0" encoding="UTF-8"?>
<!DOCTYPE svg PUBLIC "-//W3C//DTD SVG 1.1//EN" "http://www.w3.org/Graphics/SVG/1.1/DTD/svg11.dtd">
<!-- Creator: CorelDRAW -->
<svg xmlns="http://www.w3.org/2000/svg" xml:space="preserve" width="2.0875mm" height="1.9645mm" style="shape-rendering:geometricPrecision; text-rendering:geometricPrecision; image-rendering:optimizeQuality; fill-rule:evenodd; clip-rule:evenodd"
viewBox="0 0 0.0729579 0.068659"
 xmlns:xlink="http://www.w3.org/1999/xlink">
 <defs>
  <style type="text/css">
   <![CDATA[
    .fil0 {fill:#FEFEFE}
   ]]>
  </style>
 </defs>
 <g id="Layer_x0020_1">
  <metadata id="CorelCorpID_0Corel-Layer"/>
  <g id="_442942456">
   <g>
    <polygon id="_442944352" class="fil0" points="0.0326397,0.052624 0.0325348,0.0519844 0.0323741,0.0512365 0.0321609,0.050541 0.0318428,0.0499539 0.0316821,0.0490976 0.0312557,0.0482413 0.0309341,0.0472802 0.0303994,0.0463191 0.0300814,0.0456236 0.029655,0.0448232 0.0291727,0.0439145 0.0286414,0.0430058 0.0281591,0.0420447 0.0276803,0.041136 0.0273063,0.0400665 0.0270407,0.0392662 0.0270931,0.0384623 0.0273063,0.0375536 0.027572,0.0366449 0.028215,0.0360054 0.0290678,0.0354706 0.0299206,0.0354182 0.0306126,0.0354182 0.0313605,0.0356838 0.0317345,0.035897 0.0321609,0.035579 0.033122,0.0352574 0.0339748,0.0351491 0.0343487,0.0354706 0.0346144,0.0357362 0.0352015,0.0351491 0.0357887,0.0346703 0.0366414,0.0344536 0.0373894,0.0343487 0.0382422,0.0344536 0.0389342,0.034831 0.0398953,0.0346144 0.0407481,0.0346144 0.0415484,0.034831 0.0421356,0.0351491 0.0427227,0.0357922 0.0431491,0.0366449 0.0433099,0.0378228 0.0430967,0.0391578 0.0428311,0.0406013 0.0424571,0.0422055 0.0419748,0.0437013 0.041496,0.0450888 0.040804,0.0464274 0.0402692,0.047441 0.0397345,0.0481365 0.0398429,0.0490452 0.0393081,0.0494715 0.0386161,0.0500587 0.0379206,0.0500587 0.037281,0.0497407 0.0370678,0.04915 0.0373335,0.0481365 0.0379206,0.0463191 0.0389901,0.0445017 0.0395772,0.0431142 0.0402692,0.0415624 0.0409088,0.040119 0.041122,0.0388922 0.0414436,0.0376096 0.0413876,0.0366449 0.0406432,0.0367009 0.040056,0.0370189 0.0398429,0.0375536 0.0394689,0.0385707 0.0388817,0.0391054 0.0382946,0.0392662 0.037655,0.0388363 0.037281,0.0380359 0.037281,0.0372356 0.0373335,0.036271 0.0366939,0.0365401 0.0360543,0.0370748 0.0358411,0.0375012 0.0358411,0.0382491 0.0358411,0.0386755 0.0357362,0.0391054 0.0353064,0.0393186 0.0349359,0.0390495 0.0344536,0.0385707 0.0339748,0.0377144 0.0339748,0.0371273 0.0333352,0.0369665 0.0328005,0.0370748 0.0324824,0.0373929 0.0326397,0.0383575 0.0324824,0.0389971 0.0323216,0.0395842 0.0315213,0.0398533 0.0307734,0.0398533 0.0302945,0.0393186 0.029973,0.0388922 0.0300289,0.0384623 0.0298157,0.0379835 0.0297598,0.0375536 0.0300814,0.0370189 0.029599,0.0370189 0.0290678,0.0374488 0.0288546,0.0380359 0.028589,0.0387314 0.0286938,0.0395318 0.0291727,0.0404929 0.0301338,0.0420447 0.0308817,0.0435406 0.0314689,0.0447149 0.0322692,0.0461583 0.0328529,0.0472278 0.0332828,0.0482972 0.033814,0.0493667 0.0340796,0.0505934 0.0344012,0.0515546 0.0342963,0.0521452 0.0339223,0.0526799 0.0333352,0.052998 0.0330137,0.052998 "/>
    <path id="_442944208" class="fil0" d="M0.0316261 0.054763l0.000695502 -0.000373964 0.00138751 -0.000426388 0.00138751 -0.000321539 0.00122674 -0.000269114 0.00133159 -5.24248e-005 0.00143993 -0.000108345 0.00143993 0.000108345 0.00101355 0.000373964 0.000908697 0.000426388 0.000426388 0.000160769 0.00010485 0.00101704 -0.00010485 0.000961122 -0.000482308 0.000856272 -0.000692007 0.000534733 0.000321539 0.000905202 -0.000108345 0.00106947 -0.000478813 0.000643078 -0.000534733 0.000478813 -0.000265619 0.000321539 0.000478813 0.000747927 0.000160769 0.000856272 -0.000321539 0.000961122 -0.000905202 0.00101704 -0.00133509 0.000639583 -0.00138751 0.000534733 -0.000957627 0.000321539 -0.00143993 0.000213194 -0.00112189 5.24248e-005 -0.000744432 -5.24248e-005 -0.000373964 -0.000269114 0 -0.000587158 0.000157274 -0.000426388 0.000373964 -0.000426388 0.000695502 -0.000160769 -0.000800352 -0.000108345 -0.000800352 0 -0.000639583 -0.000639583 -0.000108345 -0.000747927 0.000213194 -0.000590653 0.000800352 -0.000692007 0.00106597 -0.000590653 0.00117432 -0.000213194 0.00122674 -0.000318044 0.00133509 -0.000108345 0.000957627 -0.000269114 0.00123024 -0.000639583 0.000157274 -0.000856272 -0.0011184 0.000373964 -0.00165313 0.000643078 -0.00106947 0.000265619 -0.0011184 0.000160769 -0.00133509 0.000160769 -0.00117082 -5.24248e-005 -0.000908697 -0.000373964 -0.000265619 -0.000643078 0.000318044 -0.000478813 0.000747927 -0.00101704 0.00112189 -0.000534733 0.00117082 -0.000321539 0.00138751 -0.000265619 0.00101355 -0.00010485 0.000800352 -0.000108345 0.000905202 0.000265619 0.000908697 0.000160769 0.000639583 -0.000318044 0.000587158 -0.000695502 0.000265619 -0.000534733 -0.00101355 -0.000373964 -0.000744432 0 -0.000856272 0 -0.00101355 0.000160769 -0.00117082 0.00010485 -0.000908697 0.000213194 -0.000957627 0.000429883 -0.00106947 0.000426388 -0.000905202 0.000269114 -0.000747927 0 -0.000531238 -0.000377459 -0.000429883 -0.000373964 -5.24248e-005 -0.000426388 0 -0.000426388 0.000426388 -0.000213194 0.000639583 5.24248e-005zm0.00336218 0.00951336l0.00101355 -0.000216689 0.00106597 -0.000531238 0.00117432 -0.000590653 0.000587158 -0.000426388 0.00013281 -0.00011883 0.000153779 -0.000136305 0.000237659 -5.94148e-005 0.000146789 9.43647e-005 -3.14549e-005 0.000373964 -0.000213194 0.000272609 -0.000478813 0.000482308 -0.000856272 0.000426388 -0.000852777 0.000321539 -0.000744432 0.000213194 -0.000800352 5.24248e-005 -0.000534733 -0.000157274z"/>
    <polygon id="_442944256" class="fil0" points="0.0333562,0.0674882 0.0336462,0.0674882 0.0339398,0.0675616 0.0339398,0.0678517 0.0339398,0.0682187 0.0337581,0.0685507 0.0335029,0.068659 0.0330626,0.068659 0.0325873,0.0686241 0.0320001,0.0685507 0.0315982,0.0683305 0.0311229,0.0681103 0.0306091,0.0678517 0.0301338,0.0673764 0.0296969,0.066936 0.0295117,0.0662789 0.0292216,0.0656533 0.028928,0.0649194 0.0287812,0.0644091 0.0284876,0.063822 0.0284876,0.0632733 0.0282325,0.0623925 0.0280123,0.0614768 0.0279774,0.0604877 0.0277921,0.059607 0.0276838,0.0587263 0.0276838,0.0579189 0.0276488,0.05715 0.0273553,0.0564545 0.0272434,0.0558324 0.0271735,0.0552068 0.026513,0.05506 0.0260027,0.0547315 0.025454,0.0541443 0.0251954,0.0539242 0.0246851,0.0535607 0.024063,0.0533405 0.023329,0.0530469 0.022637,0.0526799 0.0219031,0.0522011 0.0210992,0.051579 0.0204422,0.0510653 0.019855,0.0504816 0.0191595,0.0498944 0.0186108,0.0492723 0.0181355,0.0487201 0.0175868,0.0480596 0.017073,0.0475109 0.0165977,0.0466686 0.0161224,0.0458612 0.0156121,0.0451657 0.0152451,0.044617 0.015025,0.0438831 0.0147698,0.0430023 0.0143679,0.0420482 0.0143294,0.0412793 0.0141827,0.0404021 0.013966,0.0395563 0.0139275,0.0388608 0.0137073,0.0383854 0.0137073,0.0372111 0.0137807,0.0361487 0.0137458,0.0351596 0.013966,0.0343173 0.0140743,0.0329612 0.0146615,0.0310914 0.0151368,0.0297354 0.0159022,0.0283409 0.0167445,0.0270582 0.017405,0.0260342 0.0182823,0.02508 0.0190861,0.0242727 0.0199284,0.023357 0.0210992,0.0221827 0.0224902,0.0210119 0.0238428,0.0198375 0.0252688,0.0189219 0.0269149,0.017786 0.028271,0.0171254 0.0295851,0.0165767 0.0309761,0.0159546 0.0326222,0.0154758 0.0340866,0.0151088 0.0355126,0.0148187 0.03661,0.0147069 0.0378193,0.0147069 0.0390635,0.0144518 0.040416,0.0144867 0.041842,0.0145601 0.0431212,0.014672 0.0442221,0.0148537 0.0454278,0.0150005 0.0468538,0.0154024 0.0477695,0.015661 0.0489403,0.0161014 0.0497442,0.0165033 0.05088,0.0171639 0.0518307,0.0178244 0.0528197,0.0186667 0.0538438,0.0195824 0.0545742,0.0204632 0.0554899,0.0214872 0.0564406,0.0225881 0.0570627,0.0234653 0.0576463,0.0246047 0.0581601,0.0256287 0.0584886,0.0266178 0.0588556,0.0277921 0.0591841,0.028928 0.0594392,0.0298437 0.0596594,0.0307978 0.0598796,0.0318987 0.0600264,0.0330696 0.0600998,0.0342054 0.059988,0.0353064 0.0598796,0.0364422 0.0596944,0.0373964 0.0594043,0.0383854 0.0588905,0.0395213 0.0583803,0.0405104 0.0578665,0.0414645 0.0573178,0.0424152 0.0563672,0.0438097 0.0554899,0.044652 0.0546092,0.045641 0.0537319,0.0465218 0.0528896,0.0472173 0.0517573,0.048098 0.0508416,0.0485733 0.049856,0.0492339 0.0487935,0.049856 0.0476227,0.050555 0.0466721,0.0511387 0.0460849,0.0516909 0.0455746,0.0521312 0.0454278,0.0527149 0.0450609,0.0540709 0.0451343,0.0550985 0.0449595,0.0559513 0.0448232,0.0567062 0.0448442,0.0575485 0.0448442,0.0582335 0.0447987,0.0589185 0.0447743,0.0596944 0.0447533,0.0604947 0.0447533,0.0612706 0.0446624,0.0620675 0.0447288,0.0629832 0.044638,0.0637591 0.0445261,0.0645559 0.0443444,0.0653772 0.0440683,0.0660623 0.0437503,0.0664991 0.0434322,0.066908 0.0431107,0.0674323 0.0427926,0.0677993 0.0422928,0.0682082 0.0416777,0.0684144 0.0410381,0.0684144 0.0406502,0.0684144 0.0404685,0.0681627 0.0401504,0.0681627 0.0397415,0.0682536 0.0390809,0.068348 0.0387594,0.068348 0.0383959,0.0682082 0.0381443,0.0680055 0.038008,0.0677538 0.038008,0.0675022 0.0381688,0.0672261 0.0386021,0.0671142 0.0391264,0.0669779 0.0396052,0.0668416 0.0401749,0.0665655 0.04079,0.0662475 0.0413597,0.0658805 0.0420202,0.0654017 0.0423837,0.0650138 0.0425445,0.0644196 0.0427472,0.0636227 0.0427262,0.0626162 0.0426808,0.0616131 0.0426354,0.0606765 0.0426808,0.0599251 0.0425899,0.0589639 0.0425655,0.0579609 0.0425899,0.0571151 0.0426563,0.0562728 0.0426354,0.055448 0.0427472,0.0546966 0.0427717,0.0541723 0.0428625,0.0535327 0.0430652,0.0528232 0.0431351,0.0520928 0.0433413,0.0515021 0.0434986,0.0509744 0.0437503,0.0506319 0.04425,0.0504047 0.0450504,0.0500622 0.0458228,0.0497651 0.0465288,0.0493317 0.0471229,0.0490801 0.0477136,0.0486712 0.0486957,0.048077 0.0494925,0.0475283 0.050174,0.0469796 0.050929,0.0462946 0.0517013,0.045634 0.0523409,0.0448791 0.0529316,0.0442186 0.0534803,0.0436489 0.0539801,0.0430303 0.0544379,0.0423942 0.0547769,0.0419364 0.0551893,0.0411605 0.0555528,0.0402937 0.0559617,0.0392417 0.0562134,0.0385357 0.0564196,0.0376899 0.0566922,0.0367987 0.056804,0.0358411 0.0569438,0.0350652 0.0570557,0.0343348 0.0571256,0.0337651 0.0571011,0.0329438 0.0571011,0.032098 0.0570557,0.0315947 0.0569893,0.0308642 0.0567376,0.0300674 0.0565769,0.0293125 0.0563287,0.028582 0.0559862,0.0277152 0.0556891,0.0268031 0.0555284,0.026118 0.0553921,0.025433 0.0551649,0.0247235 0.0548678,0.0241539 0.0544834,0.023357 0.0540954,0.0225566 0.0535712,0.0216899 0.0531378,0.0210503 0.0525891,0.0204107 0.0519076,0.0197956 0.051247,0.0192015 0.050541,0.0187681 0.049856,0.0182194 0.0490836,0.0177615 0.048423,0.017398 0.0478988,0.0171464 0.0473501,0.0170101 0.0468957,0.0169192 0.0461443,0.0168039 0.0455502,0.0167585 0.0450714,0.0166676 0.0445471,0.0165977 0.0437747,0.0165068 0.0431806,0.0164614 0.0427018,0.0164404 0.0419503,0.0163251 0.0412898,0.0163251 0.0404685,0.0162552 0.0396716,0.0163251 0.0389656,0.0162552 0.0381443,0.0162342 0.0375292,0.0163006 0.0370049,0.016416 0.0362081,0.0166676 0.0355475,0.0168738 0.0349778,0.0170765 0.0343173,0.0172827 0.0337476,0.0175134 0.0330416,0.0178559 0.0323356,0.0181739 0.0316052,0.018492 0.0309236,0.0186772 0.0304204,0.0189498 0.0297843,0.0192923 0.0291447,0.019544 0.0287568,0.0197502 0.028236,0.0201137 0.0277118,0.0203408 0.0271875,0.0206833 0.0265479,0.0210713 0.0260481,0.0215291 0.0254785,0.0220534 0.0250905,0.0222351 0.0246816,0.0224867 0.0242238,0.022693 0.0236995,0.0232172 0.0230844,0.0237659 0.0225846,0.0241783 0.0220149,0.024748 0.0213753,0.0252967 0.0211027,0.0257755 0.0207602,0.0260726 0.0200088,0.0265969 0.0196209,0.0270093 0.0190966,0.0276244 0.0186877,0.0281486 0.0183697,0.0286973 0.0177755,0.0293125 0.0173666,0.029952 0.0168633,0.0305916 0.0166816,0.0312312 0.0162028,0.0321224 0.016021,0.0328739 0.0159302,0.0336043 0.0157274,0.0346074 0.0155876,0.0353378 0.0155667,0.0360927 0.0155876,0.0369385 0.0155876,0.0376899 0.0154758,0.0386021 0.0156121,0.0395842 0.0156575,0.0405908 0.0157484,0.041503 0.0160455,0.0425759 0.0163426,0.0433274 0.016706,0.0441941 0.017115,0.0447883 0.0173666,0.0454977 0.0176182,0.0457704 0.0179118,0.0463645 0.0184815,0.0470495 0.0190512,0.0476437 0.0196209,0.0481679 0.0202604,0.0488529 0.020921,0.0495135 0.0216724,0.0499014 0.0223574,0.0504292 0.0233116,0.0510897 0.0239966,0.0516384 0.0249752,0.0522081 0.025821,0.052617 0.0267297,0.0530085 0.0273692,0.0531448 0.0280962,0.0533964 0.0286449,0.0535327 0.0291237,0.0536236 0.0293055,0.0537389 0.0294418,0.0541024 0.0294872,0.0545812 0.0294872,0.0553816 0.0295326,0.0563392 0.0293719,0.0573423 0.0296025,0.0587368 0.0296934,0.0597643 0.0297598,0.0606066 0.0297843,0.061337 0.0298507,0.0619766 0.0300359,0.0627979 0.0301268,0.0636437 0.0304204,0.0645804 0.0307174,0.0650837 0.0311753,0.0657896 0.0317659,0.0664048 0.0322448,0.0667927 0.0326327,0.0671597 0.0329507,0.0673204 "/>
   </g>
   <g>
    <polygon id="_442943896" class="fil0" points="0.021246,0.0552383 0.0211237,0.0551194 0.0211237,0.0548993 0.0210503,0.054728 0.0207567,0.0546301 0.0204422,0.0545847 0.0200787,0.0546301 0.0197117,0.0548503 0.0192504,0.0550461 0.0189079,0.0553606 0.018471,0.0557276 0.0179852,0.0561155 0.0174505,0.0565035 0.0169157,0.0569928 0.0161364,0.0574052 0.0156016,0.0579399 0.0149935,0.0584012 0.014651,0.0588171 0.0140918,0.0593519 0.0133613,0.05996 0.0128021,0.060299 0.0121206,0.0606905 0.011488,0.0608582 0.010831,0.0613964 0.010478,0.0619696 0.010782,0.0627665 0.0113028,0.0630426 0.0116698,0.0630426 0.0120647,0.0630111 0.0126763,0.0625812 0.0133194,0.0620919 0.0141407,0.0612986 0.0148432,0.0605332 0.0155772,0.0597992 0.0166466,0.0590653 0.0175938,0.0583278 0.01845,0.0576254 0.0193028,0.0569823 0.0201591,0.0564615 0.0207987,0.0561889 0.0211656,0.0558499 0.0213194,0.0555458 "/>
    <polygon id="_442943752" class="fil0" points="0.0142036,0.0506494 0.0135606,0.050894 0.0128581,0.0513239 0.0119144,0.0517503 0.0110267,0.0521802 0.010111,0.052638 0.00910444,0.0530679 0.00827962,0.0534943 0.00748277,0.0539836 0.00665795,0.0542003 0.0059275,0.0545358 0.00510268,0.0550251 0.0046728,0.0555144 0.0044596,0.0560037 0.00452251,0.0565244 0.00485803,0.0568914 0.00549762,0.0567376 0.00614069,0.0563112 0.00693405,0.0557276 0.00794411,0.0552068 0.00876543,0.0547804 0.00968461,0.0544135 0.0106597,0.0539836 0.0116698,0.0535572 0.0126763,0.0530679 0.013592,0.052638 0.014263,0.0523934 0.0148747,0.0521802 0.0152416,0.0518411 0.0154234,0.0512924 0.0153325,0.0508311 0.014997,0.0505585 0.0146615,0.0505585 "/>
    <polygon id="_442944064" class="fil0" points="0.0112713,0.0480491 0.0115474,0.0475877 0.0115754,0.047039 0.011516,0.0467315 0.011149,0.0464589 0.0106912,0.0463051 0.0103242,0.0464868 0.00983489,0.0467629 0.00895066,0.0470076 0.00812585,0.0471614 0.00742335,0.047406 0.00647621,0.0478044 0.00574226,0.0481714 0.00507123,0.0485384 0.00452251,0.0490277 0.00449106,0.0494261 0.00479512,0.0496078 0.0051621,0.0496078 0.00614069,0.0493632 0.00724161,0.0490277 0.00821672,0.0487201 0.00891921,0.0485384 0.00980693,0.0485069 0.010478,0.0483531 0.0108729,0.0482623 "/>
    <polygon id="_442944040" class="fil0" points="0.0108729,0.0444073 0.0109952,0.0439774 0.0109673,0.043551 0.0106912,0.0432435 0.0103556,0.0431212 0.0101704,0.0431526 0.00980693,0.0432435 0.00940851,0.0433378 0.00870601,0.0433973 0.00763655,0.0434602 0.00672086,0.0434881 0.00601837,0.0435825 0.00528442,0.0436734 0.00473571,0.0438866 0.00427786,0.0441627 0.00421495,0.0445925 0.00436873,0.0448372 0.00476716,0.0450818 0.00552907,0.0450818 0.00650767,0.0450818 0.00724161,0.0450504 0.0081573,0.0450189 0.00888775,0.0448652 0.00956229,0.0448652 0.0101425,0.0448652 0.0105688,0.0447743 "/>
    <polygon id="_442944400" class="fil0" points="0.0113622,0.0385322 0.0113342,0.0381653 0.0112119,0.0378577 0.0109358,0.0376445 0.0106912,0.0376131 0.0103871,0.0375851 0.00998867,0.0373684 0.00937705,0.0371238 0.00879688,0.0368511 0.0081573,0.036575 0.00757713,0.0362081 0.00705638,0.0360228 0.00647621,0.0357467 0.00589604,0.0355335 0.00531588,0.0353483 0.00482658,0.035198 0.00421495,0.0349219 0.00360683,0.034492 0.00302666,0.0342474 0.00250591,0.0340342 0.00198515,0.0337581 0.00159022,0.0335449 0.00110092,0.0333597 0.000674533,0.0333597 0.000366974,0.0333597 6.29098e-005,0.0336078 -0,0.0339433 9.43647e-005,0.0342474 0.000366974,0.0344012 0.000796857,0.0345549 0.000856272,0.034859 0.000887727,0.0351666 0.00149935,0.0352889 0.00220184,0.0354741 0.0029952,0.0358411 0.00357537,0.0360543 0.00415554,0.036236 0.00473571,0.0365436 0.00537529,0.0368197 0.0059275,0.0371552 0.00659854,0.0374907 0.00736044,0.0379206 0.00809439,0.0382876 0.0086431,0.0385008 0.0091324,0.0388398 0.00968461,0.0390844 0.0102333,0.0392976 0.0107226,0.0393291 0.0110896,0.0392662 0.0113342,0.0389307 "/>
    <polygon id="_442943104" class="fil0" points="0.00370469,0.0278446 0.00326781,0.0278446 0.00286589,0.027876 0.00283443,0.0282185 0.0026492,0.0284981 0.00274007,0.028935 0.003488,0.0292775 0.00451203,0.0296515 0.00541374,0.0300849 0.00652864,0.0306755 0.00758762,0.0312067 0.00858019,0.0316122 0.00938754,0.032077 0.0103172,0.0323251 0.0108484,0.0322937 0.011156,0.0320455 0.0112818,0.0315807 0.0112818,0.0312382 0.0110651,0.031018 0.0107226,0.0307699 0.010132,0.0305217 0.00926172,0.0301478 0.00830059,0.0297109 0.00764703,0.0295886 0.0069026,0.0289665 0.00594148,0.0286869 0.00491395,0.0284073 0.00438621,0.0280647 "/>
    <polygon id="_442943608" class="fil0" points="0.0063434,0.0217179 0.00587857,0.0216549 0.00550461,0.0216864 0.00528792,0.0220604 0.00531937,0.02234 0.00553606,0.0226196 0.00519355,0.022651 0.00488599,0.0226825 0.00469726,0.0229621 0.00482308,0.0232102 0.00538228,0.0235527 0.00591002,0.0238952 0.00677678,0.0243601 0.008021,0.0248598 0.0089227,0.0250765 0.00957277,0.0253876 0.0106597,0.0258559 0.0114985,0.0262578 0.0124317,0.0266003 0.0131132,0.0265689 0.0133613,0.0262264 0.0135815,0.0258839 0.0135815,0.0255449 0.0134557,0.0252932 0.0131446,0.0251709 0.0127742,0.0251709 0.0124317,0.0250136 0.0119354,0.0247026 0.0112818,0.0242972 0.0105059,0.0239581 0.00982091,0.0236156 0.00901357,0.0232417 0.00851728,0.0228677 0.008021,0.0225566 0.00752471,0.022277 0.00699696,0.0220883 0.00674882,0.0218087 "/>
    <polygon id="_442943248" class="fil0" points="0.0132705,0.0120088 0.012928,0.0117292 0.012554,0.0117292 0.0122429,0.011855 0.012215,0.0122569 0.0126169,0.0126938 0.0129909,0.0135955 0.0133613,0.0145287 0.0137353,0.015371 0.0141687,0.0162727 0.0147279,0.0174225 0.0151333,0.0181075 0.015661,0.0187611 0.0161573,0.0194147 0.0169961,0.0199739 0.0176497,0.0203478 0.0182998,0.0204107 0.0186423,0.0203478 0.0189219,0.0200997 0.0190127,0.0196943 0.0189848,0.0194147 0.0187646,0.0192574 0.0182998,0.0189463 0.0177406,0.0186353 0.0171814,0.0182019 0.016748,0.0177336 0.0162202,0.01708 0.0158777,0.016395 0.0154758,0.0157729 0.0151647,0.0153395 0.0148537,0.0144343 0.0144168,0.0137842 0.0140778,0.0131621 0.0139205,0.0128196 0.0135815,0.0123827 "/>
    <polygon id="_442943152" class="fil0" points="0.018457,0.00783926 0.018146,0.00749675 0.0179887,0.00740588 0.0178035,0.00762257 0.0176776,0.00796508 0.0176776,0.00852427 0.0177406,0.00930366 0.0180516,0.0102683 0.0185164,0.0112329 0.0189848,0.0121346 0.0194811,0.012879 0.0200088,0.013627 0.020568,0.0143434 0.0212495,0.0151193 0.0219975,0.0158043 0.022305,0.016021 0.0228328,0.0160525 0.0232382,0.0159302 0.023392,0.0154618 0.023392,0.0151193 0.0230844,0.0147768 0.0226161,0.014312 0.0220569,0.0137528 0.0216235,0.013253 0.0211272,0.0126309 0.0205995,0.0119144 0.0203513,0.0113867 0.0199144,0.0108904 0.0196977,0.010485 0.0193552,0.00986285 0.0191386,0.00945744 0.0190127,0.00892969 0.0188275,0.00855573 0.0186423,0.00821322 "/>
    <path id="_442943440" class="fil0" d="M0.0290783 0.00295676l0 -0.000405419 -0.000220184 -0.000279599 -0.000185234 -0.000248144 -6.29098e-005 -0.000314549 -0.000311054 0 -0.000248144 0.000283094 -3.14549e-005 0.000496288 0 0.000590653c0,0 0,0.000559198 0,0.000716472 0,0.000153779 0,0.000685018 0,0.000685018l0 0.00102753 -9.08697e-005 0.000807342 -6.29098e-005 0.00105898 0.000153779 0.000744432 0.00012582 0.00109044 9.43647e-005 0.000901707 2.79599e-005 0.000810837 0.000157274 0.000527743 0.000311054 0.000527743 0.000464833 0.00012582 0.000559198 -6.29098e-005 0.000248144 -0.000185234 0.000216689 -0.000342509 6.29098e-005 -0.000590653 -0.000279599 -0.000499783 -0.000216689 -0.000775887 -0.00012582 -0.000810837 -3.14549e-005 -0.00137004 -5.94148e-005 -0.00105549 -6.29098e-005 -0.000747927 -9.43647e-005 -0.000901707 -3.14549e-005 -0.000590653 -0.000122325 -0.000373964 3.14549e-005 -0.000405419 -0.000216689 -0.000433378z"/>
    <path id="_442943416" class="fil0" d="M0.0391089 6.29098e-005l-0.000279599 0.000153779 -9.43647e-005 0.000279599 -0.000279599 0.000373964 -6.29098e-005 0.000468328 -0.000279599 0.000744432 -0.000279599 0.00109044c0,0 -0.000216689,0.000747927 -0.000370469,0.000870252 -0.000157274,0.00012582 -0.000279599,0.000436873 -0.000279599,0.000622108 0,0.000188729 -0.000279599,0.00130713 -0.000279599,0.00130713l-3.14549e-005 0.000810837 -0.000496288 0.00124422 -0.000248144 0.00114985 2.79599e-005 0.000685018 3.14549e-005 0.000901707 0.000188729 0.000653563 0.000650068 9.43647e-005 0.000373964 0 0.000342509 -0.000157274 0.000185234 -0.000311054 0 -0.000373964 0 -0.000527743 -0.00012582 -0.000559198 -5.94148e-005 -0.000373964 0 -0.000747927 0.000153779 -0.000559198 0.000216689 -0.00124422 0.000436873 -0.00114985 0.000122325 -0.000905202 0.000216689 -0.000681523 3.14549e-005 -0.000685018 0.000342509 -0.000373964 9.43647e-005 -0.000933162 0 -0.000653563 0.000185234 -0.000531238 0 -0.000433378 0 -0.000311054 -0.000433378 6.29098e-005z"/>
    <polygon id="_442943632" class="fil0" points="0.0470251,0.0023032 0.0471194,0.00180341 0.0471194,0.00152381 0.0469342,0.00130713 0.0466546,0.00130713 0.0464379,0.0014609 0.0461583,0.0017405 0.0459696,0.00245698 0.0455047,0.00317345 0.0454104,0.00370119 0.0450084,0.0040437 0.0445436,0.00491395 0.044264,0.00559897 0.0441067,0.00640981 0.0437957,0.00712278 0.0435475,0.00793362 0.0432994,0.00892969 0.0431771,0.00973703 0.0429569,0.0104221 0.0429569,0.0110442 0.0429569,0.0115439 0.0432994,0.0117606 0.0437363,0.0118865 0.0440753,0.0118865 0.0443549,0.0117292 0.0444492,0.0112923 0.044603,0.0107646 0.0446345,0.0101739 0.0449141,0.00892969 0.0450714,0.00787071 0.0454733,0.00687464 0.0458472,0.00572479 0.0462806,0.00479163 0.0464694,0.00423243 0.0465288,0.00373265 0.046686,0.00329577 0.0468398,0.00301617 0.0469027,0.00248843 "/>
    <polygon id="_442942984" class="fil0" points="0.0560945,0.00454348 0.0558464,0.00426039 0.0554724,0.00420097 0.0550705,0.00448057 0.0546651,0.00519705 0.054015,0.00563042 0.0529595,0.00687464 0.0522431,0.00793362 0.0514043,0.0089926 0.050908,0.00970558 0.0506598,0.0102683 0.0502579,0.0109813 0.049821,0.0117292 0.0496044,0.0123513 0.0493248,0.012879 0.0493248,0.0133788 0.0494191,0.0136899 0.0497302,0.0138436 0.0501006,0.013938 0.0505375,0.013938 0.0507542,0.0137842 0.0510023,0.0135011 0.0512819,0.0128476 0.0513728,0.0122569 0.0522745,0.0105793 0.0528023,0.00952035 0.0533929,0.00874096 0.0538578,0.00811886 0.0542003,0.00737442 0.0545428,0.00693755 0.0551334,0.00625253 0.0556297,0.00566188 0.0558464,0.00519705 0.0560002,0.00497686 "/>
    <polygon id="_442942624" class="fil0" points="0.0638604,0.00868155 0.0639198,0.00827613 0.0637975,0.00796508 0.0635494,0.00783926 0.0632068,0.00783926 0.0629272,0.00802799 0.0623051,0.00837049 0.0618089,0.00902406 0.0612182,0.00973703 0.0606905,0.0103277 0.0600089,0.0109813 0.0595406,0.0116034 0.0589534,0.0123513 0.0584851,0.0130678 0.0578665,0.0137528 0.0573388,0.014312 0.0569648,0.0147768 0.056839,0.015308 0.0570871,0.0157414 0.057524,0.0158672 0.0579259,0.0159616 0.0584537,0.0156506 0.0588905,0.0150879 0.0596664,0.0138122 0.0606905,0.0126623 0.0614349,0.0116348 0.0621514,0.0106702 0.0625533,0.0101739 0.063081,0.00964616 0.0633012,0.00930366 0.0635808,0.0089926 "/>
    <path id="_442942408" class="fil0" d="M0.0718709 0.0224623l0.000559198 0 0.000342509 -0.000122325 9.08697e-005 -0.000436873 -0.000216689 -0.000311054 -0.000370469 -0.000153779 -0.000499783 0 -0.000681523 -3.14549e-005 -0.000559198 -6.29098e-005 -0.000807342 6.29098e-005 -0.000870252 9.08697e-005 -0.000807342 0.000279599 -0.00118131 0.000251639 -0.00102403 0.000216689 -0.000807342 0.000216689 -0.000870252 9.43647e-005 -0.000587158 0.00012582 -0.000590653 0.000122325c0,0 -0.000188729,6.29098e-005 -0.000342509,6.29098e-005 -0.000153779,0 -0.000870252,0.000157274 -0.000870252,0.000157274l-0.000464833 0.000279599 -6.29098e-005 0.000370469 9.43647e-005 0.000468328 0.000248144 0.000248144 0.000279599 0.000220184 0.000311054 9.08697e-005 0.000339014 0 0.000436873 0 0.00102403 -0.000279599 0.000870252 -0.000433378 0.000838797 -0.000157274 0.000807342 -3.14549e-005c0,0 0.000248144,-0.000248144 0.000433378,-0.000279599 0.000188729,-3.14549e-005 0.0011184,-0.000185234 0.0011184,-0.000185234l0.000992576 -0.000220184 0.000590653 -0.000153779 0.000373964 -0.000279599 0.000838797 -6.29098e-005 0.000622108 0 0.000401924 -0.000157274z"/>
    <path id="_442942744" class="fil0" d="M0.0687953 0.0279389l0.000590653 3.14549e-005 0.000464833 0 0.000311054 0 0.000279599 -9.43647e-005 6.29098e-005 -0.000311054 3.14549e-005 -0.000185234 -0.000279599 -0.000279599 -0.000248144 -0.000188729 -0.000436873 -0.000122325 -0.000527743 -6.29098e-005 -0.000559198 -3.14549e-005 -0.000370469 0 -0.000685018 0 -0.000681523 0 -0.000559198 0 -0.000405419 3.14549e-005c0,0 -0.000339014,6.29098e-005 -0.000618613,0.000122325 -0.000279599,6.29098e-005 -0.000807342,0.000157274 -0.000807342,0.000157274l-0.000901707 0.000279599 -0.000590653 9.43647e-005 -0.000248144 0.000342509 0 0.000373964 0.000157274 0.000527743 0.000401924 0.000405419 0.000433378 9.08697e-005 0.000653563 -3.14549e-005 0.00105549 -0.000279599 0.000464833 -0.000153779 0.000559198 -0.000157274 0.000559198 -6.29098e-005 0.000499783 -0.000216689 0.000433378 -0.000153779 0.000279599 0 0.000681523 -0.00012582z"/>
    <path id="_442942576" class="fil0" d="M0.0636088 0.0350967l-0.000496288 9.08697e-005 -0.000279599 0.000342509 0 0.000373964 0.00012582 0.000248144 0.000342509 0.000279599 0.000681523 0.000499783 0.000496288 9.08697e-005 0.000373964 6.29098e-005 0.000464833 0.00012582 0.000559198 0.00012582 0.00118131 0.000248144 0.00120927 0.000311054 0.00114985 0.000373964 0.00133509 0.000622108 0.000964616 0.000311054 0.000587158 0.000122325 0.000590653 3.14549e-005 6.29098e-005 -0.000373964 -0.000153779 -0.000311054 -0.000436873 -0.000342509 -0.000650068 -0.000401924 -0.000653563 -0.000373964 -0.000653563 -0.000311054 -0.000681523 -0.000279599 -0.000622108 -0.000311054 -0.000527743 -0.000188729 -0.000590653 -0.000153779 -0.000527743 -9.43647e-005c0,0 -0.000401924,0 -0.000559198,-6.29098e-005 -0.000153779,-6.29098e-005 -0.000559198,-0.000216689 -0.000559198,-0.000216689l-0.000527743 -0.000279599 -0.000433378 -9.43647e-005 -0.000496288 -3.14549e-005 -0.000342509 -0.000311054 -0.000342509 0 -0.000590653 -0.000122325z"/>
    <polygon id="_442942864" class="fil0" points="0.0642938,0.043932 0.0638604,0.0435895 0.063455,0.0435895 0.0631125,0.0436209 0.0629272,0.0439005 0.0628329,0.0443654 0.0630216,0.0446764 0.0633012,0.0449595 0.0636088,0.0452077 0.0640771,0.0454558 0.0646048,0.0456131 0.0659399,0.0461408 0.0668102,0.0462946 0.0672121,0.0466371 0.0678028,0.0468853 0.0686101,0.047385 0.0692637,0.0478499 0.0696027,0.0481644 0.0699452,0.0482238 0.0701933,0.048133 0.0702877,0.0477275 0.0701304,0.0473221 0.0699452,0.0469482 0.0696656,0.0465777 0.0691378,0.0462352 0.0686416,0.0459241 0.0681767,0.0455816 0.0677713,0.0452985 0.067275,0.044991 0.0666844,0.0447079 0.0664048,0.0446485 0.0658141,0.0445226 0.0654122,0.0444597 0.0649753,0.0441487 "/>
    <path id="_442942888" class="fil0" d="M0.0602885 0.0528931l-0.000248144 -0.000436873 -0.000311054 -0.000405419 -0.000496288 -0.000559198 -0.000311054 -0.000279599 -0.000590653 -0.000342509 -0.000436873 -0.000405419 -0.000775887 -0.000405419 -0.000464833 -0.000248144 -0.000464833 -0.000279599 -0.000436873 0 -0.000339014 0.000188729 -0.000220184 0.000185234 -2.79599e-005 0.000311054 0 0.000311054 9.08697e-005 0.000248144 0.000559198 0.000373964 0.000433378 0.000157274 0.000499783 0.000122325 0.000961122 0.000436873c0,0 0.000373964,0.000279599 0.000527743,0.000373964 0.000157274,9.08697e-005 0.000559198,0.000342509 0.000559198,0.000342509l0.000436873 0.000342509 0.000339014 0.000339014 0.000216689 0.000283094 0.000342509 9.08697e-005 0.000279599 -0.000122325 0 -0.000373964 -0.000122325 -0.000248144z"/>
    <polygon id="_442942936" class="fil0" points="0.0506668,0.0525332 0.0504816,0.0525192 0.0502335,0.0525576 0.0500238,0.0526065 0.049835,0.0527429 0.0496987,0.053005 0.0497756,0.0532391 0.0498106,0.0534628 0.0500971,0.0537494 0.0504571,0.0540605 0.0507787,0.054361 0.0510792,0.0546197 0.0514113,0.0548433 0.0518097,0.0549936 0.0522326,0.0550321 0.0524178,0.0548433 0.0524807,0.0546197 0.0524667,0.0544204 0.0522955,0.0541968 0.0521068,0.0539242 0.0518971,0.053676 0.0516245,0.0534279 0.0514497,0.0532147 0.0513134,0.0530784 0.0512016,0.0528687 0.0511282,0.0527568 0.0509779,0.0525681 "/>
   </g>
  </g>
 </g>
</svg>
