<?xml version="1.0" encoding="UTF-8"?>
<!DOCTYPE svg PUBLIC "-//W3C//DTD SVG 1.1//EN" "http://www.w3.org/Graphics/SVG/1.1/DTD/svg11.dtd">
<!-- Creator: CorelDRAW -->
<svg xmlns="http://www.w3.org/2000/svg" xml:space="preserve" width="4.1993mm" height="3.8756mm" style="shape-rendering:geometricPrecision; text-rendering:geometricPrecision; image-rendering:optimizeQuality; fill-rule:evenodd; clip-rule:evenodd"
viewBox="0 0 0.21326 0.196821"
 xmlns:xlink="http://www.w3.org/1999/xlink">
 <defs>
  <style type="text/css">
   <![CDATA[
    .fil0 {fill:#FEFEFE}
   ]]>
  </style>
 </defs>
 <g id="Layer_x0020_1">
  <metadata id="CorelCorpID_0Corel-Layer"/>
  <g id="_442951456">
   <g>
    <polygon id="_442954000" class="fil0" points="0.0865726,0.148215 0.0865015,0.146341 0.0863237,0.144137 0.0859682,0.142065 0.0852725,0.140262 0.0851303,0.137753 0.0842263,0.135143 0.0836677,0.132269 0.0824996,0.129313 0.0818394,0.127205 0.0809152,0.124747 0.0798791,0.121969 0.0786908,0.119166 0.07767,0.116231 0.076634,0.113453 0.0759586,0.110248 0.0754964,0.107851 0.0759484,0.105576 0.0768981,0.103052 0.0780001,0.100548 0.0800721,0.0989488 0.082718,0.097735 0.0851811,0.0978975 0.0871667,0.0981565 0.0892083,0.0992027 0.0901986,0.0999543 0.0915393,0.0991925 0.0944086,0.0986339 0.0968971,0.0986441 0.0978468,0.0997004 0.098512,0.100564 0.100411,0.0991011 0.10227,0.0979382 0.104799,0.0976436 0.106978,0.0976182 0.10938,0.0982429 0.111229,0.0995684 0.114062,0.0993144 0.116505,0.0996344 0.118719,0.100543 0.120278,0.101681 0.121726,0.103738 0.12263,0.106343 0.12265,0.109771 0.121538,0.113524 0.120238,0.117556 0.118572,0.12201 0.116642,0.126119 0.114748,0.129922 0.112265,0.133492 0.110355,0.136204 0.108567,0.137997 0.108537,0.140638 0.106851,0.141664 0.104642,0.143091 0.102656,0.142832 0.10094,0.141674 0.100548,0.139912 0.101691,0.137103 0.104048,0.132116 0.10778,0.127307 0.109979,0.123544 0.112544,0.119359 0.114915,0.115464 0.115982,0.112021 0.117379,0.108466 0.117582,0.105688 0.115423,0.105566 0.113626,0.106267 0.112813,0.107719 0.111366,0.110487 0.109487,0.111802 0.107745,0.112041 0.106069,0.110578 0.105297,0.108141 0.105596,0.105845 0.106104,0.103108 0.104175,0.103636 0.102138,0.104931 0.101371,0.106074 0.101092,0.108217 0.100934,0.109446 0.100467,0.110629 0.0991672,0.111081 0.0981972,0.110177 0.0969986,0.108623 0.0959423,0.105993 0.0961607,0.104307 0.0943832,0.103611 0.0928191,0.103717 0.0917831,0.10452 0.0918846,0.107333 0.0911838,0.109111 0.0905084,0.110736 0.0881164,0.111203 0.0859733,0.110924 0.0848002,0.109217 0.0840384,0.107872 0.0843533,0.106668 0.0839216,0.105211 0.0839267,0.103966 0.0850439,0.102554 0.0836677,0.102377 0.0819816,0.103403 0.0811488,0.105007 0.080128,0.106897 0.0801331,0.109233 0.0811538,0.112168 0.0833274,0.116967 0.0849068,0.121533 0.0861511,0.125118 0.0879082,0.129552 0.089193,0.132832 0.0900158,0.136052 0.0911483,0.139312 0.091453,0.142933 0.0920116,0.145808 0.0914885,0.147453 0.0902189,0.14885 0.088416,0.149546 0.0875019,0.149429 "/>
    <path id="_442953976" class="fil0" d="M0.0828704 0.153964l0.00212788 -0.000812554 0.00413387 -0.000710985 0.00409324 -0.000401199 0.00361079 -0.000309786 0.0038444 0.000345336 0.00416434 0.000228531 0.00408816 0.000843025 0.00276268 0.00144736 0.00244274 0.00156417 0.00116297 0.000619573 -7.61769e-005 0.00295059 -0.0006602 0.0027119 -0.00169621 0.00227515 -0.00218374 0.00126962 0.000578945 0.00272206 -0.000705906 0.00302676 -0.00161495 0.00165558 -0.00170636 0.0011782 -0.000883653 0.000822711 0.00109695 0.00232086 0.000142197 0.00250876 -0.00127469 0.00263572 -0.00297598 0.00257478 -0.00406277 0.00134071 -0.00416942 0.00101569 -0.00286933 0.000563709 -0.00421005 7.10985e-005 -0.0032299 -0.000259002 -0.00211772 -0.000431669 -0.000969986 -0.000903966 0.000218374 -0.00168605 0.000619573 -0.00116805 0.00122899 -0.00108171 0.00204662 -0.000203139 -0.00225484 -0.000604337 -0.00229039 -0.000299629 -0.00159972 -0.00207201 -2.53923e-005 -0.00218374 0.000832868 -0.00160479 0.00254939 -0.00169621 0.00327561 -0.00128485 0.0034432 -0.000177746 0.0036311 -0.00046214 0.00385963 0.000192982 0.0028541 -0.000411356 0.00375298 -0.00138134 0.000777005 -0.00238688 -0.00334671 0.000655122 -0.00498197 0.00121883 -0.00315373 0.000370728 -0.00327053 4.06277e-005 -0.00387995 -3.55492e-005 -0.00334163 -0.000589102 -0.00245798 -0.00141181 -0.00052816 -0.00193489 0.00109695 -0.00125946 0.00251892 -0.00263064 0.00340765 -0.00111218 0.00348383 -0.000487532 0.00407293 -0.000248845 0.00294043 7.10985e-005 0.00233609 -5.07846e-006 0.0024986 0.00110203 0.00253923 0.000797319 0.00195013 -0.000680514 0.00193997 -0.00177238 0.000964908 -0.00143213 -0.00276776 -0.00144736 -0.00213803 -0.000279315 -0.00244274 -0.000319943 -0.00296582 8.12554e-005 -0.00340257 -0.000126962 -0.00267635 0.000274237 -0.00290996 0.000868417 -0.00321975 0.00082779 -0.00269666 0.000426591 -0.00213803 -0.000279315 -0.0013915 -0.00126962 -0.00108171 -0.00122899 5.07846e-006 -0.00124422 0.000157432 -0.00122391 0.00130517 -0.000457062 0.00181301 0.000391042zm0.00608908 0.0285105l0.00298614 -0.000238688 0.00325529 -0.0011325 0.00358032 -0.0012493 0.0018384 -0.00100554 0.000431669 -0.000294551 0.000492611 -0.000335179 0.000695749 -8.12554e-005 0.000385963 0.000325022 -0.000228531 0.00106648 -0.000710985 0.000700828 -0.00155401 0.0012036 -0.00260525 0.000903966 -0.00256462 0.000604337 -0.00221929 0.000335179 -0.00231578 -0.000147275 -0.00146768 -0.000655122z"/>
    <polygon id="_442953400" class="fil0" points="0.0830837,0.191067 0.0839216,0.191174 0.0847342,0.191494 0.0846275,0.192337 0.0844904,0.193383 0.0838403,0.194261 0.0830684,0.19448 0.081809,0.194317 0.0804581,0.194038 0.0788127,0.193606 0.0777411,0.192829 0.0764563,0.192022 0.0750851,0.191097 0.0739018,0.189554 0.0728048,0.188132 0.0725255,0.186171 0.0719212,0.184277 0.0713575,0.182068 0.071129,0.180544 0.0705043,0.178752 0.0707125,0.177177 0.0703062,0.174562 0.0700168,0.171855 0.0702809,0.169006 0.0700828,0.166416 0.070098,0.163857 0.0703977,0.161546 0.0705805,0.159327 0.0700015,0.157224 0.0699152,0.155396 0.0699406,0.153583 0.0681073,0.152918 0.0667615,0.151785 0.0654055,0.149896 0.0647555,0.149175 0.0634249,0.147931 0.0617236,0.147072 0.059738,0.14596 0.0578792,0.14465 0.0559647,0.14301 0.0538876,0.140927 0.0521914,0.139211 0.0507338,0.137311 0.0489615,0.135372 0.0476207,0.133386 0.0464629,0.131634 0.0451323,0.129536 0.0438728,0.127774 0.0428216,0.125179 0.0417602,0.122691 0.0405515,0.120507 0.0397085,0.118795 0.039353,0.116612 0.0389467,0.113996 0.0381494,0.111117 0.0383272,0.108897 0.0382357,0.106323 0.0379209,0.103824 0.0380783,0.101818 0.0376263,0.100371 0.0380631,0.0970088 0.0386674,0.0939922 0.0389315,0.0911381 0.039871,0.0888071 0.0406937,0.0849627 0.0430654,0.0798233 0.0449292,0.076116 0.0476512,0.0724087 0.0505409,0.0690468 0.0528109,0.0663552 0.0556803,0.063948 0.0582855,0.0619369 0.061038,0.0596262 0.0648266,0.056701 0.0692499,0.0538571 0.0735666,0.051003 0.077995,0.0489056 0.0831344,0.0462648 0.0872582,0.0448784 0.0912346,0.0437916 0.0954497,0.042522 0.100345,0.0417704 0.104677,0.0412676 0.108872,0.0409578 0.112056,0.0410492 0.115515,0.0415012 0.119176,0.041227 0.123041,0.0418364 0.127104,0.0425778 0.13073,0.0433701 0.133807,0.0443045 0.13721,0.0451729 0.141151,0.046859 0.143675,0.0479356 0.146864,0.0496318 0.149022,0.0510843 0.152024,0.053395 0.154507,0.0556396 0.157021,0.0584226 0.159616,0.0614291 0.161388,0.0642222 0.163623,0.0675029 0.165939,0.0710122 0.167396,0.0737596 0.168651,0.0772333 0.169737,0.0803667 0.170311,0.0833223 0.170921,0.0868214 0.171444,0.0901986 0.171835,0.0929206 0.172109,0.095729 0.172327,0.098964 0.172312,0.102377 0.172099,0.105663 0.171378,0.108771 0.170636,0.111985 0.169758,0.114651 0.168554,0.117379 0.16666,0.120441 0.164827,0.123087 0.163003,0.125626 0.161079,0.12815 0.157834,0.131786 0.155005,0.133878 0.15212,0.136387 0.149276,0.138581 0.146605,0.140262 0.14303,0.142359 0.140232,0.143385 0.137154,0.144909 0.133884,0.1463 0.130268,0.147859 0.127327,0.149185 0.125443,0.150541 0.123813,0.151612 0.123173,0.153238 0.121624,0.156985 0.121451,0.159956 0.120624,0.162333 0.119953,0.164441 0.119704,0.166868 0.119451,0.168834 0.119065,0.170779 0.118709,0.172993 0.118349,0.175273 0.118059,0.177497 0.1175,0.179752 0.117353,0.182393 0.116805,0.184582 0.11618,0.186827 0.115352,0.189117 0.114316,0.190976 0.11324,0.192103 0.112173,0.193159 0.111061,0.194546 0.110015,0.19547 0.108425,0.196465 0.106587,0.196821 0.104759,0.196587 0.103646,0.19644 0.10322,0.195653 0.102306,0.195536 0.101097,0.195643 0.0991672,0.195658 0.098253,0.195541 0.0972627,0.195013 0.0966178,0.194332 0.0963232,0.193561 0.0964146,0.192839 0.0969733,0.192113 0.0982581,0.191951 0.099807,0.191753 0.101229,0.191539 0.102966,0.190965 0.104845,0.19028 0.106612,0.189442 0.108684,0.18832 0.109873,0.187339 0.110553,0.185699 0.111437,0.183485 0.111747,0.1806 0.11199,0.177706 0.112209,0.175009 0.11262,0.172866 0.112711,0.170083 0.113021,0.167198 0.113402,0.164786 0.11391,0.162394 0.114154,0.160027 0.114758,0.157915 0.115022,0.156417 0.11552,0.154619 0.116368,0.152669 0.116835,0.150602 0.117648,0.148977 0.118298,0.147534 0.119146,0.146646 0.120664,0.146178 0.123077,0.145493 0.125408,0.144929 0.127591,0.143949 0.129384,0.143451 0.131233,0.142497 0.134264,0.141161 0.136753,0.139886 0.138911,0.138571 0.141323,0.13689 0.143787,0.13528 0.145899,0.13336 0.147839,0.131685 0.149622,0.130252 0.151287,0.128673 0.152826,0.127012 0.153979,0.125829 0.155442,0.123757 0.156808,0.121411 0.158377,0.118552 0.159357,0.116617 0.160256,0.114276 0.161373,0.111828 0.162054,0.109121 0.162734,0.106947 0.163334,0.104896 0.163745,0.103291 0.163984,0.100924 0.164298,0.098507 0.164354,0.0970494 0.16443,0.0949317 0.164009,0.0925499 0.163831,0.0903306 0.163389,0.0881469 0.162729,0.0855315 0.162221,0.0828043 0.162018,0.0807831 0.161881,0.078772 0.161495,0.0766594 0.160855,0.0749124 0.160043,0.0724798 0.15923,0.0700472 0.158052,0.0673658 0.157051,0.0653751 0.155721,0.0633386 0.153994,0.0613174 0.152318,0.0593723 0.15046,0.0578691 0.148702,0.0560408 0.146656,0.0544462 0.144899,0.0531563 0.143487,0.0522422 0.141974,0.0516429 0.140704,0.0512112 0.138591,0.0506069 0.13691,0.0502565 0.135575,0.0498146 0.134097,0.0494236 0.131908,0.0488751 0.130232,0.0485196 0.128866,0.048281 0.126753,0.0476715 0.124864,0.0474278 0.122538,0.046925 0.120228,0.0468234 0.118227,0.0463664 0.115885,0.0459956 0.114098,0.0459601 0.112554,0.0460921 0.110177,0.0465136 0.108207,0.046859 0.1065,0.0472348 0.10453,0.0475801 0.102813,0.0480219 0.10066,0.048738 0.0985171,0.0493931 0.0963131,0.050033 0.0942817,0.0503022 0.0927429,0.0509014 0.0907877,0.051648 0.088868,0.0521304 0.0876797,0.0525723 0.0860444,0.0534254 0.0844599,0.0538825 0.0828297,0.0546697 0.0808593,0.0555432 0.0792494,0.0566655 0.0774212,0.0579605 0.076248,0.0583363 0.0749784,0.0589051 0.0735971,0.0593215 0.0718958,0.0606318 0.0699304,0.0619725 0.0683409,0.0629628 0.0664974,0.0643848 0.064466,0.0657204 0.0635062,0.06699 0.0624143,0.0677112 0.060063,0.0689401 0.0588035,0.0699711 0.0570718,0.0715403 0.0557006,0.0728912 0.0545833,0.0743436 0.0526586,0.0758926 0.0512417,0.0775684 0.0495709,0.0792139 0.0488091,0.0809761 0.0471078,0.0833477 0.0463054,0.0854401 0.0457722,0.0874968 0.0448073,0.0903002 0.0441471,0.0923417 0.0438017,0.094495 0.0435529,0.0969225 0.0432685,0.0990808 0.0426032,0.101651 0.0426286,0.104515 0.0423899,0.107409 0.0423087,0.11006 0.0427607,0.113245 0.0433244,0.115515 0.0440506,0.118135 0.0450003,0.119989 0.0454573,0.122112 0.0460769,0.122985 0.0467015,0.124798 0.0480778,0.126972 0.0494896,0.128886 0.0509268,0.130603 0.0525012,0.132802 0.0541466,0.134945 0.0561576,0.136336 0.0579199,0.138094 0.0604134,0.140348 0.0621705,0.142172 0.0647656,0.144167 0.0670256,0.14566 0.0694937,0.147113 0.0712712,0.147743 0.073267,0.148733 0.0747804,0.149327 0.0761211,0.149769 0.0765985,0.150165 0.0768524,0.151262 0.0768067,0.152654 0.076507,0.154939 0.0762836,0.157702 0.0754507,0.16052 0.0755878,0.164598 0.075466,0.167574 0.0753492,0.170017 0.0751409,0.172119 0.0751003,0.173978 0.0753136,0.1764 0.0752628,0.178853 0.0757605,0.181646 0.0764258,0.183195 0.0774669,0.185389 0.0789346,0.18738 0.0801635,0.18867 0.0811335,0.189858 0.0819918,0.190437 "/>
   </g>
   <g>
    <polygon id="_442953304" class="fil0" points="0.052943,0.15147 0.0526433,0.151074 0.0527246,0.150449 0.0525773,0.149931 0.0517749,0.149546 0.0508862,0.149287 0.0498248,0.149292 0.0486974,0.149784 0.0473008,0.15017 0.0462089,0.150947 0.0448174,0.151831 0.0432787,0.152765 0.0415977,0.153679 0.0398863,0.154878 0.0374994,0.155772 0.0357676,0.157107 0.033853,0.158204 0.0327205,0.159261 0.0309177,0.160586 0.0286019,0.162059 0.0268701,0.162826 0.0247778,0.163689 0.0228988,0.163938 0.0208166,0.165228 0.0195876,0.166746 0.0201666,0.169138 0.021553,0.170123 0.0225992,0.170261 0.023752,0.170316 0.0256615,0.169316 0.0276776,0.168153 0.0303387,0.166183 0.0326342,0.164253 0.0350109,0.162419 0.0383475,0.160713 0.0413336,0.158961 0.0440455,0.157265 0.046732,0.155741 0.0493779,0.154568 0.0513179,0.15402 0.052491,0.153192 0.0530445,0.152369 "/>
    <polygon id="_442952992" class="fil0" points="0.0344777,0.135697 0.0325479,0.136159 0.0303743,0.137124 0.027505,0.137997 0.0248083,0.138896 0.0220101,0.139871 0.018963,0.140724 0.016439,0.141643 0.013981,0.142751 0.0115383,0.143055 0.0093139,0.143746 0.00676959,0.144843 0.00536286,0.146087 0.00456554,0.147413 0.0045503,0.148926 0.00537809,0.150099 0.00727236,0.149901 0.0092682,0.148911 0.0117566,0.147545 0.0148393,0.146427 0.0173633,0.145508 0.0201259,0.144797 0.0230867,0.143934 0.0261338,0.143081 0.0292012,0.142055 0.0319892,0.141166 0.0340054,0.140714 0.0358336,0.140328 0.0370068,0.1395 0.0377381,0.137992 0.0376466,0.136641 0.0367884,0.135727 0.0358235,0.1356 "/>
    <polygon id="_442953520" class="fil0" points="0.0270428,0.127149 0.0280026,0.125936 0.0282972,0.124372 0.0282312,0.123473 0.0272866,0.122548 0.0260322,0.121939 0.0249099,0.12233 0.0234066,0.122934 0.0207811,0.123305 0.0183586,0.123437 0.0162562,0.123879 0.013397,0.124666 0.0111574,0.125443 0.00909553,0.126246 0.00733838,0.127444 0.00710477,0.128571 0.00791225,0.129211 0.00896349,0.129348 0.0118531,0.129013 0.0151287,0.128455 0.0180438,0.127942 0.0201259,0.127678 0.0226703,0.127921 0.0246559,0.127734 0.0258291,0.127617 "/>
    <polygon id="_442953256" class="fil0" points="0.0272612,0.116571 0.027769,0.115388 0.0278452,0.114149 0.0271698,0.113168 0.0262506,0.112696 0.0257173,0.112716 0.0246305,0.112843 0.0234574,0.112955 0.021426,0.112869 0.0183383,0.112645 0.0157026,0.112391 0.013656,0.112397 0.011518,0.112386 0.00986745,0.112798 0.00845056,0.113412 0.00811538,0.114616 0.00846072,0.115378 0.00950688,0.116226 0.0116957,0.11651 0.014499,0.116876 0.0166066,0.117059 0.0192423,0.117313 0.0214006,0.117145 0.0233305,0.117394 0.0249911,0.117612 0.0262506,0.117511 "/>
    <polygon id="_442953448" class="fil0" points="0.0308466,0.0999188 0.0308974,0.0988574 0.0306638,0.0979331 0.0299528,0.097217 0.0292621,0.0970393 0.0283988,0.0968361 0.0273424,0.0960744 0.0256818,0.095145 0.0241227,0.0941395 0.0223859,0.0931136 0.0208623,0.091844 0.0194404,0.0911279 0.0178813,0.0901224 0.0163019,0.0892946 0.0147072,0.0885481 0.0133614,0.0879285 0.011716,0.0869128 0.0101214,0.0854604 0.00855213,0.0845412 0.0071454,0.0837337 0.00575898,0.0827536 0.00470266,0.0819918 0.0033721,0.0812808 0.00214311,0.0811234 0.00126962,0.0810116 0.000304708,0.0815957 -0,0.0825403 0.000152354,0.0834493 0.000883653,0.0839927 0.0020517,0.0845869 0.00211264,0.0854858 0.00208725,0.0863745 0.00378853,0.0869534 0.00573359,0.0877406 0.00787162,0.0890864 0.0094561,0.0899193 0.0110507,0.0906607 0.0125997,0.0917526 0.0143314,0.0927835 0.0157839,0.0939516 0.0175816,0.0951653 0.019613,0.0966736 0.0215733,0.0979991 0.0230715,0.0988218 0.0243462,0.0999645 0.0258291,0.100874 0.0273272,0.101691 0.0287136,0.10196 0.0297852,0.10192 0.030613,0.101046 "/>
    <polygon id="_442953328" class="fil0" points="0.012879,0.0664466 0.0116348,0.0662841 0.0104667,0.0662232 0.0102483,0.0671931 0.00961353,0.0679244 0.0097151,0.0692093 0.0117262,0.0704688 0.0145244,0.0719212 0.0169418,0.0735006 0.0199228,0.0756132 0.0227515,0.0775227 0.0254482,0.0790514 0.0275913,0.0806866 0.0301661,0.081748 0.0316896,0.0818547 0.0326748,0.0812554 0.033203,0.0799655 0.03333,0.0789853 0.0327916,0.0782794 0.0319029,0.0774415 0.0303032,0.076507 0.0279519,0.0751155 0.0253568,0.0735057 0.0235336,0.0729064 0.0216292,0.0708496 0.0189731,0.0696867 0.0161444,0.0685034 0.014758,0.0673252 "/>
    <polygon id="_442953568" class="fil0" points="0.0227261,0.0498705 0.0214159,0.049515 0.0203342,0.0494693 0.0195724,0.0504545 0.0195572,0.0512722 0.0200752,0.0521507 0.0190849,0.0521152 0.018186,0.0520898 0.0175461,0.0528211 0.0178102,0.0535829 0.0192829,0.0547712 0.0206693,0.0559494 0.0229851,0.057605 0.0263623,0.0594942 0.0288609,0.060454 0.030613,0.0615916 0.0335534,0.0633335 0.0358032,0.0648012 0.0383475,0.0661317 0.0403179,0.0662943 0.0411559,0.0654055 0.0419075,0.0645066 0.0420344,0.0635265 0.0417704,0.0627647 0.0409273,0.0622975 0.0398609,0.0621553 0.0389366,0.0615814 0.0376314,0.0605099 0.0359149,0.0591032 0.0338175,0.0578335 0.0319842,0.0565995 0.0298106,0.0552334 0.0285257,0.0539739 0.0272155,0.0528973 0.0259002,0.0519121 0.0244528,0.0511808 0.0238485,0.0502869 "/>
    <polygon id="_442952896" class="fil0" points="0.0461835,0.0246305 0.045305,0.0237012 0.0442385,0.0235641 0.0433041,0.0238028 0.0430654,0.0249505 0.0440607,0.0263521 0.044792,0.0290742 0.0455132,0.0318877 0.0462648,0.034432 0.0471738,0.0371794 0.048347,0.0406886 0.0492509,0.0427962 0.0505206,0.0448682 0.0517038,0.046925 0.0538977,0.0488396 0.0556244,0.0501549 0.057473,0.0505764 0.0584734,0.0505256 0.0593672,0.0499111 0.0597837,0.0487888 0.0597989,0.0479762 0.0592352,0.0474481 0.0580164,0.0463867 0.0565284,0.0452847 0.0550912,0.0438271 0.0540196,0.042329 0.05275,0.0402621 0.0520238,0.0381697 0.0510995,0.0362399 0.0503682,0.0348738 0.0498146,0.0321721 0.0488142,0.0301407 0.0480677,0.0282312 0.0477477,0.0271901 0.0469352,0.0258189 "/>
    <polygon id="_442952320" class="fil0" points="0.0625921,0.0146158 0.0618303,0.0135189 0.061424,0.0131938 0.0608044,0.0137474 0.060322,0.0146818 0.0601138,0.0162866 0.060002,0.0185415 0.0605353,0.021421 0.0615103,0.0243563 0.0625108,0.0271139 0.0636535,0.0294399 0.0648875,0.0317759 0.0662232,0.0340359 0.067894,0.0365192 0.069773,0.0387538 0.0705805,0.0394952 0.0720837,0.0397796 0.0732873,0.0395765 0.0739069,0.0382967 0.0740338,0.0373165 0.0732721,0.0362196 0.0721091,0.0347062 0.0707176,0.0328932 0.0696562,0.0313087 0.0684628,0.0293383 0.0672185,0.0270936 0.0667005,0.0254837 0.0656391,0.0238942 0.0651668,0.022655 0.0644203,0.0207455 0.063948,0.0195064 0.0637906,0.0179422 0.0633945,0.0168046 0.0629882,0.0157534 "/>
    <path id="_442952800" class="fil0" d="M0.0948454 0.00457062l0.000147275 -0.00115789 -0.000518003 -0.000883653 -0.000441826 -0.000782083 -6.09416e-005 -0.000914123 -0.000888731 -0.000116805 -0.000817633 0.000710985 -0.000274237 0.00141689 -0.000218374 0.00169113c0,0 -0.000208217,0.00160479 -0.00026408,0.0020517 -6.09416e-005,0.000446905 -0.000259002,0.00196029 -0.000259002,0.00196029l-0.000380885 0.00294551 -0.000568788 0.00228023 -0.000573866 0.00300645 0.000172668 0.00219897 -5.07846e-005 0.00316896 -7.10985e-005 0.00261541 -0.000213295 0.00233101 0.000248845 0.00157432 0.000695749 0.00163019 0.00128993 0.000533239 0.00162003 2.53923e-005 0.000782083 -0.000441826 0.000751613 -0.000898888 0.00039612 -0.00167081 -0.000614494 -0.00152862 -0.0003301 -0.0023107 -5.58631e-005 -0.00236656 0.000416434 -0.00393073 0.000218374 -0.00305723 0.000101569 -0.00215835 6.602e-005 -0.00262049 0.00013204 -0.00170636 -0.000218374 -0.00111726 0.000238688 -0.00114773 -0.000457062 -0.00133056z"/>
    <path id="_442952752" class="fil0" d="M0.124661 1.52354e-005l-0.00085826 0.000340257 -0.000370728 0.000771926 -0.000939516 0.000964908 -0.000350414 0.00131024 -0.00108171 0.00203646 -0.0012036 0.00301661c0,0 -0.000898888,0.00206186 -0.0013915,0.00235641 -0.000492611,0.000299629 -0.000964908,0.00114265 -0.00103093,0.00168097 -7.10985e-005,0.000533239 -0.00128993,0.00364126 -0.00128993,0.00364126l-0.000391042 0.00230562 -0.00188411 0.00338226 -0.00114265 0.00320451 -0.000167589 0.00197044 -0.000243766 0.00260017 0.000289472 0.00193997 0.00183333 0.000512925 0.00107156 0.000137119 0.00103601 -0.000319943 0.000650043 -0.000822711 0.000137119 -0.00107156 0.00019806 -0.00151338 -0.000147275 -0.0016505 -4.06277e-005 -0.00109187 0.000279315 -0.00213803 0.000650043 -0.00154893 0.00108679 -0.00348383 0.00167589 -0.00313849 0.000690671 -0.00253923 0.000878574 -0.00187903 0.000340257 -0.00195013 0.00112234 -0.000944594 0.000614494 -0.0026408 0.000238688 -0.00186887 0.000731299 -0.00144736 0.000162511 -0.0012493 0.000116805 -0.000888731 -0.00126962 1.52354e-005z"/>
    <polygon id="_442952440" class="fil0" points="0.146519,0.00937992 0.146971,0.00798842 0.147077,0.00718603 0.146625,0.00649535 0.145823,0.00638871 0.145142,0.00675436 0.144233,0.00745518 0.143436,0.00943578 0.141836,0.0113097 0.141369,0.0127926 0.140089,0.0136204 0.138429,0.0159464 0.137372,0.0178 0.136626,0.0200599 0.135468,0.0219948 0.134457,0.0242243 0.133376,0.0269819 0.132715,0.0292519 0.131842,0.0311361 0.131608,0.0329186 0.131426,0.0343456 0.132319,0.0350973 0.133523,0.0356153 0.134498,0.0357422 0.135356,0.035402 0.135788,0.0341882 0.136428,0.0327256 0.136738,0.0310446 0.138002,0.0275862 0.13884,0.0246102 0.140369,0.0219085 0.141862,0.0187497 0.143456,0.0162358 0.144198,0.0147022 0.144564,0.0132954 0.145168,0.0121071 0.145721,0.0113605 0.146092,0.00986745 "/>
    <polygon id="_442952680" class="fil0" points="0.171667,0.0191763 0.171063,0.0182825 0.170017,0.0179625 0.168757,0.0186176 0.16733,0.020517 0.165304,0.0215225 0.161815,0.0246966 0.159372,0.0274593 0.156574,0.0301762 0.154888,0.0320451 0.153969,0.0335534 0.152542,0.0354578 0.151018,0.0374334 0.150165,0.0391346 0.149165,0.0405465 0.148982,0.0419735 0.149134,0.0428978 0.149967,0.0434615 0.150998,0.0438678 0.152242,0.0440303 0.152923,0.0436646 0.15374,0.0429536 0.154786,0.0411863 0.155269,0.0395257 0.158479,0.0350465 0.160383,0.0322127 0.162364,0.0302067 0.163928,0.0285968 0.165187,0.0265807 0.16633,0.0254634 0.168275,0.0237215 0.169915,0.0222132 0.170713,0.0209537 0.171241,0.02039 "/>
    <polygon id="_442952536" class="fil0" points="0.192377,0.0339241 0.192702,0.0327866 0.192464,0.031847 0.191798,0.0314001 0.190818,0.0312732 0.18995,0.0317048 0.18804,0.0324514 0.186375,0.0341374 0.184419,0.0359708 0.182682,0.0374689 0.180484,0.0390839 0.178919,0.0406937 0.176949,0.0426134 0.175349,0.0444924 0.173313,0.0462242 0.171591,0.0476309 0.170352,0.0488294 0.169798,0.0502971 0.170347,0.0516378 0.171545,0.0521558 0.172668,0.0525723 0.174298,0.0518816 0.17575,0.0504342 0.178452,0.0470723 0.181814,0.0441522 0.184333,0.041491 0.18674,0.0389924 0.188081,0.0377127 0.189792,0.0363973 0.190539,0.0354985 0.191458,0.0347113 "/>
    <path id="_442952464" class="fil0" d="M0.210203 0.0763953l0.00159972 0.000208217 0.00102585 -0.000228531 0.000431669 -0.00121375 -0.000507846 -0.000969986 -0.00101061 -0.000584023 -0.00142197 -0.000187903 -0.00195013 -0.000345336 -0.00157432 -0.000385963 -0.00234117 -0.000121883 -0.002524 -5.58631e-005 -0.00241735 0.000502768 -0.00347367 0.000274237 -0.00301661 0.000243766 -0.00239703 0.000325022 -0.002524 -6.09416e-005 -0.00173683 0.000137119 -0.00173683 0.000137119c0,0 -0.000558631,0.000111726 -0.00100554,5.07846e-005 -0.000441826,-5.58631e-005 -0.00254939,0.000126962 -0.00254939,0.000126962l-0.00143721 0.000624651 -0.000319943 0.00104616 9.64908e-005 0.00137119 0.000619573 0.000807476 0.000721142 0.000731299 0.000853182 0.000380885 0.000980143 0.000126962 0.00124422 0.000162511 0.003042 -0.000421512 0.00265096 -0.00092428 0.00246305 -0.00013204 0.00232594 0.000208217c0,0 0.000802397,-0.000619573 0.00134579,-0.000639886 0.000548474,-2.03139e-005 0.00327561,-0.000116805 0.00327561,-0.000116805l0.00293027 -0.000253923 0.00174699 -0.000228531 0.00117313 -0.0006602 0.00242243 0.00013204 0.00178254 0.000228531 0.00121375 -0.000294551z"/>
    <path id="_442951600" class="fil0" d="M0.199355 0.09094l0.00168097 0.000309786 0.00133056 0.000172668 0.00089381 0.000116805 0.000832868 -0.000162511 0.000294551 -0.000868417 0.000157432 -0.000523082 -0.000695749 -0.000903966 -0.000639886 -0.000629729 -0.0012036 -0.000518003 -0.00148799 -0.000375806 -0.00158956 -0.000299629 -0.00106648 -0.000137119 -0.00196029 -0.000253923 -0.00195521 -0.000253923 -0.00160479 -0.000208217 -0.00116805 -6.09416e-005c0,0 -0.00100046,5.07846e-005 -0.00182317,0.000126962 -0.00082779,7.10985e-005 -0.00237164,0.000142197 -0.00237164,0.000142197l-0.00268651 0.000467219 -0.00172668 5.07846e-005 -0.000837946 0.000888731 -0.000137119 0.00106648 0.000248845 0.00157432 0.00100554 0.00131024 0.00120867 0.000426591 0.00187903 0.000157432 0.00313341 -0.000411356 0.0013915 -0.000274237 0.00166066 -0.000233609 0.00162511 2.53923e-005 0.00150323 -0.000436748 0.00130517 -0.000284394 0.000797319 0.000101569 0.00200599 -0.000101569z"/>
    <path id="_442951576" class="fil0" d="M0.181829 0.109517l-0.00145752 8.12554e-005 -0.000929359 0.000878574 -0.000137119 0.00106648 0.00026408 0.000761769 0.000873496 0.000929359 0.00177238 0.00168097 0.0013915 0.000451983 0.00104108 0.000314865 0.00128993 0.000533239 0.00155401 0.000563709 0.00329084 0.00115281 0.00335179 0.00134071 0.00315373 0.00149815 0.00359555 0.00228023 0.00264588 0.0012493 0.00164034 0.000573866 0.00168097 0.000309786 0.000314865 -0.00104616 -0.000325022 -0.000949673 -0.00112234 -0.00114265 -0.00171652 -0.00140166 -0.00173176 -0.00131024 -0.00175207 -0.00113758 -0.00185364 -0.00105632 -0.00166066 -0.00112234 -0.00144228 -0.000731299 -0.00163527 -0.000665279 -0.00147783 -0.00046214c0,0 -0.00115789,-0.000147275 -0.0015794,-0.000385963 -0.000421512,-0.000238688 -0.00151846,-0.000832868 -0.00151846,-0.000832868l-0.00141181 -0.00100046 -0.00120867 -0.000426591 -0.00141181 -0.000274237 -0.000863339 -0.00102077 -0.000980143 -0.000126962 -0.00164542 -0.000573866z"/>
    <polygon id="_442951936" class="fil0" points="0.180499,0.135087 0.179381,0.133944 0.178224,0.133797 0.177233,0.133757 0.176598,0.134493 0.176157,0.135793 0.176573,0.136753 0.177269,0.137662 0.178066,0.13849 0.17931,0.139373 0.180763,0.140018 0.184394,0.142029 0.186827,0.142801 0.187857,0.143929 0.189457,0.144863 0.191585,0.14659 0.193276,0.148169 0.194139,0.14919 0.195094,0.149495 0.195841,0.149317 0.196262,0.148195 0.195968,0.146976 0.195572,0.145838 0.194911,0.144665 0.193525,0.143487 0.192215,0.14241 0.191011,0.141257 0.189955,0.140303 0.18865,0.139231 0.18706,0.138205 0.186283,0.137926 0.184638,0.137347 0.183505,0.137022 0.182378,0.135966 "/>
    <path id="_442951912" class="fil0" d="M0.165685 0.159271l-0.000548474 -0.00134071 -0.000736377 -0.00127469 -0.00121883 -0.00178762 -0.000782083 -0.000919202 -0.00156417 -0.00119852 -0.00109695 -0.0013204 -0.00207201 -0.00144736 -0.00124422 -0.000888731 -0.00122899 -0.000975065 -0.0012493 -0.000162511 -0.00104616 0.000406277 -0.000690671 0.000457062 -0.000208217 0.000878574 -0.000111726 0.00089381 0.000172668 0.000746534 0.0014626 0.00127469 0.00118836 0.000609416 0.00137626 0.000543396 0.00259509 0.00160479c0,0 0.000964908,0.000939516 0.00137626,0.00126454 0.000406277,0.000325022 0.00147275,0.00119344 0.00147275,0.00119344l0.00111726 0.00113758 0.000853182 0.0011071 0.000518003 0.000883653 0.000944594 0.00039612 0.000848103 -0.000253923 0.000137119 -0.00106648 -0.00026408 -0.000761769z"/>
    <polygon id="_442952008" class="fil0" points="0.138261,0.15466 0.137733,0.154553 0.137007,0.154568 0.136382,0.154634 0.135798,0.154954 0.135311,0.155655 0.135432,0.156356 0.135458,0.157016 0.136169,0.15794 0.137083,0.158966 0.137901,0.159941 0.138657,0.160799 0.139531,0.161566 0.140612,0.16214 0.141811,0.162404 0.14241,0.161937 0.142674,0.161322 0.142715,0.160749 0.142299,0.160038 0.141867,0.15919 0.141354,0.158397 0.140663,0.15758 0.140247,0.156909 0.139907,0.156467 0.139663,0.155822 0.13949,0.155472 0.139135,0.154883 "/>
   </g>
  </g>
 </g>
</svg>
