<?xml version="1.0" encoding="UTF-8"?>
<!DOCTYPE svg PUBLIC "-//W3C//DTD SVG 1.1//EN" "http://www.w3.org/Graphics/SVG/1.1/DTD/svg11.dtd">
<!-- Creator: CorelDRAW -->
<svg xmlns="http://www.w3.org/2000/svg" xml:space="preserve" width="5.4683mm" height="5.1463mm" style="shape-rendering:geometricPrecision; text-rendering:geometricPrecision; image-rendering:optimizeQuality; fill-rule:evenodd; clip-rule:evenodd"
viewBox="0 0 0.335424 0.315673"
 xmlns:xlink="http://www.w3.org/1999/xlink">
 <defs>
  <style type="text/css">
   <![CDATA[
    .fil0 {fill:#FEFEFE}
   ]]>
  </style>
 </defs>
 <g id="Layer_x0020_1">
  <metadata id="CorelCorpID_0Corel-Layer"/>
  <g id="_442953832">
   <g>
    <polygon id="_443696336" class="fil0" points="0.150061,0.241954 0.149571,0.239004 0.148835,0.235563 0.147853,0.232373 0.146387,0.229668 0.145645,0.225736 0.143688,0.221804 0.142216,0.217382 0.139763,0.212959 0.13829,0.20977 0.136328,0.206083 0.134119,0.201906 0.131672,0.197729 0.129464,0.193306 0.127255,0.189129 0.125538,0.184215 0.124311,0.180529 0.124556,0.176842 0.125538,0.172665 0.126765,0.168488 0.129709,0.165544 0.133629,0.163084 0.137554,0.162839 0.140744,0.162839 0.144173,0.164065 0.14589,0.165047 0.147853,0.163575 0.15227,0.162102 0.156195,0.161612 0.157913,0.163084 0.15914,0.164311 0.161833,0.161612 0.164531,0.159397 0.168457,0.158416 0.171886,0.157925 0.175812,0.158416 0.179002,0.16014 0.183418,0.159152 0.187338,0.159152 0.191018,0.16014 0.193717,0.161612 0.196416,0.164562 0.198379,0.168488 0.199109,0.173892 0.198133,0.180038 0.196907,0.186669 0.195189,0.194042 0.192981,0.200924 0.190773,0.20731 0.187583,0.21345 0.185136,0.218118 0.182682,0.221314 0.183173,0.225491 0.180719,0.22746 0.177529,0.230159 0.17434,0.230159 0.171395,0.228687 0.17042,0.225982 0.171641,0.221314 0.17434,0.212959 0.179247,0.204605 0.181946,0.198219 0.185136,0.191092 0.188074,0.184461 0.189055,0.178811 0.190527,0.172911 0.190282,0.168488 0.186847,0.168733 0.184154,0.170212 0.183173,0.172665 0.181455,0.177333 0.178756,0.179793 0.176057,0.180529 0.173113,0.178566 0.171395,0.17488 0.171395,0.171193 0.171641,0.16677 0.168703,0.167997 0.165758,0.170457 0.164777,0.17242 0.164777,0.175861 0.164777,0.177824 0.164286,0.179793 0.162323,0.180774 0.160606,0.179547 0.158398,0.177333 0.156195,0.173401 0.156195,0.170702 0.153251,0.169966 0.150798,0.170457 0.149325,0.171929 0.150061,0.176352 0.149325,0.179302 0.148589,0.182001 0.144915,0.183234 0.14148,0.183234 0.139272,0.180774 0.1378,0.178811 0.138045,0.176842 0.137064,0.174634 0.136818,0.172665 0.13829,0.170212 0.136082,0.170212 0.133629,0.172174 0.132647,0.17488 0.131426,0.178069 0.131917,0.181756 0.134119,0.186178 0.138536,0.193306 0.141971,0.200182 0.14467,0.205592 0.148344,0.212223 0.151043,0.217136 0.153006,0.22205 0.155459,0.226963 0.156686,0.232619 0.158158,0.237041 0.157668,0.23974 0.15595,0.2422 0.153251,0.243672 0.151779,0.243672 "/>
    <path id="_443696528" class="fil0" d="M0.1454 0.251781l0.00318966 -0.00171751 0.00637933 -0.001969 0.0063732 -0.00147215 0.00564325 -0.00122679 0.00612784 -0.000245359 0.00662469 -0.000496852 0.00661855 0.000496852 0.00466182 0.00171751 0.0041711 0.00196287 0.00196287 0.00074221 0.000484584 0.00466795 -0.000484584 0.00442259 -0.00220823 0.00393188 -0.00318966 0.00245359 0.00147215 0.00417723 -0.000490718 0.00491331 -0.00220823 0.00295044 -0.00245359 0.00220823 -0.00122679 0.00147829 0.00220823 0.00343502 0.000736076 0.00393188 -0.00147215 0.00442259 -0.00416497 0.00466795 -0.00613397 0.00295044 -0.00637933 0.00245359 -0.00441032 0.00147829 -0.00662469 0.000981435 -0.0051464 0.000245359 -0.00343502 -0.000245359 -0.00171751 -0.00122679 0 -0.00270508 0.000736076 -0.00196287 0.00171751 -0.001969 0.00318966 -0.000736076 -0.00368038 -0.000490718 -0.00368038 0 -0.00294431 -0.00295044 -0.000484584 -0.00343502 0.000981435 -0.00270508 0.00367425 -0.0031958 0.00490718 -0.00269895 0.00539176 -0.000987569 0.00564325 -0.00147215 0.00612784 -0.000490718 0.00441646 -0.00122679 0.00564325 -0.00295044 0.000736076 -0.00393188 -0.00515254 0.00172365 -0.00759999 0.00294431 -0.00490718 0.00123293 -0.00515254 0.000736076 -0.00612784 0.000736076 -0.00539789 -0.000245359 -0.0041711 -0.00172365 -0.00122066 -0.00294431 0.00147215 -0.00221436 0.00342889 -0.00466795 0.00515254 -0.00245359 0.00539176 -0.00147829 0.00637933 -0.00122679 0.00466182 -0.000490718 0.00367425 -0.000490718 0.0041711 0.00122679 0.0041711 0.000736076 0.00293817 -0.00147215 0.00269895 -0.0031958 0.00122679 -0.00245359 -0.00465568 -0.00172365 -0.00343502 0 -0.00392574 0 -0.00466182 0.000736076 -0.00539176 0.000496852 -0.0041711 0.000981435 -0.00441032 0.00196287 -0.00490718 0.001969 -0.0041711 0.00122679 -0.00342889 0 -0.00245359 -0.00171751 -0.00196287 -0.00172365 -0.000245359 -0.00196287 0 -0.001969 0.00196287 -0.000981435 0.00293817 0.000245359zm0.0154515 0.0437352l0.00466182 -0.000981435 0.00490718 -0.00245972 0.00539176 -0.00269895 0.00269895 -0.001969 0.000619531 -0.000552057 0.000705407 -0.000625665 0.00108571 -0.000276029 0.000668603 0.000435512 -0.000141081 0.00172365 -0.000975301 0.0012636 -0.00220823 0.00220823 -0.00392574 0.001969 -0.00391961 0.00147215 -0.00343502 0.000981435 -0.00368038 0.000245359 -0.00245359 -0.000736076z"/>
    <polygon id="_443696240" class="fil0" points="0.153343,0.310281 0.154693,0.310281 0.156036,0.310618 0.156036,0.311968 0.156036,0.313654 0.155196,0.31517 0.154018,0.315673 0.152,0.315673 0.14981,0.315507 0.147123,0.31517 0.145271,0.314157 0.143081,0.313145 0.140726,0.311968 0.138542,0.309778 0.136524,0.307754 0.135683,0.304723 0.134334,0.301859 0.132991,0.298485 0.132316,0.29613 0.130973,0.293431 0.130973,0.290904 0.129795,0.286861 0.128789,0.282647 0.128617,0.278096 0.127777,0.274054 0.127274,0.270011 0.127274,0.2663 0.127102,0.262761 0.125759,0.259559 0.125256,0.256694 0.124918,0.25383 0.121888,0.253155 0.119533,0.25164 0.117012,0.248941 0.115834,0.247935 0.113478,0.246248 0.11062,0.245236 0.107259,0.243887 0.104063,0.242206 0.100695,0.24001 0.0969965,0.237145 0.0939663,0.23479 0.0912796,0.232091 0.0880838,0.229398 0.0855566,0.226534 0.0833729,0.224006 0.0808457,0.22097 0.0784964,0.218443 0.0763066,0.214566 0.0741168,0.210861 0.0717675,0.207659 0.0700868,0.205132 0.0690746,0.201759 0.0678969,0.197716 0.0660445,0.19333 0.0658788,0.189797 0.0652041,0.185749 0.0641981,0.181872 0.0640264,0.178676 0.0630204,0.17648 0.0630204,0.171089 0.0633578,0.166206 0.063186,0.161655 0.0641981,0.157778 0.0647011,0.15154 0.0673939,0.142946 0.0695776,0.136714 0.0731108,0.13031 0.0769813,0.124409 0.0800054,0.119692 0.0840415,0.115313 0.0877465,0.111608 0.0916109,0.107394 0.0969965,0.101996 0.103388,0.0966039 0.109614,0.0912121 0.116171,0.0870042 0.123741,0.0817781 0.129967,0.0787418 0.136021,0.0762146 0.142412,0.07335 0.149982,0.0711602 0.156711,0.0694734 0.163268,0.06813 0.168316,0.0676209 0.173867,0.0676209 0.179584,0.0664432 0.18581,0.0666088 0.192367,0.0669462 0.198256,0.0674553 0.203298,0.0682956 0.208849,0.0689704 0.215413,0.0708228 0.219615,0.0720067 0.225,0.0740248 0.228699,0.0758772 0.233913,0.0789135 0.238286,0.0819498 0.242832,0.0858204 0.247536,0.0900344 0.250904,0.0940767 0.255106,0.0987999 0.259479,0.103854 0.262338,0.107897 0.26503,0.113123 0.267386,0.11784 0.268901,0.122391 0.270582,0.127783 0.272097,0.133009 0.273275,0.137217 0.274281,0.141597 0.275293,0.146657 0.275961,0.152049 0.276299,0.157275 0.275796,0.162329 0.275293,0.167549 0.274452,0.171935 0.273103,0.17648 0.270747,0.181707 0.268398,0.186258 0.266043,0.190638 0.263515,0.195017 0.259142,0.201421 0.255106,0.205298 0.25107,0.209849 0.247033,0.213892 0.243163,0.217093 0.237949,0.221136 0.233747,0.223332 0.229202,0.226362 0.224325,0.229226 0.21894,0.232428 0.214572,0.235127 0.21188,0.237655 0.209524,0.239673 0.208849,0.242372 0.207169,0.248604 0.207506,0.253327 0.20669,0.257246 0.206065,0.260712 0.206169,0.264595 0.206169,0.267742 0.20596,0.270888 0.205856,0.274458 0.205752,0.278133 0.205752,0.281703 0.205329,0.285371 0.205648,0.289572 0.205224,0.293142 0.204703,0.296811 0.203863,0.300589 0.202605,0.303742 0.201139,0.305736 0.199673,0.307625 0.198207,0.310035 0.196741,0.311716 0.194435,0.313605 0.191607,0.31455 0.188675,0.31455 0.18689,0.31455 0.186056,0.313397 0.18459,0.313397 0.1827,0.313814 0.179664,0.314237 0.178198,0.314237 0.176523,0.313605 0.17537,0.312661 0.174745,0.311508 0.174745,0.310354 0.175475,0.309091 0.177468,0.308569 0.179873,0.307938 0.182075,0.307306 0.184694,0.306048 0.187522,0.304582 0.190141,0.302902 0.193177,0.3007 0.194852,0.298915 0.195588,0.296185 0.196532,0.292511 0.196422,0.287892 0.196213,0.283273 0.196005,0.278973 0.196213,0.275507 0.195796,0.271103 0.195692,0.266484 0.195796,0.262601 0.196109,0.258719 0.196005,0.25494 0.196532,0.251474 0.196637,0.249064 0.197054,0.246126 0.197998,0.242868 0.198311,0.239513 0.199256,0.236784 0.199986,0.234367 0.201139,0.232796 0.203445,0.231748 0.207114,0.230171 0.210671,0.228809 0.213922,0.22681 0.216646,0.225657 0.219369,0.223767 0.223872,0.221038 0.22754,0.218523 0.23068,0.216002 0.234134,0.212855 0.237698,0.209812 0.24063,0.206347 0.243353,0.203304 0.245868,0.200679 0.248174,0.197851 0.250266,0.194907 0.251836,0.192809 0.253726,0.189245 0.2554,0.185252 0.257283,0.180425 0.258436,0.177174 0.259381,0.173291 0.260639,0.169199 0.26116,0.164789 0.261792,0.161219 0.262313,0.157864 0.262626,0.155239 0.262522,0.15146 0.262522,0.147577 0.262313,0.145271 0.262,0.141909 0.260847,0.138241 0.260117,0.134776 0.258964,0.131414 0.257394,0.127427 0.256032,0.123231 0.255296,0.120079 0.25467,0.116932 0.253621,0.113681 0.25226,0.111056 0.250475,0.107381 0.248696,0.103707 0.246285,0.09972 0.244298,0.0967818 0.241783,0.0938436 0.238642,0.0910097 0.235606,0.0882862 0.232355,0.0862866 0.229214,0.0837716 0.22565,0.0816738 0.222614,0.0799931 0.220203,0.0788399 0.217688,0.0782081 0.215597,0.077791 0.212137,0.0772635 0.209414,0.0770549 0.207218,0.0766317 0.204807,0.0763189 0.201243,0.0759018 0.19852,0.0756871 0.196318,0.0755828 0.192864,0.0750614 0.189828,0.0750614 0.186056,0.0747424 0.182387,0.0750614 0.179143,0.0747424 0.17537,0.0746382 0.172542,0.0749571 0.170132,0.0754785 0.166464,0.0766317 0.163427,0.0775763 0.160808,0.078521 0.157772,0.0794656 0.155153,0.0805145 0.151908,0.0820909 0.148657,0.0835631 0.145308,0.0850291 0.142161,0.0858695 0.139861,0.0871269 0.136922,0.0887034 0.13399,0.0898565 0.132212,0.0908012 0.129801,0.0924819 0.12739,0.0935308 0.124986,0.0951072 0.122048,0.0968861 0.119747,0.09899 0.117128,0.101401 0.115349,0.102241 0.11346,0.103394 0.111368,0.104339 0.108958,0.106756 0.10613,0.109271 0.103824,0.11116 0.101204,0.113785 0.0982723,0.1163 0.0970149,0.118508 0.0954446,0.11987 0.091985,0.122287 0.0902062,0.124176 0.0877955,0.12701 0.0859124,0.129421 0.0844464,0.131942 0.0817229,0.134776 0.0798336,0.137714 0.0775273,0.140652 0.076693,0.14359 0.0744909,0.147681 0.0736567,0.151147 0.0732335,0.154502 0.072295,0.159121 0.0716632,0.162483 0.0715589,0.165942 0.0716632,0.169825 0.0716632,0.173291 0.0711418,0.177486 0.0717675,0.182001 0.071976,0.18662 0.0723993,0.190816 0.073761,0.195747 0.0751227,0.199213 0.0767973,0.2032 0.0786804,0.20593 0.0798336,0.209181 0.0809868,0.210444 0.0823486,0.213168 0.0849678,0.216321 0.087587,0.219044 0.0902062,0.221461 0.0931382,0.224608 0.0961745,0.22765 0.0996341,0.229435 0.102775,0.231852 0.107179,0.234894 0.110319,0.237415 0.114822,0.240035 0.118698,0.241924 0.122888,0.243709 0.12582,0.244341 0.129175,0.245494 0.13169,0.246126 0.133886,0.246543 0.134727,0.24707 0.135352,0.248751 0.135561,0.250953 0.135561,0.254627 0.135775,0.259031 0.135039,0.26365 0.136088,0.270054 0.136505,0.274771 0.136818,0.278654 0.136922,0.282015 0.137241,0.284954 0.138076,0.288732 0.138499,0.292615 0.139861,0.296921 0.141222,0.299227 0.143314,0.302478 0.146038,0.305312 0.14824,0.307097 0.150019,0.308778 0.151485,0.309514 "/>
   </g>
   <g>
    <polygon id="_443696504" class="fil0" points="0.0976651,0.253977 0.0971069,0.253419 0.0971069,0.252413 0.0967695,0.251628 0.0954323,0.25118 0.0939786,0.250959 0.0922979,0.25118 0.0906172,0.252186 0.0884948,0.253082 0.0869306,0.254535 0.0849187,0.256216 0.0826798,0.258001 0.0802201,0.259792 0.0777542,0.262031 0.0741781,0.263932 0.0717184,0.266392 0.0689213,0.268515 0.0673571,0.270416 0.0647809,0.272882 0.0614256,0.275673 0.0588554,0.277243 0.055721,0.279034 0.0528135,0.279813 0.0497956,0.282273 0.0481639,0.284923 0.0495625,0.288579 0.0519547,0.289842 0.0536354,0.289842 0.0554634,0.289707 0.0582727,0.287732 0.0612232,0.285487 0.065014,0.281825 0.0682404,0.278311 0.071608,0.274931 0.0765274,0.271557 0.0808764,0.268177 0.0848083,0.264945 0.0887463,0.261988 0.092672,0.259602 0.0956225,0.258332 0.0973093,0.256786 0.0980086,0.255382 "/>
    <polygon id="_443696312" class="fil0" points="0.06529,0.23287 0.0623457,0.233999 0.0591131,0.235968 0.0547641,0.237937 0.0506911,0.239906 0.0464771,0.242016 0.0418398,0.243985 0.038049,0.245954 0.0343993,0.248205 0.0306085,0.249186 0.027241,0.250738 0.023444,0.252989 0.0214812,0.255241 0.0204997,0.257486 0.0207819,0.259878 0.0223277,0.261571 0.025272,0.260866 0.0282224,0.258897 0.0318721,0.256222 0.0365094,0.25383 0.0403002,0.251861 0.0445081,0.250174 0.0490043,0.248205 0.0536354,0.246236 0.0582727,0.243985 0.0624868,0.242016 0.0655721,0.240887 0.0683815,0.239906 0.0700683,0.238354 0.0709087,0.235827 0.0704916,0.233717 0.0689458,0.232447 0.0674001,0.232447 "/>
    <polygon id="_442925872" class="fil0" points="0.0518137,0.220915 0.0530772,0.218805 0.0532183,0.216272 0.0529362,0.214867 0.0512493,0.213597 0.0491454,0.212892 0.0474585,0.213738 0.0452135,0.215002 0.0411405,0.21613 0.0373497,0.216836 0.0341171,0.217958 0.0297682,0.219786 0.0263945,0.221473 0.0233091,0.223166 0.0207819,0.225411 0.0206408,0.227245 0.0220455,0.228086 0.0237323,0.228086 0.0282224,0.226963 0.0332768,0.225411 0.037773,0.224006 0.0409995,0.223166 0.0450724,0.223025 0.0481639,0.22232 0.0499857,0.221896 "/>
    <polygon id="_442953496" class="fil0" points="0.0499857,0.204175 0.0505501,0.2022 0.050409,0.200231 0.0491454,0.198827 0.0475996,0.198262 0.0467593,0.198403 0.0450724,0.198827 0.0432445,0.19925 0.040018,0.199532 0.0351047,0.199808 0.0308907,0.199949 0.0276581,0.200372 0.0242905,0.200796 0.0217633,0.201783 0.0196594,0.203047 0.0193772,0.205016 0.0200765,0.206144 0.0219044,0.207267 0.025413,0.207267 0.0299092,0.207267 0.0332768,0.207126 0.0374908,0.206985 0.0408584,0.206279 0.0439499,0.206279 0.0466182,0.206279 0.048581,0.205856 "/>
    <polygon id="_442922512" class="fil0" points="0.0522308,0.177161 0.0520958,0.175475 0.0515315,0.174064 0.0502679,0.173082 0.0491454,0.172941 0.0477407,0.1728 0.0459128,0.171813 0.0431034,0.17069 0.0404351,0.169426 0.0374908,0.168157 0.0348226,0.16647 0.0324364,0.165623 0.0297682,0.16436 0.0270999,0.163372 0.0244316,0.162532 0.0221866,0.161826 0.0193772,0.160563 0.0165679,0.158594 0.0138996,0.157465 0.0115135,0.156484 0.00912735,0.155214 0.00729943,0.154233 0.00505439,0.153386 0.00308539,0.153386 0.00168071,0.153386 0.000276029,0.154515 -0,0.15606 0.00041711,0.157465 0.00168071,0.158171 0.00364971,0.15887 0.00393188,0.160281 0.00407296,0.161685 0.00687618,0.16225 0.0101088,0.16309 0.0137585,0.164783 0.0164268,0.165764 0.0190951,0.166611 0.0217633,0.168016 0.0247138,0.169285 0.027241,0.170831 0.0303264,0.172377 0.0338411,0.174346 0.0372087,0.176033 0.0397359,0.17702 0.0419809,0.178566 0.0445081,0.179695 0.0470414,0.180676 0.0492865,0.180817 0.0509672,0.180535 0.0520958,0.178989 "/>
    <polygon id="_442922920" class="fil0" points="0.0170218,0.128028 0.0150221,0.128028 0.0131635,0.128169 0.0130224,0.129746 0.0121637,0.131034 0.012593,0.133034 0.0160219,0.13461 0.0207328,0.136328 0.0248733,0.138327 0.0300135,0.141045 0.0348655,0.14348 0.0394353,0.145338 0.0431525,0.147485 0.047434,0.148626 0.049863,0.148485 0.0512923,0.147338 0.0518627,0.145197 0.0518627,0.143621 0.0508629,0.142621 0.0492926,0.141474 0.0465752,0.140327 0.042582,0.138615 0.0381533,0.13661 0.0351538,0.136039 0.0317249,0.133181 0.0273023,0.131893 0.0225914,0.130605 0.0201624,0.129028 "/>
    <polygon id="_442922728" class="fil0" points="0.0291609,0.0998488 0.027014,0.0995605 0.0253026,0.0997077 0.0243028,0.101419 0.0244439,0.102707 0.0254437,0.103995 0.0238734,0.104143 0.0224503,0.104284 0.0215916,0.105572 0.022162,0.106713 0.0247322,0.108289 0.0271612,0.109859 0.0311544,0.112006 0.0368652,0.114294 0.0410117,0.115294 0.0440051,0.116729 0.0490043,0.118876 0.0528564,0.120735 0.0571441,0.122305 0.0602847,0.122164 0.0614256,0.120588 0.0624254,0.119017 0.0624254,0.117441 0.061855,0.1163 0.0604257,0.115723 0.0587144,0.115723 0.0571441,0.115012 0.0548561,0.113583 0.0518627,0.111718 0.0482928,0.110148 0.0451522,0.108577 0.041435,0.10686 0.0391531,0.105142 0.0368652,0.103707 0.0345833,0.102425 0.0321543,0.101566 0.0310134,0.100278 "/>
    <polygon id="_442922968" class="fil0" points="0.0609962,0.055218 0.0594259,0.0539299 0.0577145,0.0539299 0.0562853,0.0545003 0.0561442,0.0563589 0.0580028,0.0583647 0.0597142,0.0625113 0.0614256,0.0668051 0.0631431,0.0706695 0.0651366,0.074816 0.0677068,0.0801097 0.0695654,0.0832564 0.0719944,0.086262 0.0742763,0.0892615 0.0781345,0.0918378 0.0811279,0.0935553 0.0841274,0.0938375 0.0856977,0.0935553 0.0869858,0.0924083 0.0874091,0.0905497 0.087268,0.0892615 0.0862682,0.08855 0.0841274,0.0871147 0.0815573,0.0856854 0.0789871,0.0836858 0.0769875,0.0815389 0.0745645,0.0785332 0.0729943,0.0753865 0.0711357,0.0725281 0.0697064,0.0705223 0.0682772,0.0663757 0.0662837,0.0633701 0.0647073,0.0605116 0.0639957,0.0589352 0.0624254,0.0569355 "/>
    <polygon id="_442922872" class="fil0" points="0.0848451,0.0360493 0.0834159,0.0344729 0.0827043,0.0340435 0.0818456,0.0350495 0.0812751,0.0366198 0.0812751,0.0391961 0.0815573,0.0427722 0.0829865,0.047207 0.0851272,0.0516419 0.087268,0.0557885 0.089556,0.0592235 0.0919789,0.0626585 0.094549,0.0659463 0.0976958,0.0695224 0.101119,0.0726692 0.102548,0.073669 0.104977,0.0738162 0.106829,0.0732396 0.107547,0.0710927 0.107547,0.0695224 0.106118,0.0679521 0.103977,0.0658052 0.101407,0.063229 0.0994071,0.060941 0.0971192,0.0580764 0.0946962,0.0547886 0.0935553,0.0523596 0.0915556,0.0500655 0.0905558,0.0482069 0.0889855,0.0453484 0.0879857,0.0434899 0.0874091,0.0410547 0.0865565,0.0393433 0.0856977,0.0377669 "/>
    <path id="_442922392" class="fil0" d="M0.133671 0.0135929l0 -0.00185859 -0.000999837 -0.00128813 -0.000852622 -0.00114705 -0.000288297 -0.00142922 -0.00142922 0 -0.00114092 0.00128813 -0.000141081 0.00228797 0 0.00271735c0,0 0,0.00257627 0,0.00328781 0,0.000717675 0,0.00314673 0,0.00314673l0 0.00472316 -0.000429378 0.00371719 -0.000288297 0.00486424 0.000717675 0.00343502 0.000570459 0.00500532 0.000429378 0.00414656 0.000141081 0.00372332 0.000717675 0.00242905 0.00142308 0.00243519 0.00214689 0.000570459 0.002564 -0.000288297 0.00114705 -0.000858756 0.000999837 -0.0015703 0.000282163 -0.00271735 -0.001282 -0.00228797 -0.000999837 -0.0035761 -0.000570459 -0.00372332 -0.000147215 -0.00629345 -0.000282163 -0.00486424 -0.000288297 -0.00342889 -0.000429378 -0.0041527 -0.000141081 -0.00271735 -0.000570459 -0.00171751 0.000141081 -0.00185859 -0.000999837 -0.00199967z"/>
    <path id="_442922440" class="fil0" d="M0.179793 0.000288297l-0.00128813 0.000717675 -0.000423244 0.001282 -0.00128813 0.00171751 -0.000288297 0.00214689 -0.001282 0.00343502 -0.001282 0.00500532c0,0 -0.000999837,0.00343502 -0.00171751,0.00400548 -0.000711541,0.000570459 -0.001282,0.00199967 -0.001282,0.00285843 0,0.000858756 -0.00128813,0.00601129 -0.00128813,0.00601129l-0.000141081 0.00371719 -0.00228184 0.00572299 -0.00114705 0.00529362 0.000147215 0.00314673 0.000141081 0.00414656 0.000858756 0.00300565 0.00299338 0.000429378 0.00171751 0 0.0015703 -0.000717675 0.000852622 -0.00142922 0 -0.00171751 0 -0.00242905 -0.000570459 -0.00257627 -0.000282163 -0.00171751 0 -0.00343502 0.000711541 -0.00257013 0.000999837 -0.00572299 0.00199967 -0.00529362 0.000570459 -0.00414656 0.000999837 -0.00314673 0.000141081 -0.00314673 0.0015703 -0.00171751 0.000429378 -0.00429378 0 -0.00300565 0.000858756 -0.00242905 0 -0.00200581 0 -0.00142922 -0.00199967 0.000288297z"/>
    <polygon id="_442922296" class="fil0" points="0.216204,0.0105872 0.216633,0.00829926 0.216633,0.00701113 0.215775,0.00601129 0.214487,0.00601129 0.213487,0.00672283 0.212205,0.00801097 0.211346,0.0113049 0.209205,0.0145927 0.208776,0.0170279 0.206923,0.0185982 0.204783,0.0226037 0.203494,0.0257504 0.202783,0.0294676 0.201354,0.0327615 0.200213,0.0364787 0.199066,0.0410547 0.198495,0.0447719 0.197495,0.0479247 0.197495,0.0507831 0.197495,0.0530711 0.199066,0.054071 0.201065,0.0546475 0.202636,0.0546475 0.203924,0.0539299 0.204353,0.0519302 0.205065,0.049495 0.205206,0.0467777 0.206494,0.0410547 0.207206,0.0361904 0.209064,0.0316145 0.210776,0.0263209 0.212775,0.0220332 0.213634,0.019457 0.213916,0.017169 0.214634,0.0151632 0.215345,0.013875 0.215634,0.011446 "/>
    <polygon id="_442922152" class="fil0" points="0.257891,0.0208862 0.25675,0.019598 0.255038,0.0193159 0.25318,0.0205979 0.251327,0.0238918 0.248328,0.0258915 0.243476,0.0316145 0.240188,0.0364787 0.236336,0.041343 0.234048,0.0446308 0.232907,0.047207 0.231048,0.0504948 0.229055,0.0539299 0.228055,0.0567883 0.226767,0.0592235 0.226767,0.0615115 0.227196,0.0629407 0.228625,0.0636583 0.230337,0.0640877 0.232336,0.0640877 0.233336,0.0633701 0.234477,0.0620819 0.235765,0.0590824 0.236189,0.0563589 0.240329,0.0486363 0.242758,0.043772 0.245475,0.0401959 0.247616,0.0373375 0.249186,0.0339025 0.250757,0.0319028 0.253468,0.0287561 0.25575,0.0260387 0.25675,0.0238918 0.257467,0.022892 "/>
    <polygon id="_442921552" class="fil0" points="0.29359,0.0399137 0.293872,0.038049 0.293302,0.0366198 0.292161,0.0360493 0.290591,0.0360493 0.289309,0.0369081 0.28645,0.0384784 0.284168,0.041484 0.281451,0.0447719 0.279028,0.0474953 0.275881,0.0504948 0.273741,0.0533594 0.271029,0.0567883 0.268889,0.0600822 0.26603,0.063229 0.263607,0.0658052 0.26189,0.0679521 0.261319,0.0703812 0.26246,0.0723809 0.26446,0.0729574 0.266319,0.0733868 0.268748,0.0719576 0.270741,0.0693813 0.274317,0.0635173 0.279028,0.0582237 0.282451,0.0535005 0.285733,0.0490656 0.287591,0.0467777 0.29002,0.0443486 0.29102,0.0427722 0.292302,0.041343 "/>
    <path id="_442922224" class="fil0" d="M0.330425 0.103284l0.00257013 0 0.0015703 -0.000576593 0.000429378 -0.00199967 -0.000999837 -0.00142922 -0.00171138 -0.000717675 -0.00228184 0 -0.00314059 -0.000141081 -0.00257627 -0.000288297 -0.00371105 0.000288297 -0.00399935 0.000429378 -0.00371105 0.00128813 -0.00542243 0.00114092 -0.00471702 0.000999837 -0.00370492 0.00100597 -0.00399935 0.000423244 -0.00271735 0.000576593 -0.00271122 0.000570459c0,0 -0.000858756,0.000288297 -0.0015703,0.000288297 -0.000711541,0 -0.00399935,0.000711541 -0.00399935,0.000711541l-0.00214076 0.00128813 -0.000282163 0.00171751 0.000423244 0.00214689 0.00114705 0.00114092 0.001282 0.00100597 0.00142922 0.000429378 0.0015703 0 0.00199967 0 0.00471089 -0.00128813 0.00399935 -0.00200581 0.00385213 -0.000711541 0.00371105 -0.000147215c0,0 0.00114092,-0.00114092 0.00199967,-0.001282 0.000858756,-0.000147215 0.00514027,-0.000858756 0.00514027,-0.000858756l0.00456981 -0.00100597 0.00271122 -0.000711541 0.00171751 -0.00128813 0.00385213 -0.000288297 0.00285843 0 0.00185246 -0.000711541z"/>
    <path id="_442921816" class="fil0" d="M0.316292 0.128458l0.00271122 0.000141081 0.00214076 0 0.00142922 0 0.00128813 -0.000429378 0.000282163 -0.00142922 0.000141081 -0.000858756 -0.001282 -0.00128813 -0.00114092 -0.000858756 -0.00199967 -0.000570459 -0.00242905 -0.000282163 -0.00257013 -0.000147215 -0.00171138 0 -0.00314059 0 -0.00314059 0 -0.00257013 0 -0.00185859 0.000147215c0,0 -0.0015703,0.000282163 -0.00285843,0.000570459 -0.001282,0.000282163 -0.00371105,0.000711541 -0.00371105,0.000711541l-0.00414043 0.00128813 -0.00271122 0.000429378 -0.00114092 0.00157643 0 0.00171751 0.000711541 0.00242905 0.00185859 0.00185859 0.00199967 0.000429378 0.00299338 -0.000141081 0.0048581 -0.00128813 0.00214076 -0.000717675 0.00257013 -0.000711541 0.00257013 -0.000288297 0.00228797 -0.000999837 0.00199354 -0.000717675 0.00128813 0 0.00314059 -0.000570459z"/>
    <path id="_442921528" class="fil0" d="M0.292449 0.16136l-0.00228797 0.000429378 -0.001282 0.0015703 0 0.00171751 0.000570459 0.00114705 0.0015703 0.00128813 0.00314059 0.00228797 0.00228184 0.000423244 0.00171751 0.000288297 0.00214076 0.000570459 0.00257013 0.000576593 0.00542243 0.00114092 0.00556965 0.00142922 0.00528135 0.00171751 0.0061401 0.00286456 0.00442873 0.00142922 0.00271122 0.000570459 0.00271122 0.000141081 0.000288297 -0.00171138 -0.000711541 -0.00142922 -0.00199967 -0.00157643 -0.00299951 -0.00185859 -0.00299951 -0.00171751 -0.00299951 -0.00142922 -0.00314059 -0.00128813 -0.0028523 -0.00142922 -0.00242905 -0.000858756 -0.00271122 -0.000717675 -0.00242905 -0.000429378c0,0 -0.00185859,6.13397e-006 -0.00257013,-0.000282163 -0.000711541,-0.000288297 -0.00257013,-0.00100597 -0.00257013,-0.00100597l-0.00242905 -0.00128813 -0.00199967 -0.000423244 -0.00228184 -0.000147215 -0.0015703 -0.00142922 -0.0015703 0 -0.00271122 -0.000570459z"/>
    <polygon id="_442921504" class="fil0" points="0.29559,0.201986 0.29359,0.200409 0.291732,0.200409 0.290161,0.20055 0.289309,0.201838 0.288879,0.203985 0.289732,0.205414 0.29102,0.206703 0.292449,0.20785 0.29459,0.208991 0.297019,0.209708 0.303153,0.212143 0.307152,0.212855 0.309011,0.214431 0.311722,0.215572 0.315433,0.21786 0.318433,0.220007 0.320003,0.221436 0.321573,0.221725 0.322714,0.221295 0.323144,0.219437 0.322432,0.217578 0.321573,0.215861 0.320291,0.214143 0.317862,0.212567 0.315574,0.211137 0.313434,0.209567 0.311581,0.208279 0.309293,0.20685 0.306582,0.205562 0.3053,0.205273 0.302583,0.204703 0.30073,0.204415 0.298731,0.202985 "/>
    <path id="_442921936" class="fil0" d="M0.27717 0.243181l-0.00114092 -0.00200581 -0.00142922 -0.00185859 -0.00228184 -0.00257013 -0.00142922 -0.00128813 -0.00271122 -0.00157643 -0.00199967 -0.00185859 -0.00356997 -0.00185859 -0.00214076 -0.00114705 -0.00214076 -0.00128813 -0.00199967 0 -0.00157643 0.000858756 -0.000999837 0.000858756 -0.000141081 0.00142922 0 0.00143535 0.000429378 0.00114092 0.00257013 0.00171751 0.00199967 0.000717675 0.00228184 0.000570459 0.00442873 0.00199967c0,0 0.00171138,0.00128813 0.00242905,0.00171751 0.000711541,0.000429378 0.00257013,0.00157643 0.00257013,0.00157643l0.00199967 0.0015703 0.00156416 0.00157643 0.000999837 0.00128813 0.00157643 0.000429378 0.001282 -0.000576593 0 -0.00171138 -0.000570459 -0.00114705z"/>
    <polygon id="_442921648" class="fil0" points="0.232944,0.241525 0.232091,0.24147 0.23095,0.241642 0.229975,0.241869 0.229122,0.242494 0.22849,0.243697 0.228834,0.244782 0.229006,0.245813 0.230318,0.247132 0.231975,0.248561 0.233459,0.249929 0.234827,0.251131 0.236366,0.252161 0.238194,0.252848 0.240133,0.25302 0.240991,0.252161 0.24128,0.251131 0.241218,0.250217 0.240421,0.249186 0.239568,0.247929 0.238593,0.246788 0.237342,0.245641 0.236538,0.244672 0.235913,0.24404 0.235397,0.243071 0.235054,0.242556 0.234373,0.241697 "/>
   </g>
  </g>
 </g>
</svg>
