<?xml version="1.0" encoding="UTF-8"?>
<!DOCTYPE svg PUBLIC "-//W3C//DTD SVG 1.1//EN" "http://www.w3.org/Graphics/SVG/1.1/DTD/svg11.dtd">
<!-- Creator: CorelDRAW -->
<svg xmlns="http://www.w3.org/2000/svg" xml:space="preserve" width="2.8888mm" height="2.7323mm" style="shape-rendering:geometricPrecision; text-rendering:geometricPrecision; image-rendering:optimizeQuality; fill-rule:evenodd; clip-rule:evenodd"
viewBox="0 0 0.119516 0.113041"
 xmlns:xlink="http://www.w3.org/1999/xlink">
 <defs>
  <style type="text/css">
   <![CDATA[
    .fil0 {fill:#FEFEFE}
   ]]>
  </style>
 </defs>
 <g id="Layer_x0020_1">
  <metadata id="CorelCorpID_0Corel-Layer"/>
  <g id="_442944904">
   <g>
    <polygon id="_442947400" class="fil0" points="0.0578177,0.087072 0.0574743,0.0860625 0.0570192,0.0848917 0.0564897,0.0838243 0.0558153,0.0829555 0.0553271,0.081615 0.0544128,0.0803407 0.0536391,0.0788679 0.0525179,0.077453 0.0518187,0.0764104 0.0509127,0.0752271 0.0498949,0.0738825 0.0487903,0.0725504 0.0477601,0.0711189 0.0467382,0.0697743 0.0458529,0.0681442 0.0452074,0.0669155 0.0450833,0.0655998 0.0451868,0.0640732 0.0453771,0.06253 0.0462459,0.0613219 0.0474871,0.0602297 0.0488565,0.0599194 0.0499777,0.0597374 0.0512602,0.0599691 0.0519222,0.0602173 0.0525262,0.0595843 0.053999,0.0588106 0.0553519,0.0584135 0.0560428,0.0588313 0.0565434,0.0591954 0.0573378,0.0580866 0.0581611,0.0571557 0.0594891,0.0565807 0.0606683,0.0562125 0.062079,0.0561587 0.0633037,0.0565807 0.0648013,0.0559808 0.0661832,0.0557532 0.067536,0.0558898 0.0685703,0.0562538 0.0696915,0.0571351 0.07061,0.0584093 0.0711809,0.0602711 0.0711892,0.0624886 0.0711396,0.0649006 0.0709575,0.067594 0.0705769,0.0701466 0.0701673,0.0725214 0.0693978,0.0748713 0.068802,0.0766586 0.0681235,0.0779246 0.0685373,0.0793685 0.0677843,0.0802001 0.0668162,0.0813378 0.065695,0.0815199 0.0645697,0.0811723 0.064069,0.0802746 0.0642345,0.0785576 0.064702,0.0754588 0.0659515,0.0722359 0.0665307,0.0698281 0.0672464,0.0671347 0.0679001,0.0646276 0.0679208,0.0625796 0.0680987,0.06042 0.0677595,0.0588727 0.0665638,0.0591582 0.0656991,0.0598325 0.0654923,0.0607551 0.0651571,0.0624969 0.0643462,0.0635188 0.0634402,0.0639367 0.06229,0.0634112 0.061475,0.0622114 0.0612599,0.0609123 0.0610944,0.0593402 0.0601263,0.0599442 0.0592326,0.0609785 0.0590009,0.0617274 0.0591954,0.0629396 0.0593112,0.0636305 0.0592492,0.0643545 0.0586162,0.0648137 0.0579418,0.0644786 0.0570358,0.063825 0.0560304,0.0625672 0.0558773,0.0616157 0.0547975,0.0615247 0.0539618,0.0618391 0.0535274,0.0624431 0.0540404,0.0639615 0.0539494,0.0650413 0.053846,0.0660342 0.0526214,0.0666796 0.0514133,0.0668782 0.0504948,0.0661377 0.0498618,0.0655336 0.0498329,0.0648262 0.0493612,0.0641021 0.0491626,0.0634236 0.0495391,0.0624721 0.0487613,0.0626003 0.0480125,0.0634361 0.0478222,0.0644414 0.0475739,0.0656371 0.0479587,0.0669113 0.0489889,0.0683387 0.050954,0.0705976 0.0525593,0.0728234 0.0538253,0.0745735 0.0555009,0.0766959 0.0567338,0.0782721 0.0577101,0.0798939 0.0588561,0.0814826 0.0596133,0.0834023 0.0603869,0.0848751 0.0603704,0.0858557 0.059907,0.0868196 0.0590382,0.0874981 0.058521,0.0875809 "/>
    <path id="_442946800" class="fil0" d="M0.056742 0.0908038l0.00102603 -0.00079021 0.00213067 -0.00105913 0.00216377 -0.000885366 0.00191553 -0.000757112 0.00214722 -0.000438546 0.00230443 -0.000558525 0.00235822 -0.000206861 0.00174177 0.000339252 0.00158456 0.000450957 0.000732289 0.00014894 0.000442683 0.00161765 8.27445e-005 0.00158456 -0.000554388 0.00151009 -0.000980522 0.00105085 0.000757112 0.00138597 0.000111705 0.00176246 -0.000608172 0.00116256 -0.000736426 0.000922601 -0.000347527 0.000587486 0.000976385 0.00108809 0.000484055 0.00134046 -0.000260645 0.00164248 -0.00119979 0.00188657 -0.00199414 0.00139011 -0.00210171 0.00123289 -0.00147285 0.000773661 -0.00227547 0.000728151 -0.00179969 0.000384762 -0.00122462 0.000111705 -0.000674367 -0.000335115 -0.000157215 -0.000951561 0.000144803 -0.000736426 0.00049233 -0.00079021 0.00107982 -0.000442683 -0.00132391 3.7235e-005 -0.00129495 0.000210998 -0.00120807 -0.000868817 -0.000368213 -0.00118325 0.000190312 -0.00100948 0.00111291 -0.00133632 0.00157215 -0.00123703 0.00184106 -0.000653681 0.00190312 -0.000843994 0.00213067 -0.000529565 0.00148526 -0.000686779 0.00182038 -0.00136115 3.30978e-005 -0.00142734 -0.00171695 0.000901915 -0.00250716 0.00147699 -0.00165903 0.00071574 -0.00177073 0.000554388 -0.00211826 0.000612309 -0.00191553 0.00022341 -0.00156801 -0.000364076 -0.000604035 -0.00096811 0.000393036 -0.00086468 0.00093915 -0.00184106 0.00167558 -0.00116256 0.00181624 -0.000831582 0.00217618 -0.000798484 0.00161352 -0.000442683 0.00126599 -0.000384762 0.00153905 0.00019445 0.00151422 2.06861e-005 0.000951561 -0.000690916 0.000765386 -0.0012784 0.000289606 -0.00093915 -0.00174177 -0.000335115 -0.00120807 0.00019445 -0.00138183 0.000227547 -0.00160111 0.000529565 -0.00187003 0.000484055 -0.00141493 0.000583349 -0.00143975 0.000947424 -0.00161765 0.000976385 -0.00139838 0.00067023 -0.00120807 0.000198587 -0.000963973 -0.000463369 -0.00079021 -0.00049233 -0.000198587 -0.000678505 -0.000115842 -0.000695054 0.000637132 -0.000459232 0.00105085 -8.27445e-005zm0.00796002 0.0145217l0.00158869 -0.000616446 0.00158456 -0.00114601 0.00174591 -0.00126599 0.000835719 -0.000848131 0.000190312 -0.000227547 0.000210998 -0.000260645 0.000368213 -0.000161352 0.000260645 0.000115842 4.96467e-005 0.000616446 -0.000273057 0.000496467 -0.000649544 0.000910189 -0.00127013 0.000918464 -0.00129909 0.0007447 -0.00115429 0.000541976 -0.0012784 0.00029788 -0.000910189 -0.000115842z"/>
    <polygon id="_442946368" class="fil0" points="0.0629065,0.11096 0.0633823,0.110882 0.0638746,0.110923 0.0639532,0.111399 0.0640525,0.111991 0.0638415,0.112574 0.0634567,0.112822 0.0627451,0.112938 0.0619632,0.113004 0.0609992,0.113041 0.0602876,0.112789 0.0594602,0.112561 0.0585624,0.11228 0.0576646,0.111635 0.0568372,0.111035 0.0563655,0.110017 0.0557243,0.109086 0.0550582,0.107973 0.0546858,0.107183 0.054057,0.10631 0.0539122,0.105421 0.0532626,0.104064 0.0526627,0.102636 0.0523442,0.101043 0.0518146,0.0996657 0.051405,0.0982715 0.0511899,0.0969641 0.0509251,0.0957271 0.0502673,0.0946762 0.0499239,0.0936957 0.0496425,0.0927069 0.0485379,0.0926449 0.0476194,0.0922435 0.0465769,0.0914409 0.0461011,0.0911513 0.0451743,0.0906921 0.0441111,0.0905018 0.0428451,0.0902204 0.0416246,0.0898109 0.0403131,0.0892316 0.0388444,0.0884373 0.0376405,0.0877795 0.03654,0.0869851 0.0352574,0.0862197 0.0342024,0.0853551 0.0332881,0.0845897 0.0322248,0.0836671 0.0312485,0.08291 0.0302555,0.0816729 0.0292709,0.0804897 0.0282572,0.0794968 0.0275167,0.0787024 0.0269664,0.0775771 0.026321,0.0762201 0.025415,0.0747803 0.0251543,0.0735433 0.0246827,0.0721573 0.0241035,0.07085 0.0238594,0.0697329 0.0233795,0.0690172 0.0230692,0.0671182 0.0229078,0.0653764 0.0225851,0.0637836 0.0227175,0.0623604 0.0225355,0.0601345 0.0229906,0.056953 0.0234001,0.0546279 0.0242772,0.0521704 0.0252991,0.049866 0.0260935,0.0480332 0.0272643,0.0462542 0.0283565,0.0447358 0.0294777,0.0430271 0.0310623,0.0408179 0.0330026,0.0385507 0.0348851,0.0362917 0.0369537,0.03443 0.0393202,0.0321545 0.0413391,0.0307272 0.043325,0.029486 0.0454143,0.0281083 0.0479546,0.0269044 0.05023,0.0259197 0.0524641,0.0250674 0.05421,0.0245999 0.056167,0.0242814 0.0581114,0.0235367 0.0603166,0.0232346 0.0626458,0.0229781 0.0647476,0.0228168 0.0665762,0.0228251 0.0685703,0.0227423 0.0709906,0.0230154 0.0725379,0.0231891 0.0745528,0.0235946 0.0759594,0.0240331 0.0779743,0.0248027 0.0796912,0.0256177 0.0815116,0.0267223 0.0834147,0.0279345 0.0848338,0.0291674 0.086588,0.0305865 0.0884166,0.0321173 0.0896578,0.033375 0.0909072,0.035063 0.0920077,0.0365896 0.0928021,0.0381038 0.0937081,0.0399077 0.0945397,0.0416618 0.0951975,0.0430768 0.0958057,0.044562 0.0964511,0.0462873 0.0970014,0.048149 0.0974192,0.0499694 0.0975351,0.0517774 0.097655,0.0536474 0.0976137,0.0552402 0.0973985,0.0569199 0.096869,0.0588975 0.0963022,0.0606352 0.0957271,0.0623149 0.09509,0.0640029 0.093915,0.0665141 0.0927193,0.0681111 0.0915568,0.0699439 0.0903694,0.0716029 0.0891903,0.0729558 0.087585,0.074681 0.086228,0.0756946 0.0848048,0.0770227 0.0832492,0.0783135 0.0815364,0.0797533 0.0801546,0.0809531 0.079352,0.0819998 0.0786362,0.0828479 0.0785535,0.0838367 0.0783218,0.0861287 0.0787107,0.0877712 0.0786528,0.0892027 0.0786279,0.0904563 0.0788886,0.0918215 0.0790706,0.0929303 0.0791782,0.0940515 0.0793478,0.0953134 0.0795216,0.0966125 0.0797284,0.0978702 0.0797905,0.0991899 0.0801422,0.10065 0.0802001,0.101933 0.080229,0.103257 0.0801504,0.104635 0.0798898,0.105818 0.0794843,0.106604 0.0790789,0.107353 0.0787024,0.108288 0.0782804,0.108966 0.0775771,0.109765 0.0766338,0.110261 0.0756036,0.110427 0.0749748,0.11053 0.0746107,0.110174 0.0740977,0.110257 0.0734564,0.110514 0.0724097,0.110836 0.0718925,0.110919 0.0712678,0.110795 0.0708044,0.11053 0.070519,0.110158 0.0704528,0.109752 0.070639,0.109264 0.0713092,0.108966 0.0721201,0.108606 0.0728606,0.108259 0.0737088,0.107663 0.0746231,0.10698 0.0754464,0.10624 0.0763897,0.105288 0.0768779,0.104564 0.0769813,0.103559 0.0771013,0.10221 0.0767993,0.100588 0.07646,0.0989748 0.0761373,0.097473 0.0760132,0.0962401 0.0756078,0.0947093 0.0753057,0.0930875 0.0751196,0.091714 0.0750079,0.090328 0.0747514,0.0890041 0.0747389,0.0877547 0.0746355,0.0868982 0.0746148,0.0858391 0.0747596,0.0846352 0.0746769,0.0834354 0.0748507,0.0824176 0.0749706,0.0815281 0.0752851,0.0809075 0.076038,0.0804028 0.0772378,0.0796374 0.0784169,0.0789506 0.0794471,0.0780611 0.0803366,0.0774985 0.0811889,0.0766752 0.0826204,0.0754547 0.0837664,0.0743583 0.0847262,0.0732868 0.0857647,0.0719794 0.0868445,0.070701 0.087676,0.069315 0.0884621,0.0680863 0.0891985,0.0670148 0.089844,0.0658853 0.0904149,0.0647269 0.0908493,0.0638994 0.0913085,0.0625341 0.0916685,0.0610323 0.0920532,0.0592202 0.0922725,0.058008 0.0923801,0.0565848 0.0925869,0.0550706 0.0925207,0.0534902 0.0925331,0.0521952 0.0925249,0.050983 0.0924876,0.0500397 0.0922311,0.0487158 0.0920077,0.0473464 0.0918009,0.0465438 0.0914947,0.0453812 0.0908783,0.0441525 0.0904232,0.0429733 0.0898233,0.0418563 0.0890372,0.0405407 0.0883173,0.0391423 0.0878788,0.0380749 0.0874733,0.0370033 0.0869189,0.0359152 0.0862859,0.0350712 0.0854502,0.0338797 0.0846104,0.0326882 0.0835305,0.0314222 0.0826617,0.0304996 0.0816067,0.0296101 0.0803366,0.0287909 0.0791079,0.0280049 0.0778501,0.0274877 0.0765966,0.0267844 0.075223,0.0262465 0.0740563,0.0258328 0.0731378,0.0255639 0.0722152,0.0254853 0.071454,0.0254605 0.0702087,0.0254729 0.0692364,0.0255556 0.0684338,0.0255349 0.0675691,0.0255639 0.0662907,0.0256218 0.0653185,0.0257046 0.0645366,0.0257915 0.0632871,0.025808 0.0622197,0.0259818 0.060871,0.0260893 0.0595967,0.026412 0.0584341,0.0264865 0.057102,0.0266644 0.0561214,0.0269416 0.0553023,0.0272643 0.0540777,0.0278808 0.053064,0.0283896 0.0521952,0.0288737 0.0511775,0.0293784 0.0503169,0.0298997 0.0492619,0.0306444 0.0482028,0.0313477 0.0471064,0.0320593 0.0460473,0.0325351 0.0453067,0.0331102 0.0443635,0.0338342 0.0433995,0.0344093 0.0428244,0.0348437 0.0420714,0.035576 0.0412854,0.0360849 0.0405282,0.0367758 0.0395974,0.0375743 0.0389065,0.0384472 0.0381204,0.0394484 0.0375412,0.0398456 0.0369454,0.0403628 0.0362586,0.0408179 0.0355512,0.0418066 0.0346989,0.0428534 0.0339956,0.0436518 0.033226,0.0447275 0.0323365,0.0457867 0.032018,0.0466348 0.0315463,0.0472057 0.0304665,0.0482566 0.0299452,0.049022 0.0292626,0.0501597 0.0287372,0.0511195 0.0283648,0.0520918 0.0275663,0.0532461 0.027074,0.0543879 0.0264286,0.0555588 0.0263045,0.0566427 0.0257625,0.0582107 0.0256673,0.0594767 0.0257128,0.0606848 0.0256467,0.0623686 0.0256177,0.063585 0.0257832,0.0648137 0.0260438,0.0661749 0.0262424,0.0673954 0.0263003,0.0689055 0.0267802,0.0704569 0.0271195,0.0720746 0.0275084,0.0735267 0.0282738,0.0751858 0.0289523,0.0763276 0.0297715,0.0776391 0.0305948,0.0784914 0.0311864,0.0795712 0.0316663,0.0799477 0.0323034,0.0808331 0.0334081,0.0817888 0.0344879,0.0825997 0.035547,0.0832989 0.0367634,0.0842422 0.0380087,0.0851358 0.0393284,0.0855661 0.0405738,0.0862363 0.0423031,0.0870555 0.0435526,0.0877629 0.0452902,0.088429 0.0467672,0.0888676 0.0483435,0.0892565 0.049415,0.0893103 0.0506603,0.0895254 0.0515829,0.0895999 0.0523814,0.0896205 0.0527082,0.0897571 0.0530268,0.0903156 0.0532254,0.0910768 0.0534405,0.0923718 0.0537674,0.093915 0.0537756,0.0955823 0.0545121,0.0977791 0.0549299,0.0994175 0.055265,0.100766 0.0554967,0.101945 0.0557739,0.102963 0.0562869,0.104246 0.0566593,0.10559 0.0573874,0.107026 0.0579997,0.107762 0.0589265,0.108788 0.0600477,0.109628 0.0609248,0.110129 0.0616488,0.110621 0.0622114,0.110795 "/>
   </g>
   <g>
    <polygon id="_442946560" class="fil0" points="0.0400483,0.0943246 0.0398208,0.0941632 0.0397629,0.0938074 0.0395974,0.0935509 0.0391009,0.0934682 0.0385755,0.0934764 0.0379963,0.0936502 0.0374626,0.0941012 0.0367675,0.0945397 0.0363,0.0951437 0.0356877,0.0958471 0.0350009,0.0966083 0.0342355,0.097382 0.0334991,0.0983087 0.0323448,0.0991858 0.0316208,0.100195 0.0307603,0.101105 0.0303176,0.101867 0.0295522,0.10288 0.0285303,0.104059 0.0277153,0.104759 0.0267141,0.10557 0.0257335,0.106012 0.0248109,0.107055 0.0243889,0.108081 0.0250923,0.109289 0.0260066,0.109595 0.0266023,0.1095 0.0272353,0.109347 0.0281124,0.10849 0.0290226,0.107526 0.030148,0.10602 0.031083,0.104593 0.0320759,0.103211 0.0336149,0.101738 0.0349513,0.100299 0.0361511,0.0989334 0.0373674,0.0976633 0.0386127,0.0965959 0.0395808,0.0959795 0.0400856,0.0953382 0.0402511,0.0948003 "/>
    <polygon id="_442946080" class="fil0" points="0.0274257,0.0887559 0.0264534,0.0893227 0.0254274,0.0901998 0.0240083,0.091143 0.0226885,0.0920739 0.0213233,0.0930586 0.0198049,0.0940184 0.0185844,0.0949327 0.017426,0.0959339 0.0161476,0.0965007 0.0150471,0.0972413 0.0138432,0.0982508 0.0132805,0.0991568 0.0130612,0.100009 0.0133012,0.100832 0.0139424,0.101341 0.0149395,0.100923 0.0158663,0.100059 0.0169957,0.0989045 0.0184934,0.0977957 0.0197139,0.0968855 0.0210998,0.0960457 0.0225727,0.0950941 0.0240911,0.0941343 0.0255929,0.0930751 0.0269664,0.092136 0.0279883,0.091565 0.0289192,0.0910562 0.0294239,0.0904108 0.029577,0.0894716 0.0293081,0.0887517 0.0286916,0.0883959 0.0281455,0.0884828 "/>
    <polygon id="_442946752" class="fil0" points="0.0219893,0.0853178 0.022312,0.0845028 0.0222169,0.0836009 0.0220349,0.083121 0.0213688,0.0827734 0.0205868,0.0826452 0.0200448,0.0830382 0.019325,0.0836174 0.0179556,0.0842463 0.0166606,0.0847138 0.0155849,0.0852971 0.0141576,0.0861908 0.0130654,0.086981 0.0120766,0.0877505 0.0113153,0.0886897 0.0113691,0.0893433 0.0119152,0.0895585 0.0125068,0.0894633 0.0140252,0.0888055 0.0157173,0.0879698 0.0172191,0.0872168 0.0183114,0.0867328 0.0197346,0.0864473 0.0207854,0.0860212 0.0214019,0.0857688 "/>
    <polygon id="_442946488" class="fil0" points="0.0203841,0.0795257 0.0204668,0.0787976 0.0203055,0.0781108 0.0197759,0.0776888 0.0192009,0.0775812 0.0189113,0.0776764 0.0183445,0.0779246 0.0177239,0.078177 0.0166027,0.0784625 0.0148857,0.0788431 0.0134087,0.0791368 0.0122958,0.0794719 0.0111333,0.0798153 0.0103017,0.0803077 0.00963146,0.0808745 0.00964387,0.0815861 0.0099583,0.0819419 0.0106658,0.0822315 0.0119028,0.0820287 0.0134873,0.0817722 0.0146665,0.0815281 0.0161393,0.0812344 0.0172895,0.0807917 0.0183775,0.0806138 0.0193167,0.0804607 0.0199869,0.0802001 "/>
    <polygon id="_442946440" class="fil0" points="0.0196187,0.0698777 0.0194739,0.0692902 0.0191926,0.0688269 0.018692,0.0685538 0.0182865,0.0685703 0.0177859,0.0685993 0.0170867,0.0683593 0.0160317,0.0681235 0.0150181,0.0678298 0.0139052,0.0675567 0.0128668,0.067114 0.0119773,0.0669527 0.0109636,0.066659 0.00997071,0.0664686 0.00898191,0.0663238 0.00815033,0.0662039 0.00708706,0.0659225 0.00598243,0.0653888 0.00497708,0.0651447 0.0040793,0.0649379 0.00316498,0.0646276 0.00246579,0.0643876 0.00162593,0.064218 0.000935013,0.0643297 0.000438546,0.0644124 8.27445e-006,0.0648882 -0,0.0654509 0.000227547,0.0659225 0.00071574,0.0660963 0.00144803,0.0662328 0.00162593,0.0667127 0.00175832,0.0672009 0.00278021,0.067234 0.0039676,0.0673457 0.00534943,0.0677305 0.0063465,0.0679249 0.0073353,0.0680697 0.00835719,0.068409 0.00947011,0.0686862 0.0104465,0.0690875 0.0116256,0.0694557 0.0129743,0.0699439 0.014261,0.0703452 0.0152084,0.0705479 0.0160897,0.0709617 0.0170454,0.071214 0.0179928,0.0714168 0.0187913,0.0713382 0.0193663,0.0711396 0.0196766,0.0705314 "/>
    <polygon id="_442945504" class="fil0" points="0.00438546,0.0545948 0.00367799,0.0547106 0.00303259,0.0548679 0.00307396,0.0554305 0.00284641,0.0559311 0.00311119,0.0566138 0.00441028,0.0569696 0.0061686,0.0573047 0.00774488,0.0577722 0.00971006,0.0584341 0.0115594,0.0590092 0.0132764,0.0594023 0.0147078,0.0599442 0.0162841,0.0601015 0.0171322,0.0599111 0.0175708,0.0594271 0.0176453,0.0586369 0.0175542,0.0580825 0.0171447,0.0577846 0.0165282,0.0574743 0.0155063,0.0572261 0.0139962,0.0568537 0.0123248,0.0564028 0.0112326,0.0563738 0.00986314,0.0555629 0.00822894,0.0553643 0.0064913,0.0551823 0.00554802,0.0547644 "/>
    <polygon id="_442945360" class="fil0" points="0.00703742,0.0439663 0.00626376,0.0439911 0.00567213,0.04414 0.00541563,0.044802 0.00553974,0.0452447 0.00596588,0.0456419 0.0054239,0.0457825 0.00492743,0.0459149 0.00469989,0.0464197 0.00496881,0.0467879 0.00596174,0.0471974 0.00690916,0.0476112 0.00843994,0.0481366 0.010583,0.0486124 0.0121014,0.0487282 0.0132391,0.0490592 0.0151257,0.0495267 0.0165903,0.0499611 0.0181914,0.0502673 0.0192877,0.0500356 0.0196022,0.049415 0.0198628,0.0488027 0.0197718,0.0482524 0.0195029,0.0478801 0.0189692,0.0477601 0.0183651,0.0478594 0.0177694,0.0476981 0.016884,0.0473257 0.0157215,0.0468416 0.0143727,0.0464941 0.0131729,0.0461218 0.0117663,0.0457287 0.0108643,0.0452571 0.00997485,0.0448847 0.00909776,0.044562 0.0081917,0.0444007 0.00771592,0.0440118 "/>
    <polygon id="_442945624" class="fil0" points="0.0156842,0.0264079 0.0150595,0.0260438 0.0144555,0.0261431 0.0139838,0.0264286 0.0140417,0.0270905 0.0148113,0.0276904 0.0156511,0.0290516 0.0165034,0.0304665 0.0173308,0.0317284 0.0182741,0.033073 0.0194822,0.0347899 0.0203179,0.0357953 0.0213481,0.0367137 0.0223245,0.0376405 0.0238304,0.0383231 0.0249847,0.0387575 0.0260604,0.038683 0.0265941,0.0384927 0.026983,0.0380169 0.0270243,0.0373384 0.0269002,0.0368916 0.0265072,0.0366972 0.0256715,0.0363166 0.0246827,0.0359607 0.0236649,0.0354022 0.0228375,0.034761 0.0218073,0.0338425 0.0210709,0.0328247 0.0202517,0.0319228 0.0196353,0.0312981 0.0188947,0.0299204 0.0180176,0.0289771 0.0172977,0.0280587 0.0169543,0.0275456 0.0162883,0.0269333 "/>
    <polygon id="_442945984" class="fil0" points="0.0229823,0.0182824 0.0223907,0.0178107 0.0221135,0.017699 0.0218694,0.0181004 0.0217577,0.0186878 0.0219066,0.019598 0.0222128,0.0208392 0.0229699,0.0223203 0.0239835,0.0237601 0.0249764,0.0250964 0.0259776,0.0261762 0.0270285,0.0272436 0.0281248,0.0282572 0.0294363,0.0293371 0.0308265,0.0302472 0.031385,0.0305162 0.0322497,0.0304293 0.0328702,0.030119 0.0329985,0.0293246 0.0329075,0.0287703 0.0323159,0.0282945 0.0314388,0.0276656 0.0303838,0.0269044 0.0295481,0.0262135 0.0285758,0.0253364 0.0275332,0.0243186 0.0269912,0.0235284 0.0261555,0.0228333 0.0256963,0.0222376 0.0249764,0.0213191 0.0245172,0.0207234 0.0241779,0.0198959 0.0237766,0.0193415 0.0233836,0.0188368 "/>
    <path id="_442945888" class="fil0" d="M0.038894 0.00755871l-0.000107568 -0.000657819 -0.000426134 -0.000393036 -0.000368213 -0.000355801 -0.000182038 -0.000488192 -0.000504741 8.27445e-005 -0.000326841 0.00052129 8.27445e-005 0.000810896 0.000157215 0.000959836c0,0 0.00014894,0.000906052 0.000190312,0.00115842 3.7235e-005,0.000252371 0.000177901,0.00110878 0.000177901,0.00110878l0.000273057 0.00166316 6.20584e-005 0.00133632 0.000182038 0.00172936 0.00044682 0.00117083 0.000488192 0.00172936 0.000393036 0.00143562 0.000264782 0.00130323 0.000388899 0.000815033 0.000645407 0.000773661 0.000786073 7.86073e-005 0.000889503 -0.000248233 0.000351664 -0.000368213 0.000260645 -0.000612309 -5.37839e-005 -0.000972248 -0.000583349 -0.000732289 -0.000558525 -0.00120393 -0.00041786 -0.0012784 -0.000409585 -0.00220928 -0.000380625 -0.00169626 -0.00029788 -0.00119152 -0.000393036 -0.00143975 -0.000206861 -0.000947424 -0.00029788 -0.000570937 -5.79211e-005 -0.000666093 -0.000467506 -0.000645407z"/>
    <path id="_442945840" class="fil0" d="M0.0543797 0.000215136l-0.000413722 0.000326841 -7.447e-005 0.000475781 -0.000355801 0.000678505 2.06861e-005 0.000773661 -0.000252371 0.00128254 -0.000165489 0.00184106c0,0 -0.000153077,0.00126599 -0.00037235,0.00151009 -0.000219273,0.000239959 -0.000339252,0.000777798 -0.000289606,0.00107982 4.96467e-005,0.000302017 -0.000107568,0.00219273 -0.000107568,0.00219273l0.000165489 0.00131564 -0.000475781 0.00214722 -9.92934e-005 0.00193208 0.000235822 0.0011005 0.000285468 0.00145217 0.000475781 0.00100948 0.00108395 -2.06861e-005 0.000599897 -9.92934e-005 0.000513016 -0.00034339 0.000219273 -0.000550251 -9.92934e-005 -0.000608172 -0.000136528 -0.000856405 -0.000351664 -0.000872954 -0.000198587 -0.000587486 -0.000198587 -0.00120807 0.000103431 -0.000951561 2.06861e-005 -0.00207275 0.000401311 -0.00197759 -3.7235e-005 -0.00149768 0.000169626 -0.0011667 -0.000128254 -0.00111705 0.000450957 -0.000695054 -9.51561e-005 -0.00153491 -0.000173763 -0.00105913 0.000165489 -0.000906052 -0.000115842 -0.000707465 -8.27445e-005 -0.000500604 -0.000686779 0.000215136z"/>
    <polygon id="_442945720" class="fil0" points="0.0677967,0.00174591 0.0678174,0.000914326 0.0677429,0.000463369 0.067383,0.000157215 0.066932,0.000231685 0.0666217,0.000541976 0.0662411,0.00107154 0.0661294,0.00227961 0.0655667,0.00356215 0.0655543,0.00444338 0.0649916,0.00510533 0.0644662,0.00664024 0.0641932,0.00781935 0.0641559,0.00917223 0.0638415,0.0104134 0.0636553,0.0117911 0.0635147,0.0134667 0.0635312,0.0148113 0.0633574,0.015978 0.0635229,0.0169874 0.0636553,0.0177942 0.0642676,0.0180548 0.0650041,0.0181417 0.0655584,0.0180507 0.065968,0.0177239 0.0660053,0.0169957 0.066117,0.0160979 0.0660094,0.0151298 0.0661335,0.0130405 0.0661046,0.0112863 0.0664935,0.00956526 0.0667913,0.00760422 0.0672506,0.00597829 0.0674037,0.00501845 0.0673747,0.00419514 0.0675112,0.00345044 0.067685,0.00295398 0.0676477,0.00208102 "/>
    <polygon id="_442945312" class="fil0" points="0.0830796,0.00297466 0.0826038,0.00258576 0.0819832,0.00258576 0.081404,0.00314429 0.0809406,0.00441028 0.0799974,0.00529151 0.0786197,0.00758767 0.0777426,0.00948665 0.0766628,0.0114229 0.0760463,0.0127137 0.0757939,0.0136859 0.0753306,0.0149519 0.0748217,0.01628 0.0746355,0.0173432 0.0743211,0.0182741 0.0744535,0.0190809 0.0746893,0.0195608 0.0752313,0.0197304 0.0758601,0.0197842 0.0765635,0.0196684 0.0768738,0.0193581 0.0772047,0.0188368 0.0774819,0.0177073 0.0774778,0.0167227 0.0784914,0.0137645 0.0790665,0.0119111 0.0798153,0.0104961 0.0804069,0.00936254 0.0807627,0.00806345 0.0812013,0.0072691 0.081975,0.00600311 0.0826245,0.00491502 0.082852,0.00409999 0.0830465,0.00370695 "/>
    <polygon id="_442944592" class="fil0" points="0.0967531,0.0076249 0.0967448,0.00695054 0.0964635,0.00647889 0.0960291,0.00634236 0.0954747,0.00643338 0.0950734,0.00680987 0.0941549,0.00752975 0.0935261,0.00872127 0.0927566,0.0100369 0.0920574,0.0111333 0.0911265,0.0123703 0.0905349,0.0135039 0.0897778,0.0148692 0.089211,0.0161517 0.0883877,0.017426 0.0876802,0.0184727 0.0872003,0.019325 0.0871382,0.0202145 0.0876554,0.0208557 0.0883959,0.0209426 0.0890703,0.0209881 0.089844,0.0203427 0.0904025,0.0193208 0.0913209,0.0170495 0.092678,0.0149147 0.093613,0.0130529 0.0945149,0.0113029 0.0950362,0.0103886 0.0957519,0.0093915 0.0960126,0.00877919 0.0963849,0.00819998 "/>
    <path id="_442944640" class="fil0" d="M0.113381 0.0278311l0.000906052 -0.00014894 0.00052129 -0.000293743 3.7235e-005 -0.000728151 -0.000434409 -0.00044682 -0.000645407 -0.000153077 -0.000806759 0.000132391 -0.00111291 0.000128254 -0.000922601 4.55095e-005 -0.00129081 0.000314429 -0.00138597 0.000384762 -0.00123289 0.000666093 -0.0018452 0.00071574 -0.00160524 0.000624721 -0.00124944 0.0005668 -0.00138183 0.000380625 -0.000922601 0.000355801 -0.000922601 0.000359938c0,0 -0.000289606,0.00014894 -0.000537839,0.000190312 -0.000252371,4.13722e-005 -0.00136942,0.000484055 -0.00136942,0.000484055l-0.000678505 0.000575074 -4.13722e-006 0.000620584 0.000277194 0.000732289 0.000467506 0.000339252 0.000508879 0.000277194 0.000529565 7.03328e-005 0.000550251 -9.10189e-005 0.000707465 -0.000115842 0.00158456 -0.000724014 0.00129495 -0.000935013 0.00131564 -0.000475781 0.00129909 -0.000264782c0,0 0.000335115,-0.000467506 0.000632995,-0.0005668 0.000293743,-9.92934e-005 0.00175832,-0.000599897 0.00175832,-0.000599897l0.0015556 -0.000616446 0.000914326 -0.000405448 0.000529565 -0.000554388 0.00134046 -0.000322703 0.00100535 -0.000165489 0.000612309 -0.000355801z"/>
    <path id="_442944616" class="fil0" d="M0.109852 0.0375122l0.000963973 -0.000103431 0.000752975 -0.000124117 0.000504741 -8.27445e-005 0.000426134 -0.00022341 2.06861e-005 -0.00052129 0 -0.000310292 -0.000525427 -0.000380625 -0.000455095 -0.000235822 -0.000736426 -8.68817e-005 -0.000872954 3.7235e-005 -0.000910189 9.92934e-005 -0.000604035 9.92934e-005 -0.00110878 0.000177901 -0.00110464 0.000182038 -0.000906052 0.00014894 -0.000645407 0.000157215c0,0 -0.000537839,0.000190312 -0.000976385,0.000364076 -0.000434409,0.000177901 -0.00126599,0.000467506 -0.00126599,0.000467506l-0.00138183 0.000690916 -0.000930875 0.000310292 -0.000314429 0.000620584 9.92934e-005 0.000604035 0.000393036 0.000815033 0.000761249 0.000546114 0.000728151 3.7235e-005 0.00104672 -0.00022341 0.00163834 -0.000732289 0.000711603 -0.000376487 0.00086468 -0.000397173 0.000889503 -0.000252371 0.000748838 -0.000484055 0.000661956 -0.000364076 0.000450957 -7.447e-005 0.00107568 -0.000384762z"/>
    <path id="_442945048" class="fil0" d="M0.103344 0.0504783l-0.000781935 0.000281331 -0.000359938 0.000628858 9.92934e-005 0.000608172 0.000264782 0.000368213 0.000628858 0.000364076 0.00123703 0.000624721 0.000831582 2.06861e-005 0.000620584 0 0.000786073 7.86073e-005 0.00093915 5.37839e-005 0.00197759 9.10189e-005 0.00204379 0.000182038 0.00196104 0.000302017 0.00232926 0.000653681 0.00163834 0.000248233 0.000992934 4.96467e-005 0.000963973 -0.000107568 0 -0.000620584 -0.000335115 -0.000463369 -0.000794347 -0.000438546 -0.00116256 -0.000484055 -0.00115429 -0.000430271 -0.00114187 -0.000335115 -0.00117911 -0.00026892 -0.00108809 -0.000339252 -0.000906052 -0.000165489 -0.000997071 -9.51561e-005 -0.000881229 -1.24117e-005c0,0 -0.000649544,0.000107568 -0.000918464,4.96467e-005 -0.00026892,-6.20584e-005 -0.000963973,-0.000206861 -0.000963973,-0.000206861l-0.000930875 -0.000314429 -0.000728151 -3.30978e-005 -0.000815033 7.86073e-005 -0.000632995 -0.000413722 -0.000554388 9.10189e-005 -0.000988796 -4.55095e-005z"/>
    <polygon id="_442944760" class="fil0" points="0.10679,0.064611 0.105996,0.0641725 0.105342,0.06428 0.104796,0.0644207 0.104568,0.0649213 0.104539,0.0657033 0.104924,0.0661583 0.105454,0.066539 0.10602,0.0668575 0.10684,0.0671389 0.107737,0.0672506 0.110042,0.0677553 0.11149,0.067776 0.112235,0.0682228 0.113257,0.0684711 0.114696,0.0690627 0.115875,0.069646 0.116512,0.0700597 0.117083,0.0700722 0.11746,0.0698529 0.117505,0.0691744 0.117145,0.0685579 0.116744,0.0680035 0.116194,0.067474 0.115247,0.0670603 0.114361,0.0666879 0.113513,0.0662535 0.112789,0.0659101 0.111899,0.0655378 0.110869,0.0652399 0.110402,0.0652109 0.109413,0.0651654 0.108743,0.0651737 0.107953,0.0647848 "/>
    <path id="_442945144" class="fil0" d="M0.102673 0.0801877l-0.000517153 -0.00064127 -0.000612309 -0.000570937 -0.000951561 -0.000777798 -0.000579211 -0.000368213 -0.00104672 -0.000401311 -0.000810896 -0.000537839 -0.00136528 -0.000450957 -0.00081917 -0.000281331 -0.000827445 -0.000326841 -0.000703328 0.000111705 -0.000504741 0.000393036 -0.000306155 0.000359938 3.30978e-005 0.000513016 8.27445e-005 0.000504741 0.000219273 0.000376487 0.00100121 0.000459232 0.0007447 0.000136528 0.000839856 7.03328e-005 0.00167558 0.000450957c0,0 0.000678505,0.000355801 0.000951561,0.000463369 0.000277194,0.000111705 0.000997071,0.000405448 0.000997071,0.000405448l0.000794347 0.000442683 0.000645407 0.000463369 0.000426134 0.000393036 0.000579211 6.20584e-005 0.00041786 -0.000273057 -9.92934e-005 -0.000608172 -0.000264782 -0.000368213z"/>
    <polygon id="_442944808" class="fil0" points="0.0869975,0.0821487 0.0866914,0.0821777 0.0862984,0.0823059 0.0859674,0.0824425 0.0857026,0.0827114 0.0855537,0.0831706 0.0857357,0.0835347 0.0858557,0.0838864 0.0863935,0.0842752 0.0870596,0.0846848 0.0876595,0.085082 0.0882139,0.0854254 0.0888138,0.0856985 0.0894964,0.0858391 0.0901915,0.0857853 0.0904439,0.0854337 0.0904852,0.085053 0.0904108,0.0847345 0.0900715,0.0844201 0.089695,0.084027 0.0892896,0.0836795 0.0887807,0.0833485 0.0884414,0.0830506 0.0881849,0.0828645 0.0879491,0.0825542 0.0878002,0.0823928 0.0875064,0.082128 "/>
   </g>
  </g>
 </g>
</svg>
