<?xml version="1.0" encoding="UTF-8"?>
<!DOCTYPE svg PUBLIC "-//W3C//DTD SVG 1.1//EN" "http://www.w3.org/Graphics/SVG/1.1/DTD/svg11.dtd">
<!-- Creator: CorelDRAW -->
<svg xmlns="http://www.w3.org/2000/svg" xml:space="preserve" width="3.6619mm" height="3.4463mm" style="shape-rendering:geometricPrecision; text-rendering:geometricPrecision; image-rendering:optimizeQuality; fill-rule:evenodd; clip-rule:evenodd"
viewBox="0 0 0.144257 0.135764"
 xmlns:xlink="http://www.w3.org/1999/xlink">
 <defs>
  <style type="text/css">
   <![CDATA[
    .fil0 {fill:#FEFEFE}
   ]]>
  </style>
 </defs>
 <g id="Layer_x0020_1">
  <metadata id="CorelCorpID_0Corel-Layer"/>
  <g id="_442949464">
   <g>
    <polygon id="_442951552" class="fil0" points="0.0645392,0.104059 0.0643264,0.102791 0.0640113,0.101313 0.0635898,0.0999386 0.0629555,0.0987765 0.0626404,0.0970865 0.0617974,0.0953926 0.0611631,0.0934938 0.0601074,0.091591 0.059477,0.0902162 0.0586301,0.0886325 0.0576807,0.0868362 0.0566289,0.0850398 0.0556795,0.0831371 0.0547301,0.0813407 0.0539895,0.0792253 0.0534655,0.0776416 0.0535679,0.076058 0.0539895,0.0742616 0.0545173,0.0724652 0.0557858,0.0711968 0.0574719,0.070141 0.059158,0.0700346 0.0605289,0.0700346 0.0620061,0.0705625 0.0627428,0.070984 0.0635898,0.0703498 0.0654886,0.0697155 0.0671746,0.0695068 0.0679152,0.070141 0.0684392,0.0706689 0.0696013,0.0695068 0.0707595,0.0685534 0.0724495,0.0681319 0.0739268,0.0679192 0.0756128,0.0681319 0.0769837,0.0688725 0.0788825,0.0684471 0.0805686,0.0684471 0.0821522,0.0688725 0.0833104,0.0695068 0.0844725,0.0707752 0.0853156,0.0724652 0.0856307,0.0747895 0.0852092,0.0774289 0.0846853,0.080285 0.0839447,0.0834522 0.0829953,0.0864107 0.0820459,0.0891604 0.080675,0.0917998 0.0796192,0.0938089 0.0785674,0.0951838 0.0787762,0.0969801 0.0777204,0.0978232 0.0763495,0.0989892 0.0749786,0.0989892 0.073714,0.098351 0.0732925,0.0971889 0.0738204,0.0951838 0.0749786,0.091591 0.0770901,0.0879983 0.0782483,0.0852486 0.0796192,0.0821877 0.0808877,0.0793316 0.0813092,0.076901 0.0819434,0.074368 0.0818371,0.0724652 0.0803598,0.0725677 0.0791977,0.0732059 0.0787762,0.0742616 0.0780395,0.0762668 0.0768774,0.0773265 0.0757192,0.0776416 0.0744507,0.0767946 0.073714,0.075211 0.073714,0.0736274 0.0738204,0.0717246 0.0725559,0.0722525 0.0712874,0.0733083 0.0708659,0.0741552 0.0708659,0.0756325 0.0708659,0.0764795 0.0706571,0.0773265 0.0698101,0.077748 0.0690734,0.0772201 0.068124,0.0762668 0.0671746,0.0745768 0.0671746,0.0734146 0.0659101,0.0730995 0.0648543,0.0733083 0.0642201,0.0739425 0.0645392,0.0758453 0.0642201,0.0771137 0.0639049,0.0782759 0.0623213,0.0788037 0.060848,0.0788037 0.0598986,0.077748 0.0592643,0.076901 0.0593707,0.076058 0.0589492,0.0751046 0.0588428,0.0742616 0.059477,0.0732059 0.0585277,0.0732059 0.0574719,0.0740489 0.0570504,0.075211 0.0565225,0.0765859 0.0567313,0.0781695 0.0576807,0.0800722 0.0595795,0.0831371 0.0610567,0.0860956 0.0622189,0.0884198 0.0637986,0.0912719 0.0649607,0.0933874 0.0658037,0.0954989 0.0668595,0.0976144 0.0673874,0.100045 0.0680177,0.101944 0.0678089,0.10311 0.0670683,0.104166 0.0659101,0.1048 0.0652758,0.1048 "/>
    <path id="_442951672" class="fil0" d="M0.062534 0.108286l0.00137091 -0.000740607 0.00274182 -0.000843031 0.00274182 -0.000634243 0.00242667 -0.000527879 0.00263546 -0.000106364 0.00284819 -0.000212728 0.00284819 0.000212728 0.00200515 0.000736668 0.00179243 0.000846971 0.000843031 0.000315152 0.000212728 0.00200909 -0.000212728 0.00190273 -0.000949395 0.00169 -0.00137091 0.00105576 0.000634243 0.00179637 -0.000212728 0.00211546 -0.000945456 0.00126849 -0.00105576 0.000949395 -0.000527879 0.000634243 0.000949395 0.00148121 0.000315152 0.00169 -0.000634243 0.00190273 -0.00179243 0.00200515 -0.00263546 0.00126849 -0.00274182 0.00105576 -0.00189879 0.000634243 -0.00284819 0.000425455 -0.00221394 0.000106364 -0.00147727 -0.000106364 -0.000736668 -0.000531819 0 -0.00116212 0.000315152 -0.000843031 0.000736668 -0.000846971 0.00137091 -0.000315152 -0.0015797 -0.000212728 -0.00158364 0 -0.00126455 -0.00126849 -0.000212728 -0.00147727 0.000421516 -0.00116212 0.00158364 -0.00137485 0.00210758 -0.00116212 0.00232031 -0.000421516 0.00242667 -0.000634243 0.0026394 -0.000212728 0.00189879 -0.000527879 0.00242273 -0.00126849 0.000319091 -0.00169 -0.00221788 0.000740607 -0.0032697 0.00126849 -0.00210758 0.000527879 -0.00221394 0.000315152 -0.0026394 0.000319091 -0.00232031 -0.000106364 -0.00179243 -0.000740607 -0.000527879 -0.00126849 0.000634243 -0.000949395 0.00147727 -0.00200909 0.00221394 -0.00105576 0.00232031 -0.000634243 0.00274182 -0.000527879 0.00200515 -0.000212728 0.0015797 -0.000212728 0.00179637 0.000531819 0.00179243 0.000315152 0.00126455 -0.000634243 0.00116212 -0.00137485 0.00052394 -0.00105576 -0.00200121 -0.000740607 -0.00147727 0 -0.00168606 0 -0.00200515 0.000319091 -0.00232031 0.000212728 -0.00179243 0.000421516 -0.00189879 0.000843031 -0.00211152 0.000846971 -0.00179243 0.000527879 -0.00147727 0 -0.00105182 -0.000740607 -0.000846971 -0.000736668 -0.000106364 -0.000846971 0 -0.000846971 0.000846971 -0.000421516 0.00126455 0.000106364zm0.00664577 0.0188106l0.00200121 -0.000425455 0.00211152 -0.00105576 0.00232031 -0.00116212 0.00115818 -0.000846971 0.000267879 -0.000236364 0.000303334 -0.000267879 0.000468788 -0.000118182 0.000287576 0.000185152 -6.30304e-005 0.000740607 -0.000417576 0.000543637 -0.000949395 0.000949395 -0.00169 0.000846971 -0.00168606 0.000634243 -0.00147727 0.000421516 -0.0015797 0.000106364 -0.00105576 -0.000315152z"/>
    <polygon id="_442951264" class="fil0" points="0.0659495,0.133447 0.0665286,0.133447 0.0671077,0.133589 0.0671077,0.134172 0.0671077,0.134893 0.0667452,0.135547 0.0662371,0.135764 0.0653704,0.135764 0.0644289,0.135693 0.0632746,0.135547 0.0624749,0.135114 0.0615374,0.134676 0.0605249,0.134172 0.0595834,0.133227 0.0587167,0.13236 0.0583543,0.131052 0.0577752,0.129823 0.0571961,0.128373 0.0569046,0.127357 0.0563295,0.126199 0.0563295,0.125111 0.0558213,0.12337 0.055388,0.121558 0.055317,0.119604 0.0549546,0.117863 0.054738,0.116126 0.054738,0.11453 0.0546631,0.11301 0.054084,0.111631 0.0538673,0.110398 0.0537255,0.109169 0.0524216,0.108877 0.0514092,0.108223 0.0503258,0.107065 0.0498176,0.106632 0.0488052,0.105907 0.0475761,0.10547 0.0461264,0.10489 0.0447555,0.104166 0.0433058,0.103224 0.0417143,0.101991 0.0404143,0.100979 0.0392561,0.0998165 0.0378813,0.0986583 0.0367979,0.0974253 0.0358564,0.096338 0.0347691,0.0950341 0.0337567,0.0939468 0.0328191,0.0922804 0.0318776,0.090685 0.0308652,0.0893101 0.0301403,0.0882228 0.029707,0.0867731 0.0291988,0.0850319 0.0284031,0.0831489 0.0283322,0.0816283 0.0280446,0.0798871 0.0276112,0.0782207 0.0275364,0.0768459 0.0271031,0.0759004 0.0271031,0.073584 0.0272488,0.0714804 0.027174,0.0695225 0.0276112,0.0678562 0.0278279,0.0651734 0.0289822,0.0614783 0.0299237,0.0587995 0.0314443,0.0560419 0.0331067,0.0535089 0.0344107,0.0514801 0.036144,0.0495931 0.0377355,0.0479976 0.0394019,0.0461895 0.0417143,0.0438691 0.044464,0.0415488 0.0471428,0.0392285 0.0499634,0.0374164 0.0532173,0.035171 0.0558922,0.033867 0.0585001,0.0327797 0.0612458,0.0315467 0.0645037,0.0306052 0.0673952,0.0298803 0.0702159,0.0293013 0.0723865,0.0290846 0.0747737,0.0290846 0.0772359,0.0285764 0.0799107,0.0286473 0.0827313,0.0287931 0.0852644,0.0290097 0.087435,0.0293722 0.0898222,0.0296637 0.0926428,0.0304594 0.094451,0.0309676 0.0967674,0.0318382 0.0983589,0.032634 0.1006,0.0339379 0.10248,0.0352458 0.104433,0.0369122 0.106458,0.0387243 0.107908,0.0404616 0.109716,0.0424904 0.111595,0.0446649 0.112824,0.0464061 0.113983,0.0486516 0.114995,0.0506804 0.115645,0.0526383 0.11637,0.0549546 0.11702,0.057204 0.117528,0.0590161 0.117961,0.0608992 0.118395,0.0630737 0.118686,0.065394 0.118832,0.0676395 0.118611,0.069814 0.118395,0.0720595 0.118036,0.0739465 0.117457,0.0759004 0.116441,0.0781498 0.115428,0.0801037 0.114416,0.0819907 0.113333,0.0838737 0.11145,0.0866274 0.109716,0.0882938 0.107979,0.0902516 0.106242,0.0919889 0.104579,0.0933677 0.102338,0.095105 0.10053,0.0960504 0.0985756,0.0973544 0.0964759,0.0985874 0.0941635,0.0999623 0.0922804,0.10112 0.0911222,0.102208 0.0901098,0.103078 0.0898222,0.10424 0.0890974,0.106919 0.0892431,0.108948 0.0888925,0.110638 0.0886247,0.112127 0.088668,0.113797 0.088668,0.115149 0.0885774,0.116504 0.0885341,0.11804 0.0884868,0.11962 0.0884868,0.121152 0.0883056,0.122732 0.0884435,0.12454 0.0882622,0.126073 0.0880377,0.127652 0.0876753,0.129275 0.0871356,0.13063 0.0865053,0.131489 0.085875,0.132301 0.0852447,0.133341 0.0846144,0.134062 0.0836216,0.134873 0.0824044,0.135279 0.0811437,0.135279 0.0803795,0.135279 0.0800171,0.134783 0.0793868,0.134783 0.0785753,0.134964 0.0772674,0.135145 0.0766371,0.135145 0.0759162,0.134873 0.0754237,0.134467 0.0751519,0.133971 0.0751519,0.133475 0.0754671,0.132935 0.0763219,0.132707 0.077358,0.132439 0.0783074,0.132167 0.0794301,0.131623 0.0806474,0.130993 0.081774,0.130272 0.0830819,0.129323 0.0838028,0.128554 0.084118,0.12738 0.0845237,0.125801 0.0844765,0.123815 0.0843859,0.12183 0.0842953,0.119978 0.0843859,0.118489 0.0842086,0.116594 0.0841613,0.114609 0.0842086,0.112939 0.0843425,0.111268 0.0842953,0.109645 0.0845237,0.108152 0.0845671,0.107116 0.0847483,0.105852 0.0851541,0.104453 0.085288,0.103007 0.0856937,0.101833 0.0860089,0.100797 0.0865053,0.10012 0.0874941,0.0996707 0.0890738,0.0989932 0.0906062,0.0984062 0.0920007,0.0975474 0.0931747,0.097051 0.0943447,0.0962395 0.0962829,0.0950656 0.0978586,0.0939822 0.0992098,0.0928989 0.100695,0.0915438 0.102227,0.0902359 0.103488,0.0887468 0.104662,0.087435 0.105741,0.0863083 0.106734,0.085091 0.107632,0.0838265 0.10831,0.0829244 0.109121,0.081388 0.109842,0.0796743 0.110654,0.0775983 0.111146,0.0761998 0.111552,0.0745295 0.112096,0.0727686 0.11232,0.0708737 0.112588,0.0693374 0.112817,0.0678916 0.11295,0.0667649 0.112903,0.0651419 0.112903,0.0634716 0.112817,0.0624789 0.112679,0.0610331 0.112182,0.0594534 0.111867,0.0579643 0.111375,0.0565186 0.110697,0.0548049 0.11011,0.0530007 0.109795,0.0516455 0.109527,0.0502904 0.109074,0.0488919 0.108491,0.0477652 0.107723,0.0461855 0.106959,0.0446058 0.105923,0.0428882 0.105068,0.0416237 0.103984,0.0403631 0.102633,0.0391419 0.101325,0.0379679 0.0999307,0.0371131 0.0985795,0.0360297 0.0970471,0.0351276 0.0957392,0.0344028 0.0947032,0.0339064 0.0936238,0.0336346 0.0927216,0.0334573 0.0912365,0.0332288 0.0900625,0.0331382 0.0891171,0.032957 0.088081,0.0328231 0.0865486,0.0326419 0.0853786,0.0325513 0.0844331,0.0325079 0.082944,0.0322834 0.0816401,0.0322834 0.0800171,0.0321455 0.0784413,0.0322834 0.0770428,0.0321455 0.0754237,0.0321022 0.0742065,0.0322361 0.0731704,0.0324606 0.0715946,0.032957 0.0702868,0.0333667 0.0691601,0.0337725 0.0678522,0.0341782 0.0667255,0.0346273 0.065331,0.0353049 0.0639325,0.0359391 0.0624946,0.0365694 0.0611395,0.0369319 0.0601507,0.0374716 0.0588861,0.0381491 0.0576255,0.0386455 0.0568613,0.0390513 0.0558252,0.0397761 0.0547892,0.0402252 0.0537531,0.0409028 0.0524925,0.041671 0.0514998,0.0425731 0.0503731,0.0436131 0.0496089,0.0439716 0.0487973,0.0444679 0.0478952,0.0448737 0.0468592,0.0459137 0.0456419,0.046997 0.0446531,0.0478085 0.0435264,0.0489392 0.0422658,0.0500186 0.0417222,0.0509679 0.0410485,0.0515549 0.0395634,0.0525949 0.0387952,0.0534064 0.0377591,0.0546237 0.0369476,0.0556637 0.0363173,0.056747 0.0351473,0.0579643 0.0343358,0.0592289 0.0333431,0.0604934 0.0329846,0.061754 0.0320391,0.0635149 0.0316767,0.065004 0.0314955,0.0664498 0.0310897,0.0684352 0.0308219,0.069881 0.0307746,0.0713701 0.0308219,0.0730404 0.0308219,0.0745295 0.0305973,0.0763337 0.0308652,0.0782759 0.0309558,0.0802613 0.031137,0.0820656 0.03172,0.0841889 0.032307,0.085678 0.0330279,0.0873916 0.0338394,0.0885656 0.0343358,0.0899641 0.0348322,0.0905077 0.0354152,0.0916816 0.0365419,0.0930329 0.0376685,0.0942068 0.0387952,0.0952468 0.0400558,0.096598 0.0413637,0.0979098 0.0428488,0.0986741 0.0442001,0.0997141 0.0460949,0.101022 0.0474461,0.102105 0.0493843,0.103236 0.0510507,0.104047 0.052851,0.104816 0.0541116,0.105083 0.0555534,0.10558 0.0566367,0.105852 0.0575822,0.106033 0.0579407,0.106257 0.0582125,0.106982 0.0583031,0.107928 0.0583031,0.109507 0.0583937,0.111402 0.0580786,0.113388 0.0585277,0.116141 0.0587089,0.118174 0.0588428,0.119844 0.0588861,0.12129 0.059024,0.122551 0.0593825,0.124178 0.0595637,0.125848 0.0601507,0.1277 0.0607337,0.128692 0.0616358,0.130091 0.0628098,0.131308 0.0637552,0.132076 0.0645195,0.132797 0.0651498,0.133112 "/>
   </g>
   <g>
    <polygon id="_442951048" class="fil0" points="0.0420058,0.109232 0.0417655,0.108987 0.0417655,0.108558 0.0416198,0.108219 0.0410407,0.108026 0.0404182,0.107932 0.0396934,0.108026 0.0389725,0.10846 0.0380585,0.108846 0.0373849,0.109472 0.0365182,0.110193 0.035557,0.110961 0.0345013,0.111729 0.0334416,0.112694 0.0319013,0.11351 0.0308455,0.11457 0.02964,0.115483 0.0289664,0.116303 0.0278594,0.117359 0.0264176,0.11856 0.0253106,0.119234 0.0239634,0.120006 0.0227146,0.120341 0.0214146,0.1214 0.0207134,0.122539 0.0213161,0.124111 0.0223443,0.124654 0.0230691,0.124654 0.0238531,0.124595 0.0250625,0.123748 0.0263309,0.122779 0.0279579,0.121207 0.0293485,0.119695 0.0307982,0.118241 0.0329137,0.116791 0.0347849,0.115338 0.0364749,0.113947 0.0381649,0.112675 0.0398588,0.111647 0.0411234,0.111103 0.0418482,0.110437 0.0421516,0.109834 "/>
    <polygon id="_442951000" class="fil0" points="0.02808,0.100151 0.0268116,0.100636 0.0254249,0.101483 0.0235537,0.10233 0.0218006,0.103177 0.0199885,0.104087 0.0179952,0.104934 0.0163643,0.105781 0.0147964,0.106746 0.0131655,0.107171 0.0117158,0.107837 0.0100849,0.108806 0.00923789,0.109771 0.00881638,0.11074 0.0089385,0.111769 0.00960032,0.112493 0.0108688,0.112194 0.0121373,0.111347 0.0137091,0.110197 0.0157024,0.109169 0.0173294,0.108322 0.0191415,0.107593 0.0210758,0.106746 0.0230691,0.105899 0.0250625,0.104934 0.0268746,0.104087 0.0282022,0.103602 0.0294076,0.103177 0.0301325,0.102511 0.0304949,0.101424 0.0303137,0.100514 0.0296519,0.0999701 0.0289861,0.0999701 "/>
    <polygon id="_442951168" class="fil0" points="0.0222852,0.0950104 0.0228288,0.0941004 0.0228879,0.0930132 0.0227658,0.0924065 0.0220409,0.0918628 0.0211349,0.0915595 0.02041,0.0919259 0.0194449,0.0924695 0.0176918,0.0929541 0.0160609,0.0932535 0.0146743,0.093738 0.012803,0.0945259 0.0113533,0.0952507 0.0100218,0.0959795 0.0089385,0.0969447 0.00887547,0.0977326 0.00947819,0.098095 0.010207,0.098095 0.0121373,0.0976104 0.0143118,0.0969447 0.0162461,0.0963419 0.0176328,0.0959795 0.0193858,0.0959165 0.0207134,0.0956132 0.0214973,0.0954319 "/>
    <polygon id="_442951072" class="fil0" points="0.0214973,0.0878092 0.0217415,0.0869622 0.0216785,0.0861153 0.0211349,0.0855125 0.0204731,0.0852683 0.0201106,0.0853313 0.0193858,0.0855125 0.0185979,0.0856937 0.0172112,0.0858119 0.0150958,0.0859341 0.0132837,0.0859931 0.011897,0.0861744 0.0104473,0.0863595 0.00936001,0.086781 0.00845395,0.0873247 0.00833183,0.0881716 0.00863516,0.0886562 0.0094191,0.0891407 0.0109318,0.0891407 0.0128621,0.0891407 0.0143118,0.0890816 0.016124,0.0890186 0.0175737,0.0887192 0.0189012,0.0887192 0.0200476,0.0887192 0.0208946,0.0885341 "/>
    <polygon id="_442950688" class="fil0" points="0.0224664,0.0761919 0.0224034,0.0754671 0.0221631,0.0748643 0.0216194,0.0744389 0.0211349,0.0743798 0.0205321,0.0743168 0.0197482,0.0738952 0.0185388,0.0734107 0.0173924,0.0728671 0.016124,0.0723195 0.0149776,0.0715946 0.0139494,0.0712322 0.012803,0.0706886 0.0116527,0.0702631 0.0105064,0.0699007 0.00954122,0.0695974 0.00833183,0.0690537 0.00712637,0.0682068 0.00597607,0.0677222 0.00495182,0.0673007 0.00392364,0.0667531 0.0031397,0.0663316 0.00217455,0.0659692 0.00132758,0.0659692 0.000724849,0.0659692 0.000118182,0.0664537 -0,0.0671195 0.000181212,0.0677222 0.000724849,0.0680255 0.00156788,0.0683289 0.00169,0.0689316 0.00174909,0.0695383 0.00295849,0.0697786 0.0043491,0.070141 0.00591698,0.0708698 0.00706334,0.0712913 0.00821365,0.0716537 0.00936001,0.0722604 0.0106285,0.072804 0.0117158,0.0734698 0.0130434,0.0741356 0.0145521,0.0749825 0.0160018,0.0757074 0.0170891,0.0761328 0.0180543,0.0767986 0.0191415,0.0772831 0.0202288,0.0777046 0.0211979,0.0777677 0.0219228,0.0776456 0.0224034,0.0769798 "/>
    <polygon id="_442950952" class="fil0" points="0.0073194,0.055061 0.00646061,0.055061 0.00566092,0.055124 0.00560183,0.0558016 0.00523152,0.0563531 0.00541667,0.0572158 0.00689001,0.0578934 0.0089188,0.0586301 0.0106994,0.0594928 0.0129094,0.0606628 0.0149973,0.0617067 0.0169631,0.0625064 0.0185585,0.0634283 0.0203982,0.0639207 0.0214461,0.0638616 0.0220567,0.0633692 0.0223049,0.0624474 0.0223049,0.0617698 0.0218755,0.0613364 0.0211979,0.060844 0.0200318,0.0603516 0.0183103,0.0596149 0.0164076,0.0587522 0.0151194,0.058508 0.0136461,0.0572789 0.0117433,0.0567234 0.00971456,0.056168 0.00867062,0.0554943 "/>
    <polygon id="_442950496" class="fil0" points="0.0125391,0.0429434 0.0116173,0.0428213 0.0108806,0.0428804 0.0104512,0.043621 0.0105143,0.0441725 0.0109437,0.0447279 0.01027,0.044787 0.00965547,0.0448501 0.00928516,0.0454055 0.00952941,0.045894 0.0106364,0.0465716 0.0116803,0.0472492 0.0133979,0.048171 0.0158561,0.0491558 0.0176367,0.0495852 0.0189249,0.0502037 0.0210758,0.0511255 0.0227343,0.0519252 0.024574,0.0526028 0.0259252,0.0525398 0.0264176,0.0518622 0.026847,0.0511886 0.026847,0.050511 0.0266028,0.0500186 0.0259882,0.0497704 0.0252515,0.0497704 0.024574,0.0494631 0.0235931,0.0488485 0.0223049,0.0480489 0.0207685,0.0473713 0.0194173,0.0466976 0.0178218,0.045957 0.016837,0.0452204 0.0158561,0.0446058 0.0148752,0.0440504 0.0138312,0.0436801 0.0133388,0.0431285 "/>
    <polygon id="_442950472" class="fil0" points="0.0262325,0.0237506 0.0255588,0.0231952 0.0248222,0.0231952 0.0242076,0.0234394 0.0241446,0.0242391 0.0249443,0.0251019 0.0256809,0.0268864 0.0264176,0.02873 0.0271543,0.0303925 0.0280131,0.032177 0.02912,0.034454 0.0299197,0.0358052 0.0309637,0.0370973 0.0319446,0.0383894 0.0336031,0.0394964 0.0348913,0.040237 0.0361834,0.0403591 0.036857,0.040237 0.0374085,0.0397446 0.0375937,0.0389449 0.0375346,0.0383894 0.0371013,0.0380822 0.0361834,0.0374676 0.0350764,0.0368531 0.0339694,0.0359904 0.0331106,0.0350685 0.0320667,0.0337764 0.0313931,0.0324213 0.0305934,0.0311922 0.0299788,0.0303334 0.0293643,0.0285488 0.0285055,0.0272567 0.0278319,0.0260237 0.0275246,0.02535 0.026847,0.0244873 "/>
    <polygon id="_442950016" class="fil0" points="0.0364907,0.0155055 0.0358761,0.0148279 0.0355688,0.0146427 0.0351985,0.0150721 0.0349543,0.0157497 0.0349543,0.0168567 0.0350764,0.018397 0.035691,0.0203037 0.0366128,0.0222103 0.0375346,0.0239949 0.0385155,0.0254722 0.0395594,0.0269494 0.0406625,0.0283637 0.0420137,0.0299 0.043491,0.0312552 0.0441016,0.0316846 0.0451455,0.0317476 0.0459452,0.0314994 0.0462525,0.0305776 0.0462525,0.0299 0.0456379,0.0292225 0.0447161,0.0283006 0.0436131,0.0271937 0.0427543,0.0262088 0.0417694,0.0249797 0.0407255,0.0235655 0.0402331,0.0225176 0.0393743,0.0215328 0.0389449,0.0207331 0.0382713,0.019504 0.0378379,0.0187043 0.0375937,0.0176564 0.0372273,0.0169197 0.036857,0.0162421 "/>
    <path id="_442949896" class="fil0" d="M0.0574916 0.00584607l0 -0.000799698 -0.000433334 -0.000555455 -0.000366364 -0.000488485 -0.000122121 -0.000618486 -0.000614546 0 -0.000492425 0.000555455 -5.9091e-005 0.00098485 0 0.00116606c0,0 0,0.00111091 0,0.00141818 0,0.000307273 0,0.00135121 0,0.00135121l0 0.00203273 -0.000185152 0.0015994 -0.000122121 0.00209182 0.000307273 0.00147334 0.000244243 0.00215485 0.000185152 0.00178455 5.9091e-005 0.0015994 0.000307273 0.00104394 0.000614546 0.00104788 0.000921819 0.000244243 0.00110303 -0.000122121 0.000492425 -0.000370304 0.000429395 -0.000673637 0.000122121 -0.00117 -0.000551516 -0.00098485 -0.000429395 -0.00153637 -0.000244243 -0.0015994 -6.30304e-005 -0.00270637 -0.000122121 -0.00209576 -0.000122121 -0.00147334 -0.000185152 -0.00178455 -6.30304e-005 -0.00117 -0.000244243 -0.000736668 6.30304e-005 -0.000799698 -0.000429395 -0.000862728z"/>
    <path id="_442950616" class="fil0" d="M0.0773225 0.000126061l-0.000551516 0.000307273 -0.000185152 0.000551516 -0.000551516 0.000740607 -0.000122121 0.000921819 -0.000551516 0.00147727 -0.000555455 0.00215091c0,0 -0.000429395,0.00147727 -0.000736668,0.00172546 -0.000307273,0.000244243 -0.000551516,0.000858789 -0.000551516,0.00122909 0,0.000370304 -0.000551516,0.00258425 -0.000551516,0.00258425l-6.30304e-005 0.0015994 -0.00098091 0.00246212 -0.000492425 0.00227303 6.30304e-005 0.00135515 5.9091e-005 0.00178455 0.000370304 0.00129212 0.00128818 0.000185152 0.000736668 0 0.000673637 -0.000307273 0.000370304 -0.000618486 0 -0.000736668 0 -0.00104394 -0.000244243 -0.00111091 -0.000126061 -0.000736668 0 -0.00147727 0.000307273 -0.00110697 0.000433334 -0.00246212 0.000858789 -0.00227303 0.000244243 -0.00178455 0.000429395 -0.00135515 6.30304e-005 -0.00135121 0.000673637 -0.000740607 0.000185152 -0.00184364 0 -0.00129212 0.000370304 -0.00104788 0 -0.000858789 0 -0.000618486 -0.000862728 0.000126061z"/>
    <polygon id="_442950448" class="fil0" points="0.0929816,0.00455395 0.0931668,0.0035691 0.0931668,0.00301758 0.0928004,0.00258425 0.092245,0.00258425 0.0918156,0.00289546 0.0912641,0.00344697 0.0908938,0.00486122 0.0899759,0.00627546 0.0897907,0.00732334 0.088991,0.00800092 0.0880692,0.00972244 0.0875177,0.0110737 0.0872104,0.012673 0.0865959,0.0140912 0.0861034,0.0156906 0.085615,0.0176564 0.0853668,0.0192558 0.0849374,0.0206109 0.0849374,0.02184 0.0849374,0.0228249 0.085615,0.0232582 0.0864738,0.0235025 0.0871474,0.0235025 0.0877028,0.0231952 0.0878841,0.0223325 0.0881913,0.0212885 0.0882544,0.0201185 0.0888059,0.0176564 0.0891131,0.0155646 0.0899128,0.0135988 0.0906495,0.0113218 0.0915083,0.00947819 0.0918786,0.00836728 0.0920007,0.00738243 0.092308,0.00652365 0.0926153,0.00596819 0.0927374,0.00492425 "/>
    <polygon id="_442950328" class="fil0" points="0.110914,0.00898183 0.110421,0.00843031 0.109685,0.00830819 0.108885,0.00885971 0.108089,0.010274 0.106801,0.0111367 0.104713,0.0135988 0.103299,0.0156906 0.10164,0.0177824 0.10066,0.0191967 0.100167,0.0203037 0.0993674,0.0217179 0.0985086,0.0231952 0.0980792,0.0244243 0.0975277,0.0254722 0.0975277,0.026457 0.0977129,0.0270716 0.0983235,0.0273788 0.0990641,0.027564 0.0999229,0.027564 0.100352,0.0272567 0.100845,0.0267012 0.101396,0.0254091 0.101581,0.0242391 0.103362,0.0209182 0.104406,0.0188264 0.105572,0.01729 0.106494,0.016057 0.107167,0.0145837 0.107845,0.0137209 0.109011,0.0123658 0.109992,0.0111997 0.110421,0.010274 0.110729,0.00984456 "/>
    <polygon id="_442949920" class="fil0" points="0.126266,0.0171679 0.126388,0.0163643 0.126144,0.0157497 0.125651,0.0155055 0.124977,0.0155055 0.124422,0.0158758 0.123193,0.0165494 0.122212,0.0178415 0.121046,0.0192558 0.120002,0.0204258 0.118651,0.0217179 0.117729,0.022947 0.116563,0.0244243 0.115641,0.0258385 0.114412,0.0271937 0.113368,0.0283006 0.112631,0.0292225 0.112387,0.0302703 0.11288,0.0311291 0.113738,0.0313773 0.114538,0.0315625 0.115582,0.0309479 0.116441,0.029837 0.117977,0.0273158 0.120002,0.0250388 0.121475,0.02301 0.12289,0.0211034 0.123685,0.0201185 0.124729,0.0190746 0.125159,0.018397 0.125714,0.0177824 "/>
    <path id="_442949440" class="fil0" d="M0.14211 0.0444207l0.00110303 0 0.000677577 -0.000248182 0.000181212 -0.000858789 -0.000429395 -0.000614546 -0.000736668 -0.000311213 -0.00098091 0 -0.00135121 -5.9091e-005 -0.00110697 -0.000122121 -0.00159546 0.000122121 -0.00172152 0.000185152 -0.00159546 0.000551516 -0.00233212 0.000492425 -0.00202879 0.000433334 -0.00159546 0.000429395 -0.00171758 0.000185152 -0.00116606 0.000244243 -0.00116606 0.000248182c0,0 -0.000370304,0.000122121 -0.000677577,0.000122121 -0.000307273,0 -0.00172152,0.000307273 -0.00172152,0.000307273l-0.00091788 0.000551516 -0.000122121 0.000740607 0.000181212 0.000921819 0.000492425 0.000492425 0.000551516 0.000429395 0.000614546 0.000185152 0.000677577 0 0.000858789 0 0.00202485 -0.000555455 0.00172152 -0.000858789 0.00165849 -0.000307273 0.00159546 -6.30304e-005c0,0 0.000488485,-0.000492425 0.000858789,-0.000551516 0.000370304,-6.30304e-005 0.00221,-0.000370304 0.00221,-0.000370304l0.00196576 -0.000429395 0.00116606 -0.000307273 0.000736668 -0.000555455 0.00165849 -0.000122121 0.00122909 0 0.000799698 -0.000307273z"/>
    <path id="_442949512" class="fil0" d="M0.136027 0.0552461l0.00117 6.30304e-005 0.00091788 0 0.000614546 0 0.000555455 -0.000185152 0.000122121 -0.000614546 5.9091e-005 -0.000370304 -0.000551516 -0.000551516 -0.000492425 -0.000370304 -0.000858789 -0.000248182 -0.00104394 -0.000122121 -0.00110697 -5.9091e-005 -0.000736668 0 -0.00134727 0 -0.00135121 0 -0.00110697 0 -0.000799698 5.9091e-005c0,0 -0.000673637,0.000122121 -0.00122515,0.000248182 -0.000555455,0.000122121 -0.0015994,0.000307273 -0.0015994,0.000307273l-0.00178061 0.000551516 -0.00116606 0.000185152 -0.000492425 0.000677577 0 0.000736668 0.000307273 0.00104788 0.000799698 0.000799698 0.000858789 0.000185152 0.00129212 -6.30304e-005 0.00208394 -0.000551516 0.000921819 -0.000311213 0.00110697 -0.000307273 0.00110697 -0.000122121 0.00098091 -0.000429395 0.000858789 -0.000307273 0.000551516 0 0.00135121 -0.000248182z"/>
    <path id="_442949872" class="fil0" d="M0.125773 0.0693965l-0.00098091 0.000185152 -0.000551516 0.000677577 0 0.000736668 0.000244243 0.000492425 0.000673637 0.000555455 0.00135121 0.00098485 0.00098485 0.000181212 0.000736668 0.000126061 0.00091788 0.000244243 0.00110697 0.000248182 0.00233212 0.000492425 0.00239515 0.000614546 0.00227303 0.000736668 0.0026394 0.00122909 0.00190667 0.000614546 0.00116606 0.000248182 0.00116606 6.30304e-005 0.000122121 -0.000740607 -0.000307273 -0.000614546 -0.000858789 -0.000677577 -0.00128818 -0.000799698 -0.00129212 -0.000736668 -0.00128818 -0.000614546 -0.00135121 -0.000555455 -0.00122909 -0.000614546 -0.00104394 -0.000370304 -0.00116606 -0.000307273 -0.00104394 -0.000185152c0,0 -0.000799698,3.9394e-006 -0.00110303,-0.000122121 -0.000307273,-0.000122121 -0.00110697,-0.000429395 -0.00110697,-0.000429395l-0.00104394 -0.000555455 -0.000858789 -0.000185152 -0.00098485 -5.9091e-005 -0.000673637 -0.000614546 -0.000677577 0 -0.00116606 -0.000248182z"/>
    <polygon id="_442949776" class="fil0" points="0.127124,0.0868677 0.126266,0.0861941 0.125466,0.0861941 0.124792,0.0862531 0.124422,0.0868086 0.124241,0.0877304 0.124607,0.088345 0.125159,0.0889004 0.125773,0.0893889 0.126695,0.0898853 0.127739,0.0901925 0.130378,0.0912365 0.1321,0.0915438 0.132896,0.0922213 0.134066,0.0927138 0.135661,0.0936986 0.136949,0.0946204 0.137627,0.095235 0.1383,0.0953571 0.138793,0.0951759 0.138978,0.0943762 0.138671,0.0935725 0.1383,0.0928359 0.137749,0.0920992 0.136705,0.0914216 0.13572,0.0908071 0.134802,0.0901295 0.134003,0.0895741 0.133022,0.0889595 0.131852,0.088408 0.1313,0.0882819 0.130134,0.0880377 0.129334,0.0879156 0.128476,0.087301 "/>
    <path id="_442949656" class="fil0" d="M0.119202 0.104587l-0.000488485 -0.000862728 -0.000614546 -0.000799698 -0.00098485 -0.00110697 -0.000610607 -0.000551516 -0.00117 -0.000677577 -0.000858789 -0.000799698 -0.00153637 -0.000799698 -0.00091788 -0.000492425 -0.000921819 -0.000555455 -0.000858789 0 -0.000677577 0.000370304 -0.000429395 0.000370304 -6.30304e-005 0.000614546 0 0.000614546 0.000185152 0.000492425 0.00110697 0.000736668 0.000858789 0.000307273 0.00098091 0.000248182 0.00190273 0.000862728c0,0 0.000740607,0.000551516 0.00104394,0.000736668 0.000307273,0.000185152 0.00110697,0.000677577 0.00110697,0.000677577l0.000858789 0.000677577 0.000677577 0.000673637 0.000429395 0.000555455 0.000673637 0.000185152 0.000555455 -0.000248182 0 -0.000736668 -0.000248182 -0.000492425z"/>
    <polygon id="_442949152" class="fil0" points="0.100183,0.103874 0.0998165,0.10385 0.0993241,0.103925 0.0989065,0.104024 0.0985401,0.104292 0.0982683,0.104808 0.098418,0.105277 0.0984889,0.105718 0.0990562,0.106285 0.0997653,0.1069 0.100403,0.10749 0.100994,0.108007 0.101656,0.108448 0.10244,0.108743 0.103275,0.108818 0.103646,0.108448 0.103768,0.108007 0.103744,0.107613 0.103397,0.107171 0.103031,0.106628 0.102613,0.106139 0.102074,0.105643 0.101731,0.105225 0.101459,0.104957 0.101239,0.10454 0.101093,0.104315 0.100797,0.103949 "/>
   </g>
  </g>
 </g>
</svg>
