<?xml version="1.0" encoding="UTF-8"?>
<!DOCTYPE svg PUBLIC "-//W3C//DTD SVG 1.1//EN" "http://www.w3.org/Graphics/SVG/1.1/DTD/svg11.dtd">
<!-- Creator: CorelDRAW -->
<svg xmlns="http://www.w3.org/2000/svg" xml:space="preserve" width="3.7703mm" height="3.4056mm" style="shape-rendering:geometricPrecision; text-rendering:geometricPrecision; image-rendering:optimizeQuality; fill-rule:evenodd; clip-rule:evenodd"
viewBox="0 0 0.149347 0.134901"
 xmlns:xlink="http://www.w3.org/1999/xlink">
 <defs>
  <style type="text/css">
   <![CDATA[
    .fil0 {fill:#FEFEFE}
   ]]>
  </style>
 </defs>
 <g id="Layer_x0020_1">
  <metadata id="CorelCorpID_0Corel-Layer"/>
  <g id="_442947064">
   <g>
    <polygon id="_442949128" class="fil0" points="0.0559432,0.0998445 0.0560818,0.0985611 0.0561729,0.097044 0.0561333,0.0955981 0.0558323,0.0943029 0.0559828,0.0925798 0.0556184,0.0907141 0.0555154,0.0886978 0.0550083,0.0865747 0.0547628,0.0850734 0.0543746,0.0833107 0.0539349,0.0813143 0.0534001,0.0792901 0.0529921,0.0771907 0.0525524,0.0751943 0.0524059,0.0729484 0.0523227,0.0712728 0.0528535,0.0697636 0.0537447,0.0681395 0.054739,0.0665392 0.0563076,0.0656519 0.0582248,0.0650815 0.0598885,0.0654341 0.0612155,0.0658025 0.0625028,0.0667096 0.0631049,0.0673196 0.0640952,0.0669314 0.0661035,0.0668284 0.0677949,0.0670779 0.0683415,0.06789 0.0687099,0.0685436 0.0701478,0.0677315 0.0715263,0.0671215 0.0732771,0.0671651 0.0747626,0.0673592 0.076343,0.0680167 0.077472,0.0691021 0.0794248,0.0692051 0.0810608,0.0696606 0.0824789,0.0704924 0.0834295,0.0714194 0.0842138,0.0729602 0.0845783,0.0748259 0.0842574,0.077163 0.0831364,0.079611 0.0818609,0.0822333 0.0802923,0.0851051 0.0785771,0.0877155 0.0769174,0.0901199 0.0748774,0.0923144 0.0733167,0.0939741 0.0719224,0.0950198 0.0716451,0.0968182 0.0703934,0.0973529 0.0687535,0.0981095 0.0674265,0.0977411 0.0663689,0.0967865 0.0662738,0.0955467 0.0673235,0.0937443 0.069415,0.0905754 0.0724255,0.08766 0.0742912,0.0853111 0.0764421,0.0827126 0.0784345,0.0802883 0.0795001,0.0780463 0.0807954,0.0757608 0.0812034,0.0738911 0.0797457,0.073594 0.0784504,0.073899 0.0777572,0.0748061 0.0765015,0.076553 0.0750953,0.077266 0.0738832,0.077262 0.072885,0.0761014 0.0725958,0.0743664 0.0730236,0.0728295 0.0736376,0.0710153 0.072267,0.0711856 0.0707578,0.0718709 0.0701241,0.072576 0.069724,0.0740099 0.0694982,0.0748299 0.0690625,0.0755904 0.0681316,0.0757726 0.0675612,0.0750636 0.0668957,0.0738871 0.0664323,0.0719937 0.0667452,0.0708648 0.0656044,0.0702191 0.064523,0.0701399 0.0637427,0.0705835 0.0635367,0.0725126 0.0628871,0.0736534 0.0622691,0.0746952 0.0605936,0.0747824 0.0591636,0.0743823 0.0585298,0.0731068 0.0581416,0.0721165 0.0584704,0.0713243 0.0583199,0.0702904 0.0584427,0.0694427 0.0593418,0.0685911 0.0584229,0.0683336 0.0571711,0.0688684 0.0564502,0.0698824 0.0555708,0.0710708 0.055349,0.0726631 0.055757,0.0747626 0.0567711,0.0782404 0.0574048,0.0815044 0.0579039,0.0840712 0.0586684,0.0872599 0.059223,0.0896208 0.0594726,0.0918945 0.0599281,0.0942236 0.0597815,0.0967231 0.0598845,0.0987354 0.0593696,0.0998049 0.0583674,0.100629 0.0570721,0.10093 0.0564621,0.10076 "/>
    <path id="_442948552" class="fil0" d="M0.0528654 0.103402l0.001529 -0.00034858 0.00288371 -7.92228e-005 0.00282825 0.000122795 0.00249156 0.000142601 0.00258266 0.000606054 0.00281637 0.000562482 0.0027015 0.000970479 0.0017429 0.00125568 0.00150919 0.00129925 0.000732811 0.000534754 -0.000336697 0.00200434 -0.000716966 0.00178647 -0.00137452 0.00138244 -0.00161218 0.000653588 0.000130718 0.00190927 -0.000772422 0.00199245 -0.0012636 0.000970479 -0.00127549 0.000637744 -0.000681316 0.000475337 0.000518909 0.00168745 -0.000146562 0.0017231 -0.00112496 0.0016716 -0.00227766 0.00146166 -0.00289559 0.000518909 -0.00294313 0.000289163 -0.0020083 0.00010299 -0.00287183 -0.000356503 -0.00217467 -0.000495142 -0.00140224 -0.000499104 -0.000574365 -0.000713005 0.00031293 -0.00112496 0.000534754 -0.000732811 0.000942751 -0.000621899 0.00141413 6.33782e-005 -0.00147751 -0.000629821 -0.00153296 -0.000427803 -0.000883334 -0.00156861 0.000194096 -0.00148939 0.000720927 -0.00101405 0.00190135 -0.00090314 0.00235688 -0.000558521 0.00236084 0.000213902 0.00252325 3.96114e-005 0.00261039 0.000503065 0.00198057 0 0.00269358 -0.000574365 0.000760539 -0.00155277 -0.00234499 0.000118834 -0.00350957 0.00034858 -0.00218655 -5.5456e-005 -0.00223012 -0.000289163 -0.00263812 -0.000400075 -0.0022222 -0.00072885 -0.00153692 -0.00120023 -0.000170329 -0.00137055 0.00086749 -0.000748655 0.00197265 -0.00154881 0.00242818 -0.000427803 0.00242026 7.92228e-006 0.00280053 0.000229746 0.00199641 0.000332736 0.00158842 0.000221824 0.00159634 0.000994246 0.0016518 0.000788267 0.00139828 -0.000273319 0.00149335 -0.00101801 0.000796189 -0.000883334 -0.0017429 -0.00125568 -0.00142997 -0.000396114 -0.00163595 -0.000455531 -0.0020281 -0.000229746 -0.00230538 -0.000419881 -0.00184985 -7.52617e-005 -0.00206771 0.000308969 -0.00226973 0.000253513 -0.00188154 2.7728e-005 -0.00142997 -0.000396114 -0.000819956 -0.00100217 -0.000621899 -0.000942751 0.000126756 -0.000847684 0.000225785 -0.000819956 0.000934829 -0.000182212 0.00119626 0.000443648zm0.00137452 0.0200117l0.00205583 0.000130718 0.00232915 -0.000455531 0.00256286 -0.000503065 0.00135075 -0.000507026 0.000320852 -0.000158446 0.000364425 -0.000182212 0.00048722 1.58446e-005 0.000229746 0.000257474 -0.000261435 0.000701122 -0.000550598 0.000411959 -0.00117646 0.000665471 -0.00186174 0.000364425 -0.00180628 0.000162407 -0.00154484 1.18834e-005 -0.00156069 -0.000324813 -0.00093879 -0.00059021z"/>
    <polygon id="_442948456" class="fil0" points="0.0494033,0.128697 0.0499658,0.128852 0.0504847,0.129149 0.0503302,0.129711 0.0501361,0.130413 0.0496093,0.130947 0.0490587,0.131023 0.048219,0.130789 0.0473277,0.130464 0.0462463,0.130013 0.0455927,0.129379 0.0447965,0.128701 0.0439528,0.127937 0.0432953,0.126772 0.0426892,0.125695 0.0426892,0.124336 0.0424595,0.122985 0.0422891,0.121425 0.0422812,0.120363 0.0420317,0.119088 0.0423248,0.118034 0.042301,0.116212 0.0423684,0.114338 0.0428278,0.112425 0.0429427,0.110643 0.0432002,0.1089 0.043632,0.107351 0.0439687,0.105857 0.0437785,0.104368 0.0439013,0.103116 0.0440914,0.101884 0.0429071,0.101255 0.042103,0.100348 0.0413622,0.0989334 0.0409899,0.0983749 0.0402056,0.0974005 0.0391281,0.0966478 0.0378843,0.0956972 0.0367475,0.0946277 0.0355988,0.0933245 0.0343867,0.0917004 0.0334003,0.0903694 0.0325923,0.0889355 0.0315703,0.0874422 0.0308533,0.0859567 0.0302314,0.0846496 0.0295343,0.0830928 0.028845,0.0817658 0.0283816,0.0799002 0.0278983,0.0781018 0.0272883,0.0764936 0.0268803,0.0752458 0.0268486,0.0737247 0.0268288,0.0719026 0.0265634,0.0698626 0.0269041,0.0683693 0.0270902,0.0666066 0.027118,0.0648755 0.027419,0.0635208 0.0272526,0.0624909 0.0278745,0.060245 0.0285796,0.0582486 0.0290391,0.0563314 0.0299066,0.0548341 0.0308375,0.052295 0.0329567,0.049027 0.0345887,0.046682 0.036799,0.0444202 0.0390964,0.0424119 0.0409027,0.0407958 0.0430932,0.0394371 0.0450619,0.0383201 0.0471613,0.0370129 0.0500292,0.0353888 0.0533169,0.0338836 0.0565334,0.0323546 0.0597538,0.0313603 0.0635129,0.0300571 0.066456,0.0295145 0.0692724,0.0291619 0.072267,0.0287064 0.0756736,0.0286707 0.0786722,0.028746 0.0815638,0.028944 0.0837227,0.0293204 0.086036,0.0299621 0.0885552,0.0301324 0.09113,0.0309207 0.0938236,0.0318198 0.09622,0.0327151 0.0982244,0.0336499 0.100458,0.0345728 0.102978,0.0361018 0.104594,0.0370802 0.106602,0.0385459 0.107929,0.0397461 0.109751,0.0416157 0.111221,0.0433864 0.112667,0.0455254 0.11414,0.0478268 0.115075,0.0498985 0.116279,0.0523544 0.117519,0.0549648 0.11824,0.056981 0.118759,0.0594686 0.119195,0.0617066 0.119298,0.0637783 0.119373,0.0662184 0.119401,0.0685713 0.119405,0.0704647 0.119317,0.0724057 0.119151,0.0746279 0.118806,0.0769531 0.118343,0.0791713 0.117551,0.0812192 0.116735,0.0833345 0.115875,0.0850655 0.11479,0.0868044 0.113201,0.0887097 0.111696,0.0903338 0.110207,0.0918866 0.10865,0.0934195 0.106087,0.0955823 0.103956,0.0967271 0.101746,0.098157 0.0995949,0.0993771 0.0976144,0.10026 0.0949723,0.101342 0.092968,0.10177 0.0907259,0.10251 0.0883611,0.103136 0.0857468,0.103849 0.0836117,0.104467 0.0821976,0.105208 0.0809855,0.105778 0.0803913,0.106824 0.0789693,0.109224 0.0785613,0.111233 0.0777691,0.112774 0.0771075,0.11414 0.0767035,0.115772 0.0763391,0.117083 0.0758875,0.118371 0.075428,0.119848 0.0749606,0.121365 0.0745487,0.122851 0.0739466,0.124332 0.073594,0.126119 0.0730038,0.127557 0.0723621,0.129026 0.0715738,0.130504 0.0706865,0.131672 0.0698468,0.132334 0.0690149,0.132948 0.0681237,0.133784 0.0673196,0.134314 0.0661392,0.134837 0.0648518,0.134901 0.0636317,0.134564 0.0628871,0.134358 0.0626732,0.13378 0.0620631,0.133609 0.0612273,0.133566 0.0599122,0.133387 0.0593022,0.133221 0.0586764,0.132762 0.058308,0.132235 0.0581773,0.131684 0.0583119,0.131201 0.0587635,0.130761 0.0596548,0.130773 0.0607282,0.130789 0.0617185,0.130781 0.0629544,0.130559 0.0643051,0.130274 0.0655886,0.129878 0.0671096,0.129311 0.0680167,0.128761 0.0686386,0.127711 0.0694546,0.126289 0.0699458,0.124352 0.0703934,0.122403 0.0708014,0.120589 0.0712926,0.119167 0.0716253,0.117281 0.0721165,0.115348 0.0726117,0.11374 0.07319,0.11216 0.0735861,0.110575 0.074204,0.109189 0.0745249,0.108199 0.0750398,0.107022 0.0758123,0.105774 0.0763312,0.104412 0.0770402,0.103386 0.0776225,0.102463 0.078284,0.10194 0.0793694,0.10177 0.0810766,0.10154 0.0827205,0.101381 0.0843049,0.100926 0.0855725,0.10076 0.0869272,0.100288 0.0891177,0.0996742 0.0909359,0.0990483 0.0925401,0.098363 0.0943425,0.097452 0.0961804,0.0965964 0.0978005,0.0954912 0.0992899,0.0945366 0.100641,0.0937364 0.101928,0.0928214 0.10314,0.091839 0.104039,0.0911458 0.105236,0.0898783 0.106396,0.0884087 0.107743,0.0866182 0.108599,0.0853943 0.109442,0.0838851 0.110437,0.0823244 0.111165,0.0805498 0.111843,0.0791357 0.112449,0.0777968 0.112881,0.0767431 0.113277,0.0751547 0.113724,0.0735346 0.113907,0.0725483 0.114164,0.0711143 0.114109,0.0694507 0.114204,0.0679217 0.114113,0.0663887 0.113918,0.0645468 0.113835,0.0626415 0.113895,0.0612432 0.113998,0.0598568 0.113938,0.0583832 0.113673,0.0571315 0.113356,0.0553926 0.113039,0.0536576 0.1125,0.0517166 0.112009,0.0502629 0.1113,0.0487458 0.110322,0.0472049 0.109371,0.0457155 0.108246,0.0445074 0.107232,0.0430932 0.105988,0.0418098 0.104919,0.0407562 0.104047,0.0399956 0.103073,0.039445 0.102249,0.0390251 0.10087,0.0384072 0.0997573,0.0380032 0.0988899,0.0375754 0.0979233,0.0371634 0.0964854,0.0365772 0.0953763,0.0361731 0.0944732,0.035876 0.0930907,0.0352581 0.0918271,0.0349056 0.0902902,0.0343391 0.0887256,0.034046 0.0874105,0.033539 0.0858498,0.0330597 0.0846377,0.0328616 0.0835721,0.0328022 0.0819124,0.0328577 0.0805379,0.0329012 0.0793337,0.0329923 0.0779592,0.0330319 0.0767471,0.0331666 0.0752141,0.0334479 0.0736891,0.0336855 0.0721244,0.0339074 0.0707143,0.0338955 0.0696091,0.0341529 0.0682069,0.0344698 0.0668482,0.0346124 0.0659966,0.0347986 0.0648003,0.0352185 0.0636753,0.0353769 0.062487,0.0357532 0.061061,0.0361573 0.0598568,0.0367673 0.0584862,0.0374684 0.0576465,0.037611 0.0567275,0.0378764 0.0557451,0.0380269 0.0544617,0.0387558 0.0529921,0.0394767 0.0518117,0.0399956 0.0504174,0.0407879 0.0489042,0.0414969 0.0481278,0.0422693 0.0473158,0.0426575 0.0455927,0.0432636 0.0446341,0.0438419 0.0433032,0.044745 0.0422376,0.0455333 0.0413345,0.0464127 0.0398728,0.0472762 0.0387439,0.0482823 0.0374447,0.0492409 0.0367554,0.0503699 0.0353651,0.0518196 0.0346164,0.0531664 0.0340539,0.0545172 0.0331231,0.0563314 0.0324734,0.0576584 0.0320298,0.0590883 0.0316257,0.0607203 0.0312217,0.0621622 0.0305206,0.0638496 0.0302591,0.0658025 0.0298115,0.0677513 0.0295026,0.0695497 0.0294986,0.071764 0.029665,0.0733643 0.0299026,0.0752181 0.0303701,0.0765728 0.030473,0.0780622 0.0308097,0.0787197 0.0310593,0.080015 0.0317881,0.0816312 0.0325645,0.083073 0.0333766,0.0843802 0.0342322,0.086032 0.0351472,0.0876521 0.0363791,0.0887929 0.037409,0.0901635 0.0388905,0.091942 0.0399085,0.0933561 0.0414811,0.0949683 0.0428793,0.0962042 0.0444163,0.0974322 0.045569,0.0980342 0.0468286,0.0989017 0.047803,0.0994563 0.0486745,0.0998841 0.0489597,0.100201 0.049027,0.100973 0.0488607,0.101916 0.0484368,0.103449 0.048013,0.105307 0.0471732,0.107149 0.0468682,0.109937 0.0464959,0.111954 0.046179,0.113605 0.0458343,0.11502 0.0456244,0.116279 0.0455373,0.117951 0.04526,0.119618 0.0453313,0.121567 0.0456323,0.122688 0.0461275,0.124285 0.0469355,0.125782 0.0476446,0.12678 0.0481952,0.127683 0.0487181,0.128159 "/>
   </g>
   <g>
    <polygon id="_442949080" class="fil0" points="0.032719,0.0987908 0.0325526,0.0984937 0.0326675,0.0980739 0.03262,0.0977094 0.032113,0.0973688 0.0315307,0.0971073 0.0308058,0.0970044 0.0299898,0.0972301 0.0290035,0.0973569 0.0281835,0.0977807 0.0271497,0.0982482 0.0260088,0.0987354 0.0247769,0.0991949 0.0234935,0.0998445 0.0217823,0.100221 0.0204712,0.100962 0.019061,0.101524 0.0181896,0.102134 0.0168309,0.102863 0.0151078,0.103639 0.0138561,0.103996 0.0123429,0.104376 0.0110397,0.104368 0.00949881,0.105042 0.00851249,0.105957 0.0086749,0.107644 0.00952258,0.108448 0.0102237,0.108642 0.0110001,0.108797 0.0123984,0.108298 0.0138878,0.107703 0.0158921,0.106618 0.0176429,0.105525 0.0194373,0.104511 0.0218774,0.103671 0.0240798,0.102768 0.026096,0.101873 0.0280766,0.1011 0.0299898,0.100557 0.0313643,0.100371 0.0322476,0.0999198 0.0327032,0.0994167 "/>
    <polygon id="_442948936" class="fil0" points="0.0216714,0.0862499 0.0203127,0.0863766 0.0187402,0.0868242 0.0167002,0.0871411 0.0147751,0.0874937 0.0127747,0.0878818 0.0106159,0.088167 0.00880957,0.0885513 0.00702706,0.0890662 0.00533169,0.0890345 0.0037512,0.089292 0.00190927,0.0897911 0.000831839,0.0905002 0.000158446,0.0913241 -0,0.092354 0.000447609,0.0932373 0.00175875,0.0932848 0.00321645,0.0928055 0.00504649,0.0921123 0.00725285,0.0916529 0.00905913,0.0912726 0.011012,0.0910547 0.0131114,0.0907537 0.0152702,0.0904685 0.0174607,0.0900684 0.0194452,0.0897357 0.0208633,0.0896247 0.0221467,0.0895376 0.0230261,0.08909 0.0236718,0.0881314 0.0237391,0.0872045 0.023244,0.0864954 0.0226023,0.0863172 "/>
    <polygon id="_442948672" class="fil0" points="0.0174409,0.07971 0.0182133,0.0789732 0.0185619,0.0779354 0.0186094,0.0773175 0.0180549,0.0765966 0.0172587,0.0760578 0.0164585,0.0762163 0.0153732,0.0764817 0.0135471,0.0764817 0.0118874,0.0763351 0.0104099,0.0764302 0.00838573,0.0766877 0.00678543,0.0770006 0.00530397,0.0773492 0.00398887,0.0779909 0.00371951,0.0787395 0.00420673,0.0792545 0.00490785,0.0794486 0.00691219,0.0795001 0.00919777,0.0794407 0.0112298,0.0793733 0.0126756,0.0793971 0.0143869,0.079809 0.0157574,0.0798724 0.0165655,0.0799081 "/>
    <polygon id="_442948504" class="fil0" points="0.0186174,0.0725205 0.0190808,0.071764 0.0192472,0.0709282 0.0188867,0.0701954 0.0183044,0.0697834 0.01794,0.0697438 0.0171874,0.069724 0.0163793,0.0696883 0.0150008,0.0694348 0.0129212,0.0689832 0.0111466,0.0685515 0.00975233,0.0683534 0.00830255,0.0681395 0.00713401,0.0682584 0.00610808,0.0685436 0.00576346,0.0693318 0.00592587,0.0698824 0.00655569,0.0705598 0.00802131,0.0709678 0.00989097,0.0714867 0.011313,0.0718194 0.0130836,0.0722472 0.0145691,0.0723463 0.0158564,0.0727028 0.0169695,0.0730117 0.017837,0.0730632 "/>
    <polygon id="_442948600" class="fil0" points="0.0226775,0.0615284 0.0228162,0.0608075 0.0227449,0.0601578 0.0223329,0.0595993 0.0218813,0.0594092 0.0213109,0.0591913 0.0206653,0.0585694 0.0196235,0.0577732 0.0186609,0.0569374 0.0175756,0.0560699 0.0166606,0.0550559 0.0157653,0.05443 0.0147988,0.0535942 0.0138006,0.0528733 0.0127866,0.0522118 0.0119349,0.0516612 0.010909,0.0508056 0.00996623,0.0496608 0.00898387,0.0488844 0.00810449,0.0481991 0.00725681,0.047395 0.00661114,0.0467731 0.00577138,0.0461592 0.00495142,0.0459334 0.00436518,0.045771 0.00365217,0.046076 0.00335509,0.04669 0.00337093,0.0473237 0.00381458,0.0477634 0.00455135,0.0482823 0.00450778,0.0489042 0.00440083,0.0495063 0.00550598,0.0500648 0.00675374,0.0507897 0.00808073,0.0519147 0.00907893,0.0526356 0.010093,0.0532971 0.0110397,0.0541924 0.0121211,0.0550598 0.0129965,0.0559947 0.0141056,0.0570008 0.0153415,0.0582248 0.0165496,0.0593181 0.0174884,0.0600232 0.018245,0.0609263 0.019168,0.0616868 0.0201067,0.0623919 0.0210257,0.0627088 0.0217625,0.062788 0.0224082,0.0622731 "/>
    <polygon id="_442948528" class="fil0" points="0.0136937,0.0369812 0.0128618,0.0367475 0.0120696,0.036593 0.011828,0.0372308 0.0113209,0.0376704 0.0112694,0.0385538 0.0125172,0.0396035 0.0142799,0.0408671 0.0157733,0.0421782 0.0175993,0.0439053 0.0193422,0.0454818 0.0210297,0.046785 0.0223289,0.048108 0.0239807,0.0490825 0.0250106,0.0493043 0.0257355,0.0489914 0.0262227,0.0481635 0.026405,0.0475059 0.0261039,0.0469752 0.025581,0.0463176 0.0245828,0.0455254 0.0231172,0.0443489 0.021505,0.0430021 0.0203206,0.0424159 0.0192234,0.0408275 0.017528,0.0397778 0.0157138,0.0386964 0.014886,0.0377615 "/>
    <polygon id="_442947856" class="fil0" points="0.0220121,0.0266426 0.0211525,0.0262742 0.0204197,0.0261356 0.0198057,0.0267377 0.0197186,0.0272883 0.019984,0.0279419 0.0193145,0.0278191 0.0187005,0.0277121 0.0181975,0.0281518 0.0183005,0.0286945 0.0191917,0.0296452 0.0200196,0.030584 0.0214377,0.0319387 0.0235529,0.0335548 0.0251612,0.03445 0.0262465,0.0353928 0.0280805,0.0368663 0.0294709,0.0380864 0.0310712,0.0392391 0.0323982,0.0395441 0.0330557,0.0390212 0.0336538,0.0384785 0.0338361,0.0378249 0.0337331,0.0372783 0.0332023,0.0368782 0.0324893,0.0366802 0.0319189,0.0361969 0.0311306,0.0353373 0.0300967,0.0342163 0.0287896,0.0331468 0.0276646,0.0321288 0.0263178,0.030984 0.0255652,0.0300056 0.0247769,0.0291421 0.0239728,0.028342 0.0230618,0.0277042 0.0227369,0.0270348 "/>
    <polygon id="_442947784" class="fil0" points="0.0404432,0.0117289 0.0399362,0.011012 0.0392232,0.0108139 0.0385617,0.0108852 0.0382884,0.0116458 0.0388311,0.0126955 0.0390648,0.0146206 0.0392826,0.0166091 0.039548,0.0184153 0.0399006,0.0203761 0.0403601,0.0228795 0.0407681,0.0244046 0.0414335,0.0259375 0.0420356,0.0274547 0.0433428,0.0289718 0.0443965,0.0300334 0.0456125,0.0305008 0.0462978,0.0305642 0.0469672,0.0302354 0.0473594,0.0295105 0.0474505,0.0289559 0.0471178,0.028544 0.0463889,0.0277003 0.0454858,0.026805 0.044646,0.0256721 0.0440598,0.0245472 0.0433982,0.0230142 0.0431051,0.0215209 0.0426654,0.0201147 0.042301,0.0191165 0.0421861,0.017223 0.0417029,0.0157376 0.0413781,0.0143671 0.0412632,0.0136263 0.0408394,0.0126123 "/>
    <polygon id="_442948168" class="fil0" points="0.052596,0.00650419 0.0521841,0.00568027 0.0519385,0.00541884 0.0514631,0.00573969 0.0510432,0.0063299 0.0507462,0.00739941 0.0504491,0.00892445 0.0505323,0.0109367 0.0509125,0.0130321 0.0513245,0.0150088 0.051879,0.0167041 0.052493,0.0184153 0.0531823,0.020083 0.0540775,0.0219368 0.055143,0.023644 0.0556223,0.0242263 0.0566166,0.024567 0.0574563,0.0245432 0.057999,0.0237312 0.0581812,0.0230776 0.0577693,0.0222576 0.0571276,0.0211129 0.0563551,0.0197463 0.0557847,0.0185579 0.0551628,0.0171042 0.054533,0.0154524 0.0543389,0.0143076 0.0537725,0.0131193 0.0535705,0.012232 0.0532456,0.0108575 0.0530436,0.00996623 0.0530872,0.00888484 0.0529287,0.0080728 0.0527545,0.00731623 "/>
    <path id="_442947952" class="fil0" d="M0.0755429 0.00279656l0.000213902 -0.000776383 -0.000265396 -0.000649627 -0.000225785 -0.000578326 4.75337e-005 -0.000629821 -0.000594171 -0.000162407 -0.00062586 0.000404036 -0.000324813 0.000934829 -0.00031293 0.00113289c0,0 -0.000297085,0.00107347 -0.000380269,0.00137055 -8.31839e-005,0.000301047 -0.000364425,0.00131114 -0.000364425,0.00131114l-0.000546637 0.00196869 -0.000610016 0.00150127 -0.000681316 0.00199245 -9.90285e-005 0.00151316 -0.000344619 0.0021509 -0.000301047 0.00177855 -0.000368386 0.00156861 1.58446e-005 0.00109327 0.00031293 0.00118042 0.000823917 0.00048722 0.00110516 0.00017429 0.000574365 -0.000225785 0.000598132 -0.000538715 0.000435725 -0.00109724 -0.000273319 -0.00110516 0 -0.00160426 0.000194096 -0.00161615 0.000665471 -0.00263812 0.000447609 -0.00205979 0.00027728 -0.00146562 0.000301047 -0.00177855 0.000253513 -0.00114873 -3.96114e-005 -0.000780345 0.00027728 -0.000756578 -0.000186174 -0.000950674z"/>
    <path id="_442947976" class="fil0" d="M0.0962993 0.00259059l-0.000617938 0.000150523 -0.000328775 0.00048722 -0.000732811 0.000566443 -0.000368386 0.000859567 -0.000930868 0.00127945 -0.00111704 0.00194096c0,0 -0.000812034,0.0013151 -0.00117646,0.00146958 -0.000364425,0.000154484 -0.000768461,0.000685277 -0.00086749,0.00104178 -9.90285e-005,0.000360464 -0.00123191,0.00235688 -0.00123191,0.00235688l-0.00048722 0.00153296 -0.00161615 0.00211921 -0.00108931 0.00207168 -0.000301047 0.00133094 -0.000423842 0.0017429 1.18834e-005 0.00135075 0.00120023 0.000526832 0.000713005 0.000198057 0.000736772 -0.000118834 0.00052287 -0.000495142 0.000198057 -0.000716966 0.000281241 -0.00101009 5.94171e-005 -0.00114081 7.92228e-005 -0.000748655 0.000400075 -0.00142997 0.000594171 -0.000990285 0.00107743 -0.00226973 0.00144582 -0.00197265 0.000716966 -0.00166368 0.000784306 -0.0011923 0.000419881 -0.00129529 0.000855606 -0.000534754 0.000673394 -0.00173894 0.00034858 -0.00125172 0.000637744 -0.000915023 0.000233707 -0.000831839 0.000166368 -0.000598132 -0.00086749 -0.000110912z"/>
    <polygon id="_442948048" class="fil0" points="0.110278,0.0110952 0.110722,0.010192 0.110872,0.0096533 0.110631,0.00913835 0.110092,0.00898783 0.109593,0.009174 0.108908,0.00955823 0.108171,0.0108298 0.106899,0.0119547 0.10644,0.0129173 0.105485,0.0133609 0.104126,0.014779 0.103227,0.0159436 0.102502,0.0174092 0.101524,0.0186134 0.100617,0.0200315 0.0996147,0.0218061 0.0989453,0.0232915 0.098165,0.0244878 0.0978322,0.0256801 0.0975668,0.0266307 0.0981055,0.0272328 0.098874,0.0277003 0.0995276,0.0278825 0.100146,0.0277359 0.100554,0.0269476 0.101136,0.0260168 0.101508,0.0249037 0.102708,0.0226656 0.103568,0.0207247 0.104871,0.0190293 0.106194,0.017025 0.107525,0.0154683 0.108183,0.0144938 0.108563,0.0135709 0.109094,0.0128222 0.109541,0.0123667 0.109941,0.0113883 "/>
    <polygon id="_442947928" class="fil0" points="0.126459,0.0202097 0.126131,0.0195443 0.125449,0.0192274 0.124526,0.0195482 0.123374,0.0207049 0.121892,0.0211921 0.119207,0.0230142 0.117277,0.0246581 0.115107,0.0262386 0.113776,0.0273477 0.112999,0.0282865 0.111847,0.0294432 0.110615,0.0306434 0.10987,0.0317168 0.10905,0.0325843 0.108785,0.033535 0.108801,0.0341846 0.109312,0.0346441 0.109977,0.0350244 0.110809,0.0352541 0.111308,0.0350719 0.111934,0.0346679 0.112817,0.0335627 0.113308,0.0324813 0.115927,0.0297442 0.117503,0.0279973 0.119048,0.0268209 0.120272,0.0258781 0.121322,0.0246264 0.122209,0.0239768 0.123702,0.0229786 0.12497,0.0221111 0.125635,0.0213307 0.126047,0.020998 "/>
    <polygon id="_442948216" class="fil0" points="0.139131,0.0322714 0.139464,0.0315267 0.139393,0.0308652 0.138981,0.0304929 0.138327,0.0303146 0.137693,0.0305206 0.136319,0.0308454 0.135019,0.0318357 0.13351,0.0328933 0.132183,0.0337449 0.130527,0.0346322 0.129303,0.035575 0.127774,0.036692 0.126503,0.037817 0.12495,0.0387954 0.123639,0.0395876 0.122676,0.0402848 0.122158,0.0412315 0.122403,0.042198 0.123168,0.0426694 0.123893,0.0430616 0.125069,0.0427447 0.126202,0.0419049 0.128369,0.0398728 0.130943,0.0382131 0.132916,0.0366445 0.134798,0.0351749 0.135835,0.0344381 0.137131,0.0337053 0.137729,0.0331627 0.13843,0.032719 "/>
    <path id="_442947112" class="fil0" d="M0.147144 0.0629386l0.00107347 0.000297085 0.000716966 -5.94171e-005 0.000411959 -0.000784306 -0.000249552 -0.000709044 -0.000633782 -0.000499104 -0.000950674 -0.000261435 -0.00129133 -0.000423842 -0.00103782 -0.00041592 -0.00158049 -0.00031293 -0.00171517 -0.000281241 -0.00169537 0.000106951 -0.00239253 -0.000150523 -0.0020796 -0.000130718 -0.00166368 -1.18834e-005 -0.00171517 -0.000285202 -0.00119626 -7.52617e-005 -0.00119626 -7.52617e-005c0,0 -0.000392153,1.98057e-005 -0.000689238,-6.33782e-005 -0.000297085,-7.92228e-005 -0.00174686,-0.000162407 -0.00174686,-0.000162407l-0.00104178 0.000289163 -0.000316891 0.000681316 -7.13005e-005 0.000942751 0.000344619 0.000610016 0.000419881 0.000566443 0.000542676 0.000344619 0.000653588 0.000182212 0.0008358 0.000229746 0.00211129 7.92228e-006 0.00189739 -0.000372347 0.00168745 0.000150523 0.00156465 0.000368386c0,0 0.000610016,-0.000344619 0.000982363,-0.000305008 0.000372347,3.96114e-005 0.00224201,0.000237668 0.00224201,0.000237668l0.00202018 0.000110912 0.00121211 1.58446e-005 0.000863528 -0.000336697 0.00163991 0.000324813 0.00118834 0.000332736 0.000855606 -8.31839e-005z"/>
    <path id="_442946968" class="fil0" d="M0.138343 0.0717917l0.00111308 0.000372347 0.000891256 0.000249552 0.000594171 0.000166368 0.000586249 -3.16891e-005 0.000285202 -0.000562482 0.000158446 -0.000340658 -0.000388192 -0.000685277 -0.000376308 -0.000491181 -0.0007645 -0.000467414 -0.000978402 -0.000400075 -0.00105366 -0.000360464 -0.000713005 -0.000198057 -0.00131114 -0.000360464 -0.00130718 -0.000364425 -0.00107347 -0.000297085 -0.000788267 -0.000154484c0,0 -0.000689238,-6.33782e-005 -0.00125568,-9.50674e-005 -0.000570404,-2.7728e-005 -0.00163199,-0.000130718 -0.00163199,-0.000130718l-0.00187362 5.94171e-005 -0.00118042 -0.000134679 -0.000657549 0.00052287 -0.000198057 0.000713005 1.58446e-005 0.00109724 0.000558521 0.000990285 0.000784306 0.000407997 0.0012636 0.000289163 0.00217467 2.37668e-005 0.00097444 -4.75337e-005 0.00115269 -3.96114e-006 0.00110516 0.000178251 0.00106555 -0.000150523 0.000915023 -6.73394e-005 0.000538715 0.000146562 0.00137452 0.000126756z"/>
    <path id="_442946920" class="fil0" d="M0.124598 0.0827403l-0.00100217 -8.31839e-005 -0.000716966 0.000507026 -0.000198057 0.000713005 0.000106951 0.000542676 0.000503065 0.000720927 0.00104574 0.0013151 0.00090314 0.000443648 0.000681316 0.000316891 0.000823917 0.00048722 0.00100613 0.000534754 0.00212713 0.00110516 0.00215486 0.00123984 0.00200434 0.00132698 0.00222616 0.00190531 0.00167952 0.00110516 0.00106159 0.00055456 0.00111704 0.000372347 0.000316891 -0.000681316 -0.000130718 -0.000681316 -0.000653588 -0.000887295 -0.00103386 -0.001121 -0.0010497 -0.00106159 -0.00108535 -0.000942751 -0.00116061 -0.000899179 -0.00102197 -0.000926907 -0.000911062 -0.000637744 -0.0010497 -0.000613977 -0.000962557 -0.000459492c0,0 -0.000772422,-0.000213902 -0.00103782,-0.00041592 -0.000261435,-0.000202018 -0.000954635,-0.000713005 -0.000954635,-0.000713005l-0.000859567 -0.000819956 -0.000784306 -0.000407997 -0.000934829 -0.000324813 -0.000491181 -0.000776383 -0.000653588 -0.000182212 -0.00106555 -0.00055456z"/>
    <polygon id="_442946896" class="fil0" points="0.121207,0.100031 0.120557,0.0991473 0.119781,0.0989295 0.119111,0.0988067 0.118604,0.0992464 0.118181,0.10009 0.118371,0.100787 0.118755,0.101473 0.119218,0.10211 0.119979,0.102839 0.120906,0.103417 0.123184,0.105141 0.124768,0.105901 0.125358,0.106773 0.126356,0.107561 0.12764,0.108943 0.128638,0.110187 0.129129,0.110963 0.129751,0.111264 0.130274,0.111217 0.13067,0.110492 0.130587,0.109636 0.130428,0.10882 0.130092,0.107957 0.129264,0.107022 0.128476,0.106163 0.127767,0.105255 0.127141,0.104507 0.126356,0.103647 0.125374,0.102796 0.124871,0.102526 0.123805,0.101976 0.123069,0.101639 0.122399,0.100815 "/>
    <path id="_442946872" class="fil0" d="M0.108765 0.115067l-0.000245591 -0.000966518 -0.000380269 -0.00093879 -0.000653588 -0.00133887 -0.000443648 -0.000701122 -0.000950674 -0.000970479 -0.000617938 -0.00100613 -0.00127153 -0.00118834 -0.000760539 -0.000724889 -0.000740733 -0.000784306 -0.0008358 -0.000229746 -0.000752617 0.00017429 -0.000514948 0.00024163 -0.000225785 0.000582288 -0.000166368 0.000594171 4.75337e-005 0.000526832 0.000871451 0.00101009 0.000748655 0.000530793 0.000887295 0.000503065 0.00161218 0.00134679c0,0 0.000566443,0.000732811 0.000812034,0.000998207 0.000249552,0.000261435 0.000891256,0.000950674 0.000891256,0.000950674l0.000649627 0.000887295 0.000471376 0.0008358 0.000269358 0.000653588 0.000602093 0.000360464 0.000602093 -8.71451e-005 0.000202018 -0.000716966 -0.000106951 -0.000542676z"/>
    <polygon id="_442946992" class="fil0" points="0.0905279,0.10926 0.0901793,0.109137 0.0896842,0.109074 0.0892524,0.109058 0.0888246,0.109221 0.0884206,0.109648 0.0884404,0.110139 0.0883928,0.110591 0.088785,0.111288 0.0893118,0.112076 0.0897713,0.112821 0.0902031,0.113479 0.0907259,0.114085 0.0914073,0.114584 0.0921955,0.114881 0.0926511,0.114624 0.0928887,0.114227 0.0929719,0.113839 0.092758,0.113316 0.0925481,0.112694 0.0922748,0.112104 0.0918826,0.111482 0.0916647,0.110987 0.0914746,0.11065 0.0913716,0.110187 0.0912884,0.109934 0.0911023,0.109494 "/>
   </g>
  </g>
 </g>
</svg>
